  0
SECTION
  2
HEADER
  9
$ACADVER
  1
AC1027
  9
$ACADMAINTVER
 70
   125
  9
$DWGCODEPAGE
  3
ANSI_1252
  9
$REQUIREDVERSIONS
160
                 0
  9
$INSBASE
 10
0.0
 20
0.0
 30
0.0
  9
$EXTMIN
 10
1.000000000000000E+20
 20
1.000000000000000E+20
 30
1.000000000000000E+20
  9
$EXTMAX
 10
-1.000000000000000E+20
 20
-1.000000000000000E+20
 30
-1.000000000000000E+20
  9
$LIMMIN
 10
0.0
 20
0.0
  9
$LIMMAX
 10
12.0
 20
9.0
  9
$ORTHOMODE
 70
     0
  9
$REGENMODE
 70
     1
  9
$FILLMODE
 70
     1
  9
$QTEXTMODE
 70
     0
  9
$MIRRTEXT
 70
     0
  9
$LTSCALE
 40
1.0
  9
$ATTMODE
 70
     1
  9
$TEXTSIZE
 40
0.2
  9
$TRACEWID
 40
0.05
  9
$TEXTSTYLE
  7
Standard
  9
$CLAYER
  8
0
  9
$CELTYPE
  6
ByLayer
  9
$CECOLOR
 62
   256
  9
$CELTSCALE
 40
1.0
  9
$DISPSILH
 70
     0
  9
$DIMSCALE
 40
1.0
  9
$DIMASZ
 40
0.18
  9
$DIMEXO
 40
0.0625
  9
$DIMDLI
 40
0.38
  9
$DIMRND
 40
0.0
  9
$DIMDLE
 40
0.0
  9
$DIMEXE
 40
0.18
  9
$DIMTP
 40
0.0
  9
$DIMTM
 40
0.0
  9
$DIMTXT
 40
0.18
  9
$DIMCEN
 40
0.09
  9
$DIMTSZ
 40
0.0
  9
$DIMTOL
 70
     0
  9
$DIMLIM
 70
     0
  9
$DIMTIH
 70
     1
  9
$DIMTOH
 70
     1
  9
$DIMSE1
 70
     0
  9
$DIMSE2
 70
     0
  9
$DIMTAD
 70
     0
  9
$DIMZIN
 70
     0
  9
$DIMBLK
  1

  9
$DIMASO
 70
     1
  9
$DIMSHO
 70
     1
  9
$DIMPOST
  1

  9
$DIMAPOST
  1

  9
$DIMALT
 70
     0
  9
$DIMALTD
 70
     2
  9
$DIMALTF
 40
25.4
  9
$DIMLFAC
 40
1.0
  9
$DIMTOFL
 70
     0
  9
$DIMTVP
 40
0.0
  9
$DIMTIX
 70
     0
  9
$DIMSOXD
 70
     0
  9
$DIMSAH
 70
     0
  9
$DIMBLK1
  1

  9
$DIMBLK2
  1

  9
$DIMSTYLE
  2
Standard
  9
$DIMCLRD
 70
     0
  9
$DIMCLRE
 70
     0
  9
$DIMCLRT
 70
     0
  9
$DIMTFAC
 40
1.0
  9
$DIMGAP
 40
0.09
  9
$DIMJUST
 70
     0
  9
$DIMSD1
 70
     0
  9
$DIMSD2
 70
     0
  9
$DIMTOLJ
 70
     1
  9
$DIMTZIN
 70
     0
  9
$DIMALTZ
 70
     0
  9
$DIMALTTZ
 70
     0
  9
$DIMUPT
 70
     0
  9
$DIMDEC
 70
     4
  9
$DIMTDEC
 70
     4
  9
$DIMALTU
 70
     2
  9
$DIMALTTD
 70
     2
  9
$DIMTXSTY
  7
Standard
  9
$DIMAUNIT
 70
     0
  9
$DIMADEC
 70
     0
  9
$DIMALTRND
 40
0.0
  9
$DIMAZIN
 70
     0
  9
$DIMDSEP
 70
    46
  9
$DIMATFIT
 70
     3
  9
$DIMFRAC
 70
     0
  9
$DIMLDRBLK
  1

  9
$DIMLUNIT
 70
     2
  9
$DIMLWD
 70
    -2
  9
$DIMLWE
 70
    -2
  9
$DIMTMOVE
 70
     0
  9
$DIMFXL
 40
1.0
  9
$DIMFXLON
 70
     0
  9
$DIMJOGANG
 40
0.7853981633974483
  9
$DIMTFILL
 70
     0
  9
$DIMTFILLCLR
 70
     0
  9
$DIMARCSYM
 70
     0
  9
$DIMLTYPE
  6

  9
$DIMLTEX1
  6

  9
$DIMLTEX2
  6

  9
$DIMTXTDIRECTION
 70
     0
  9
$LUNITS
 70
     2
  9
$LUPREC
 70
     4
  9
$SKETCHINC
 40
0.1
  9
$FILLETRAD
 40
0.0
  9
$AUNITS
 70
     0
  9
$AUPREC
 70
     0
  9
$MENU
  1
.
  9
$ELEVATION
 40
0.0
  9
$PELEVATION
 40
0.0
  9
$THICKNESS
 40
0.0
  9
$LIMCHECK
 70
     0
  9
$CHAMFERA
 40
0.0
  9
$CHAMFERB
 40
0.0
  9
$CHAMFERC
 40
0.0
  9
$CHAMFERD
 40
0.0
  9
$SKPOLY
 70
     0
  9
$TDCREATE
 40
2460285.607719908
  9
$TDUCREATE
 40
2460285.607719908
  9
$TDUPDATE
 40
2460285.607719908
  9
$TDUUPDATE
 40
2460285.607719908
  9
$TDINDWG
 40
0.0000000000
  9
$TDUSRTIMER
 40
0.0000000000
  9
$USRTIMER
 70
     1
  9
$ANGBASE
 50
0.0
  9
$ANGDIR
 70
     0
  9
$PDMODE
 70
     0
  9
$PDSIZE
 40
0.0
  9
$PLINEWID
 40
0.0
  9
$SPLFRAME
 70
     0
  9
$SPLINETYPE
 70
     6
  9
$SPLINESEGS
 70
     8
  9
$HANDSEED
  5
193
  9
$SURFTAB1
 70
     6
  9
$SURFTAB2
 70
     6
  9
$SURFTYPE
 70
     6
  9
$SURFU
 70
     6
  9
$SURFV
 70
     6
  9
$UCSBASE
  2

  9
$UCSNAME
  2

  9
$UCSORG
 10
0.0
 20
0.0
 30
0.0
  9
$UCSXDIR
 10
1.0
 20
0.0
 30
0.0
  9
$UCSYDIR
 10
0.0
 20
1.0
 30
0.0
  9
$UCSORTHOREF
  2

  9
$UCSORTHOVIEW
 70
     0
  9
$UCSORGTOP
 10
0.0
 20
0.0
 30
0.0
  9
$UCSORGBOTTOM
 10
0.0
 20
0.0
 30
0.0
  9
$UCSORGLEFT
 10
0.0
 20
0.0
 30
0.0
  9
$UCSORGRIGHT
 10
0.0
 20
0.0
 30
0.0
  9
$UCSORGFRONT
 10
0.0
 20
0.0
 30
0.0
  9
$UCSORGBACK
 10
0.0
 20
0.0
 30
0.0
  9
$PUCSBASE
  2

  9
$PUCSNAME
  2

  9
$PUCSORG
 10
0.0
 20
0.0
 30
0.0
  9
$PUCSXDIR
 10
1.0
 20
0.0
 30
0.0
  9
$PUCSYDIR
 10
0.0
 20
1.0
 30
0.0
  9
$PUCSORTHOREF
  2

  9
$PUCSORTHOVIEW
 70
     0
  9
$PUCSORGTOP
 10
0.0
 20
0.0
 30
0.0
  9
$PUCSORGBOTTOM
 10
0.0
 20
0.0
 30
0.0
  9
$PUCSORGLEFT
 10
0.0
 20
0.0
 30
0.0
  9
$PUCSORGRIGHT
 10
0.0
 20
0.0
 30
0.0
  9
$PUCSORGFRONT
 10
0.0
 20
0.0
 30
0.0
  9
$PUCSORGBACK
 10
0.0
 20
0.0
 30
0.0
  9
$USERI1
 70
     0
  9
$USERI2
 70
     0
  9
$USERI3
 70
     0
  9
$USERI4
 70
     0
  9
$USERI5
 70
     0
  9
$USERR1
 40
0.0
  9
$USERR2
 40
0.0
  9
$USERR3
 40
0.0
  9
$USERR4
 40
0.0
  9
$USERR5
 40
0.0
  9
$WORLDVIEW
 70
     1
  9
$SHADEDGE
 70
     3
  9
$SHADEDIF
 70
    70
  9
$TILEMODE
 70
     1
  9
$MAXACTVP
 70
    64
  9
$PINSBASE
 10
0.0
 20
0.0
 30
0.0
  9
$PLIMCHECK
 70
     0
  9
$PEXTMIN
 10
1.000000000000000E+20
 20
1.000000000000000E+20
 30
1.000000000000000E+20
  9
$PEXTMAX
 10
-1.000000000000000E+20
 20
-1.000000000000000E+20
 30
-1.000000000000000E+20
  9
$PLIMMIN
 10
0.0
 20
0.0
  9
$PLIMMAX
 10
12.0
 20
9.0
  9
$UNITMODE
 70
     0
  9
$VISRETAIN
 70
     1
  9
$PLINEGEN
 70
     0
  9
$PSLTSCALE
 70
     1
  9
$TREEDEPTH
 70
  3020
  9
$CMLSTYLE
  2
Standard
  9
$CMLJUST
 70
     0
  9
$CMLSCALE
 40
1.0
  9
$PROXYGRAPHICS
 70
     1
  9
$MEASUREMENT
 70
     0
  9
$CELWEIGHT
370
    -1
  9
$ENDCAPS
280
     0
  9
$JOINSTYLE
280
     0
  9
$LWDISPLAY
290
     0
  9
$INSUNITS
 70
     5
  9
$HYPERLINKBASE
  1

  9
$STYLESHEET
  1

  9
$XEDIT
290
     1
  9
$CEPSNTYPE
380
     0
  9
$PSTYLEMODE
290
     1
  9
$FINGERPRINTGUID
  2
{4924CDD3-38A5-BE46-B1AB-8954EA9E781A}
  9
$VERSIONGUID
  2
{53CDFA7C-7242-E04B-B367-EF3D887AF0EA}
  9
$EXTNAMES
290
     1
  9
$PSVPSCALE
 40
0.0
  9
$OLESTARTUP
290
     0
  9
$SORTENTS
280
   127
  9
$INDEXCTL
280
     0
  9
$HIDETEXT
280
     1
  9
$XCLIPFRAME
280
     2
  9
$HALOGAP
280
     0
  9
$OBSCOLOR
 70
   257
  9
$OBSLTYPE
280
     0
  9
$INTERSECTIONDISPLAY
280
     0
  9
$INTERSECTIONCOLOR
 70
   257
  9
$DIMASSOC
280
     2
  9
$PROJECTNAME
  1

  9
$CAMERADISPLAY
290
     0
  9
$LENSLENGTH
 40
50.0
  9
$CAMERAHEIGHT
 40
0.0
  9
$STEPSPERSEC
 40
2.0
  9
$STEPSIZE
 40
6.0
  9
$3DDWFPREC
 40
2.0
  9
$PSOLWIDTH
 40
0.25
  9
$PSOLHEIGHT
 40
4.0
  9
$LOFTANG1
 40
1.570796326794896
  9
$LOFTANG2
 40
1.570796326794896
  9
$LOFTMAG1
 40
0.0
  9
$LOFTMAG2
 40
0.0
  9
$LOFTPARAM
 70
     7
  9
$LOFTNORMALS
280
     1
  9
$LATITUDE
 40
37.795
  9
$LONGITUDE
 40
-122.394
  9
$NORTHDIRECTION
 40
0.0
  9
$TIMEZONE
 70
 -8000
  9
$LIGHTGLYPHDISPLAY
280
     1
  9
$TILEMODELIGHTSYNCH
280
     1
  9
$CMATERIAL
347
11
  9
$SOLIDHIST
280
     0
  9
$SHOWHIST
280
     1
  9
$DWFFRAME
280
     2
  9
$DGNFRAME
280
     0
  9
$REALWORLDSCALE
290
     1
  9
$INTERFERECOLOR
 62
     1
  9
$INTERFEREOBJVS
345
33
  9
$INTERFEREVPVS
346
30
  9
$CSHADOW
280
     0
  9
$SHADOWPLANELOCATION
 40
0.0
  0
ENDSEC
  0
SECTION
  2
CLASSES
  0
CLASS
  1
ACDBDICTIONARYWDFLT
  2
AcDbDictionaryWithDefault
  3
ObjectDBX Classes
 90
        0
 91
        1
280
     0
281
     0
  0
CLASS
  1
MATERIAL
  2
AcDbMaterial
  3
ObjectDBX Classes
 90
     1153
 91
        3
280
     0
281
     0
  0
CLASS
  1
VISUALSTYLE
  2
AcDbVisualStyle
  3
ObjectDBX Classes
 90
     4095
 91
       24
280
     0
281
     0
  0
CLASS
  1
SCALE
  2
AcDbScale
  3
ObjectDBX Classes
 90
     1153
 91
       17
280
     0
281
     0
  0
CLASS
  1
TABLESTYLE
  2
AcDbTableStyle
  3
ObjectDBX Classes
 90
     4095
 91
        1
280
     0
281
     0
  0
CLASS
  1
MLEADERSTYLE
  2
AcDbMLeaderStyle
  3
ACDB_MLEADERSTYLE_CLASS
 90
     4095
 91
        1
280
     0
281
     0
  0
CLASS
  1
ACDBSECTIONVIEWSTYLE
  2
AcDbSectionViewStyle
  3
ObjectDBX Classes
 90
     1025
 91
        1
280
     0
281
     0
  0
CLASS
  1
ACDBDETAILVIEWSTYLE
  2
AcDbDetailViewStyle
  3
ObjectDBX Classes
 90
     1025
 91
        1
280
     0
281
     0
  0
CLASS
  1
DICTIONARYVAR
  2
AcDbDictionaryVar
  3
ObjectDBX Classes
 90
        0
 91
        5
280
     0
281
     0
  0
CLASS
  1
CELLSTYLEMAP
  2
AcDbCellStyleMap
  3
ObjectDBX Classes
 90
     1152
 91
        1
280
     0
281
     0
  0
ENDSEC
  0
SECTION
  2
TABLES
  0
TABLE
  2
VPORT
  5
8
330
0
100
AcDbSymbolTable
 70
     1
1001
ACAD
1000
DbSaveVer
1071
      291
  0
VPORT
  5
57
330
8
100
AcDbSymbolTableRecord
100
AcDbViewportTableRecord
  2
*Active
 70
     0
 10
0.0
 20
0.0
 11
1.0
 21
1.0
 12
500.0
 22
500.0
 13
0.0
 23
0.0
 14
1.0
 24
1.0
 15
0.0
 25
0.0
 16
0.0
 26
0.0
 36
1.0
 17
0.0
 27
0.0
 37
0.0
 40
12.0
 41
1.0
 42
50.0
 43
0.0
 44
0.0
 50
0.0
 51
0.0
 71
     0
 72
   100
 73
     1
 74
     1
 75
     0
 76
     0
 77
     0
 78
     0
281
     0
 65
     1
110
0.0
120
0.0
130
0.0
111
1.0
121
0.0
131
0.0
112
0.0
122
1.0
132
0.0
 79
     0
146
0.0
 60
     3
 61
     5
292
     1
282
     1
141
0.0
142
0.0
 63
   250
421
  3355443
  0
ENDTAB
  0
TABLE
  2
LTYPE
  5
5
330
0
100
AcDbSymbolTable
 70
     1
  0
LTYPE
  5
5B
330
5
100
AcDbSymbolTableRecord
100
AcDbLinetypeTableRecord
  2
ByBlock
 70
     0
  3

 72
    65
 73
     0
 40
0.0
  0
LTYPE
  5
5C
330
5
100
AcDbSymbolTableRecord
100
AcDbLinetypeTableRecord
  2
ByLayer
 70
     0
  3

 72
    65
 73
     0
 40
0.0
  0
LTYPE
  5
5D
330
5
100
AcDbSymbolTableRecord
100
AcDbLinetypeTableRecord
  2
Continuous
 70
     0
  3
Solid line
 72
    65
 73
     0
 40
0.0
  0
ENDTAB
  0
TABLE
  2
LAYER
  5
2
330
0
100
AcDbSymbolTable
 70
     2
  0
LAYER
  5
54
330
2
100
AcDbSymbolTableRecord
100
AcDbLayerTableRecord
  2
0
 70
     0
 62
     7
  6
Continuous
370
    -3
390
F
347
21
348
0
  0
LAYER
  5
7A
330
2
100
AcDbSymbolTableRecord
100
AcDbLayerTableRecord
  2
house_laserCut_Pinslot v1_Layer 1
 70
     0
 62
     7
  6
Continuous
370
    -3
390
F
347
21
348
0
1001
NFusion_SketchTransform
1000
1.000000;0.000000;0.000000;0.000000;0.000000;1.000000;0.000000;0.000000;0.000000;0.000000;1.000000;0.000000;0.000000;0.000000;0.000000;1.000000
  0
ENDTAB
  0
TABLE
  2
STYLE
  5
3
330
0
100
AcDbSymbolTable
 70
     2
  0
STYLE
  5
55
330
3
100
AcDbSymbolTableRecord
100
AcDbTextStyleTableRecord
  2
Standard
 70
     0
 40
0.0
 41
1.0
 50
0.0
 71
     0
 42
0.2
  3
txt
  4

  0
STYLE
  5
5A
330
3
100
AcDbSymbolTableRecord
100
AcDbTextStyleTableRecord
  2
Annotative
 70
     0
 40
0.0
 41
1.0
 50
0.0
 71
     0
 42
0.2
  3
txt
  4

1001
AcadAnnotative
1000
AnnotativeData
1002
{
1070
     1
1070
     1
1002
}
  0
ENDTAB
  0
TABLE
  2
VIEW
  5
6
330
0
100
AcDbSymbolTable
 70
     0
  0
ENDTAB
  0
TABLE
  2
UCS
  5
7
330
0
100
AcDbSymbolTable
 70
     0
  0
ENDTAB
  0
TABLE
  2
APPID
  5
9
330
0
100
AcDbSymbolTable
 70
     4
  0
APPID
  5
56
330
9
100
AcDbSymbolTableRecord
100
AcDbRegAppTableRecord
  2
ACAD
 70
     0
  0
APPID
  5
5E
330
9
100
AcDbSymbolTableRecord
100
AcDbRegAppTableRecord
  2
AcadAnnotative
 70
     0
  0
APPID
  5
78
330
9
100
AcDbSymbolTableRecord
100
AcDbRegAppTableRecord
  2
EDIT_IN_FUSION_ACAD_ADDIN
 70
     0
  0
APPID
  5
79
330
9
100
AcDbSymbolTableRecord
100
AcDbRegAppTableRecord
  2
NFusion_SketchTransform
 70
     0
  0
ENDTAB
  0
TABLE
  2
DIMSTYLE
  5
A
330
0
100
AcDbSymbolTable
 70
     2
100
AcDbDimStyleTable
 71
     0
  0
DIMSTYLE
105
58
330
A
100
AcDbSymbolTableRecord
100
AcDbDimStyleTableRecord
  2
Standard
 70
     0
340
55
  0
DIMSTYLE
105
59
330
A
100
AcDbSymbolTableRecord
100
AcDbDimStyleTableRecord
  2
Annotative
 70
     0
340
55
1001
AcadAnnotative
1000
AnnotativeData
1002
{
1070
     1
1070
     1
1002
}
  0
ENDTAB
  0
TABLE
  2
BLOCK_RECORD
  5
1
330
0
100
AcDbSymbolTable
 70
     1
  0
BLOCK_RECORD
  5
70
330
1
100
AcDbSymbolTableRecord
100
AcDbBlockTableRecord
  2
*Model_Space
340
73
 70
     0
280
     1
281
     0
  0
BLOCK_RECORD
  5
6C
330
1
100
AcDbSymbolTableRecord
100
AcDbBlockTableRecord
  2
*Paper_Space
340
6F
 70
     0
280
     1
281
     0
  0
BLOCK_RECORD
  5
74
330
1
100
AcDbSymbolTableRecord
100
AcDbBlockTableRecord
  2
*Paper_Space0
340
77
 70
     0
280
     1
281
     0
  0
ENDTAB
  0
ENDSEC
  0
SECTION
  2
BLOCKS
  0
BLOCK
  5
71
330
70
100
AcDbEntity
  8
0
100
AcDbBlockBegin
  2
*Model_Space
 70
     0
 10
0.0
 20
0.0
 30
0.0
  3
*Model_Space
  1

  0
ENDBLK
  5
72
330
70
100
AcDbEntity
  8
0
100
AcDbBlockEnd
  0
BLOCK
  5
6D
330
6C
100
AcDbEntity
 67
     1
  8
0
100
AcDbBlockBegin
  2
*Paper_Space
 70
     0
 10
0.0
 20
0.0
 30
0.0
  3
*Paper_Space
  1

  0
ENDBLK
  5
6E
330
6C
100
AcDbEntity
 67
     1
  8
0
100
AcDbBlockEnd
  0
BLOCK
  5
75
330
74
100
AcDbEntity
 67
     1
  8
0
100
AcDbBlockBegin
  2
*Paper_Space0
 70
     0
 10
0.0
 20
0.0
 30
0.0
  3
*Paper_Space0
  1

  0
ENDBLK
  5
76
330
74
100
AcDbEntity
 67
     1
  8
0
100
AcDbBlockEnd
  0
ENDSEC
  0
SECTION
  2
ENTITIES
  0
LINE
  5
7B
330
70
100
AcDbEntity
  8
house_laserCut_Pinslot v1_Layer 1
100
AcDbLine
 10
23.7159054
 20
22.9726014
 30
0.0
 11
22.1159358
 21
22.9726014
 31
0.0
  0
LINE
  5
7C
330
70
100
AcDbEntity
  8
house_laserCut_Pinslot v1_Layer 1
100
AcDbLine
 10
17.2679214
 20
38.49262539999999
 30
1.026589439916313
 11
17.2679214
 21
38.79262539999999
 31
1.026589439916313
  0
LINE
  5
7D
330
70
100
AcDbEntity
  8
house_laserCut_Pinslot v1_Layer 1
100
AcDbLine
 10
17.2679214
 20
23.27260139999999
 30
0.0
 11
18.8679534
 21
23.27260139999999
 31
0.0
  0
LINE
  5
7E
330
70
100
AcDbEntity
  8
house_laserCut_Pinslot v1_Layer 1
100
AcDbLine
 10
17.2679214
 20
22.9726014
 30
0.0
 11
17.2679214
 21
23.27260139999999
 31
0.0
  0
LINE
  5
7F
330
70
100
AcDbEntity
  8
house_laserCut_Pinslot v1_Layer 1
100
AcDbLine
 10
22.1159358
 20
22.9726014
 30
0.0
 11
22.1159358
 21
23.27260139999999
 31
0.0
  0
LINE
  5
80
330
70
100
AcDbEntity
  8
house_laserCut_Pinslot v1_Layer 1
100
AcDbLine
 10
18.8679534
 20
38.79262539999999
 30
1.026589439916313
 11
18.8679534
 21
38.49262539999999
 31
1.026589439916313
  0
LINE
  5
81
330
70
100
AcDbEntity
  8
house_laserCut_Pinslot v1_Layer 1
100
AcDbLine
 10
23.7159054
 20
23.27260139999999
 30
0.0
 11
23.7159054
 21
22.9726014
 31
0.0
  0
LINE
  5
82
330
70
100
AcDbEntity
  8
house_laserCut_Pinslot v1_Layer 1
100
AcDbLine
 10
18.8679534
 20
22.9726014
 30
0.0
 11
17.2679214
 21
22.9726014
 31
0.0
  0
LINE
  5
83
330
70
100
AcDbEntity
  8
house_laserCut_Pinslot v1_Layer 1
100
AcDbLine
 10
22.1159358
 20
23.27260139999999
 30
0.0
 11
23.7159054
 21
23.27260139999999
 31
0.0
  0
LINE
  5
84
330
70
100
AcDbEntity
  8
house_laserCut_Pinslot v1_Layer 1
100
AcDbLine
 10
18.8679534
 20
38.49262539999999
 30
1.026589439916313
 11
17.2679214
 21
38.49262539999999
 31
1.026589439916313
  0
LINE
  5
85
330
70
100
AcDbEntity
  8
house_laserCut_Pinslot v1_Layer 1
100
AcDbLine
 10
17.2679214
 20
38.79262539999999
 30
1.026589439916313
 11
18.8679534
 21
38.79262539999999
 31
1.026589439916313
  0
LINE
  5
86
330
70
100
AcDbEntity
  8
house_laserCut_Pinslot v1_Layer 1
100
AcDbLine
 10
23.7159054
 20
38.79262539999999
 30
1.026589439916313
 11
23.7159054
 21
38.49262539999999
 31
1.026589439916313
  0
LINE
  5
87
330
70
100
AcDbEntity
  8
house_laserCut_Pinslot v1_Layer 1
100
AcDbLine
 10
18.8679534
 20
23.27260139999999
 30
0.0
 11
18.8679534
 21
22.9726014
 31
0.0
  0
LINE
  5
88
330
70
100
AcDbEntity
  8
house_laserCut_Pinslot v1_Layer 1
100
AcDbLine
 10
23.7159054
 20
38.49262539999999
 30
1.026589439916313
 11
22.1159358
 21
38.49262539999999
 31
1.026589439916313
  0
LINE
  5
89
330
70
100
AcDbEntity
  8
house_laserCut_Pinslot v1_Layer 1
100
AcDbLine
 10
22.1159358
 20
38.49262539999999
 30
1.026589439916313
 11
22.1159358
 21
38.79262539999999
 31
1.026589439916313
  0
LINE
  5
8A
330
70
100
AcDbEntity
  8
house_laserCut_Pinslot v1_Layer 1
100
AcDbLine
 10
22.1159358
 20
38.79262539999999
 30
1.026589439916313
 11
23.7159054
 21
38.79262539999999
 31
1.026589439916313
  0
LINE
  5
8B
330
70
100
AcDbEntity
  8
house_laserCut_Pinslot v1_Layer 1
100
AcDbLine
 10
21.23567564
 20
29.31126875999999
 30
0.0
 11
21.50969483999999
 21
29.53697739999999
 31
0.0
  0
LINE
  5
8C
330
70
100
AcDbEntity
  8
house_laserCut_Pinslot v1_Layer 1
100
AcDbLine
 10
22.01441148
 20
27.51978844
 30
0.0
 11
21.90651308
 21
27.866699
 31
0.0
  0
LINE
  5
8D
330
70
100
AcDbEntity
  8
house_laserCut_Pinslot v1_Layer 1
100
AcDbLine
 10
21.73578956
 20
35.57360891999999
 30
0.0
 11
21.50969244
 21
35.84715452
 31
0.0
  0
LINE
  5
8E
330
70
100
AcDbEntity
  8
house_laserCut_Pinslot v1_Layer 1
100
AcDbLine
 10
21.73578956
 20
31.87713275999999
 30
0.0
 11
21.50969244
 21
32.15067867999999
 31
0.0
  0
LINE
  5
8F
330
70
100
AcDbEntity
  8
house_laserCut_Pinslot v1_Layer 1
100
AcDbLine
 10
22.0520334
 20
27.14735259999999
 30
0.0
 11
22.01441148
 21
27.51978844
 31
0.0
  0
LINE
  5
90
330
70
100
AcDbEntity
  8
house_laserCut_Pinslot v1_Layer 1
100
AcDbLine
 10
22.01441164
 20
26.77491148
 30
0.0
 11
22.0520334
 21
27.14735259999999
 31
0.0
  0
LINE
  5
91
330
70
100
AcDbEntity
  8
house_laserCut_Pinslot v1_Layer 1
100
AcDbLine
 10
20.57367196
 20
36.35099883999998
 30
0.0
 11
20.2005934
 21
36.38855547999999
 31
0.0
  0
LINE
  5
92
330
70
100
AcDbEntity
  8
house_laserCut_Pinslot v1_Layer 1
100
AcDbLine
 10
20.2005934
 20
36.38853291999998
 30
0.0
 11
20.57367387999999
 21
36.42608955999999
 31
0.0
  0
LINE
  5
93
330
70
100
AcDbEntity
  8
house_laserCut_Pinslot v1_Layer 1
100
AcDbLine
 10
21.73579132
 20
26.114047
 30
0.0
 11
21.90651387999999
 21
26.42799692
 31
0.0
  0
LINE
  5
94
330
70
100
AcDbEntity
  8
house_laserCut_Pinslot v1_Layer 1
100
AcDbLine
 10
22.0520334
 20
30.84384203999999
 30
0.0
 11
22.01441148
 21
31.21627595999999
 31
0.0
  0
LINE
  5
95
330
70
100
AcDbEntity
  8
house_laserCut_Pinslot v1_Layer 1
100
AcDbLine
 10
21.23567564
 20
25.61479276
 30
0.0
 11
21.50969483999999
 21
25.84049963999999
 31
0.0
  0
LINE
  5
96
330
70
100
AcDbEntity
  8
house_laserCut_Pinslot v1_Layer 1
100
AcDbLine
 10
20.92118492
 20
25.44436476
 30
0.0
 11
21.23567564
 21
25.61479276
 31
0.0
  0
LINE
  5
97
330
70
100
AcDbEntity
  8
house_laserCut_Pinslot v1_Layer 1
100
AcDbLine
 10
20.57367387999999
 20
25.33665323999999
 30
0.0
 11
20.92118492
 21
25.44436476
 31
0.0
  0
LINE
  5
98
330
70
100
AcDbEntity
  8
house_laserCut_Pinslot v1_Layer 1
100
AcDbLine
 10
20.92118492
 20
32.83732764000002
 30
0.0
 11
21.23567564
 21
33.00775564
 31
0.0
  0
LINE
  5
99
330
70
100
AcDbEntity
  8
house_laserCut_Pinslot v1_Layer 1
100
AcDbLine
 10
20.57367196
 20
28.95803595999999
 30
0.0
 11
20.2005934
 21
28.99559259999999
 31
0.0
  0
LINE
  5
9A
330
70
100
AcDbEntity
  8
house_laserCut_Pinslot v1_Layer 1
100
AcDbLine
 10
20.2005934
 20
25.29909659999999
 30
0.0
 11
20.57367387999999
 21
25.33665323999999
 31
0.0
  0
LINE
  5
9B
330
70
100
AcDbEntity
  8
house_laserCut_Pinslot v1_Layer 1
100
AcDbLine
 10
21.50969483999999
 20
29.53697739999999
 30
0.0
 11
21.73579132
 21
29.81052716
 31
0.0
  0
LINE
  5
9C
330
70
100
AcDbEntity
  8
house_laserCut_Pinslot v1_Layer 1
100
AcDbLine
 10
21.90651387999999
 20
26.42799692
 30
0.0
 11
22.01441164
 21
26.77491148
 31
0.0
  0
LINE
  5
9D
330
70
100
AcDbEntity
  8
house_laserCut_Pinslot v1_Layer 1
100
AcDbLine
 10
21.50969483999999
 20
33.23346251999999
 30
0.0
 11
21.73579132
 21
33.50700987999999
 31
0.0
  0
LINE
  5
9E
330
70
100
AcDbEntity
  8
house_laserCut_Pinslot v1_Layer 1
100
AcDbLine
 10
21.90651308
 20
31.56318572000002
 30
0.0
 11
21.73578956
 21
31.87713275999999
 31
0.0
  0
LINE
  5
9F
330
70
100
AcDbEntity
  8
house_laserCut_Pinslot v1_Layer 1
100
AcDbLine
 10
20.9211822
 20
39.93976091999999
 30
0.0
 11
20.57367196
 21
40.04747211999998
 31
0.0
  0
LINE
  5
A0
330
70
100
AcDbEntity
  8
house_laserCut_Pinslot v1_Layer 1
100
AcDbLine
 10
21.50969244
 20
39.5436278
 30
0.0
 11
21.23567292
 21
39.76933339999999
 31
0.0
  0
LINE
  5
A1
330
70
100
AcDbEntity
  8
house_laserCut_Pinslot v1_Layer 1
100
AcDbLine
 10
21.73578956
 20
39.27008236000001
 30
0.0
 11
21.50969244
 21
39.5436278
 31
0.0
  0
LINE
  5
A2
330
70
100
AcDbEntity
  8
house_laserCut_Pinslot v1_Layer 1
100
AcDbLine
 10
21.90651308
 20
38.95613531999999
 30
0.0
 11
21.73578956
 21
39.27008236000001
 31
0.0
  0
LINE
  5
A3
330
70
100
AcDbEntity
  8
house_laserCut_Pinslot v1_Layer 1
100
AcDbLine
 10
21.90651387999999
 20
37.51743323999999
 30
0.0
 11
22.01441164
 21
37.8643478
 31
0.0
  0
LINE
  5
A4
330
70
100
AcDbEntity
  8
house_laserCut_Pinslot v1_Layer 1
100
AcDbLine
 10
21.73579132
 20
37.20348331999999
 30
0.0
 11
21.90651387999999
 21
37.51743323999999
 31
0.0
  0
LINE
  5
A5
330
70
100
AcDbEntity
  8
house_laserCut_Pinslot v1_Layer 1
100
AcDbLine
 10
21.50969244
 20
35.84715452
 30
0.0
 11
21.23567292
 21
36.07286011999999
 31
0.0
  0
LINE
  5
A6
330
70
100
AcDbEntity
  8
house_laserCut_Pinslot v1_Layer 1
100
AcDbLine
 10
22.01441148
 20
34.91275131999998
 30
0.0
 11
21.90651308
 21
35.25966187999999
 31
0.0
  0
LINE
  5
A7
330
70
100
AcDbEntity
  8
house_laserCut_Pinslot v1_Layer 1
100
AcDbLine
 10
21.90651387999999
 20
30.12447980000001
 30
0.0
 11
22.01441164
 21
30.47139756
 31
0.0
  0
LINE
  5
A8
330
70
100
AcDbEntity
  8
house_laserCut_Pinslot v1_Layer 1
100
AcDbLine
 10
20.92118492
 20
29.14083931999999
 30
0.0
 11
21.23567564
 21
29.31126875999999
 31
0.0
  0
LINE
  5
A9
330
70
100
AcDbEntity
  8
house_laserCut_Pinslot v1_Layer 1
100
AcDbLine
 10
21.50969244
 20
28.45419163999999
 30
0.0
 11
21.23567292
 21
28.67989724
 31
0.0
  0
LINE
  5
AA
330
70
100
AcDbEntity
  8
house_laserCut_Pinslot v1_Layer 1
100
AcDbLine
 10
20.2005934
 20
32.69205947999999
 30
0.0
 11
20.57367387999999
 21
32.72961612
 31
0.0
  0
LINE
  5
AB
330
70
100
AcDbEntity
  8
house_laserCut_Pinslot v1_Layer 1
100
AcDbLine
 10
21.23567564
 20
33.00775564
 30
0.0
 11
21.50969483999999
 21
33.23346251999999
 31
0.0
  0
LINE
  5
AC
330
70
100
AcDbEntity
  8
house_laserCut_Pinslot v1_Layer 1
100
AcDbLine
 10
22.01441148
 20
38.60922459999999
 30
1.026589439916313
 11
21.90651308
 21
38.95613531999999
 31
1.026589439916313
  0
LINE
  5
AD
330
70
100
AcDbEntity
  8
house_laserCut_Pinslot v1_Layer 1
100
AcDbLine
 10
22.01441164
 20
37.8643478
 30
0.0
 11
22.0520334
 21
38.23678891999999
 31
0.0
  0
LINE
  5
AE
330
70
100
AcDbEntity
  8
house_laserCut_Pinslot v1_Layer 1
100
AcDbLine
 10
21.23567564
 20
36.70422908000001
 30
0.0
 11
21.50969483999999
 21
36.92993579999999
 31
0.0
  0
LINE
  5
AF
330
70
100
AcDbEntity
  8
house_laserCut_Pinslot v1_Layer 1
100
AcDbLine
 10
20.9211822
 20
32.54681323999999
 30
0.0
 11
20.57367196
 21
32.65452507999999
 31
0.0
  0
LINE
  5
B0
330
70
100
AcDbEntity
  8
house_laserCut_Pinslot v1_Layer 1
100
AcDbLine
 10
22.01441148
 20
31.21627595999999
 30
0.0
 11
21.90651308
 21
31.56318572000002
 31
0.0
  0
LINE
  5
B1
330
70
100
AcDbEntity
  8
house_laserCut_Pinslot v1_Layer 1
100
AcDbLine
 10
22.01441164
 20
30.47139756
 30
0.0
 11
22.0520334
 21
30.84384203999999
 31
0.0
  0
LINE
  5
B2
330
70
100
AcDbEntity
  8
house_laserCut_Pinslot v1_Layer 1
100
AcDbLine
 10
20.57367387999999
 20
36.42608955999999
 30
0.0
 11
20.92118492
 21
36.53380091999999
 31
0.0
  0
LINE
  5
B3
330
70
100
AcDbEntity
  8
house_laserCut_Pinslot v1_Layer 1
100
AcDbLine
 10
21.73579132
 20
29.81052716
 30
0.0
 11
21.90651387999999
 21
30.12447980000001
 31
0.0
  0
LINE
  5
B4
330
70
100
AcDbEntity
  8
house_laserCut_Pinslot v1_Layer 1
100
AcDbLine
 10
21.23567292
 20
28.67989724
 30
0.0
 11
20.9211822
 21
28.85032475999998
 31
0.0
  0
LINE
  5
B5
330
70
100
AcDbEntity
  8
house_laserCut_Pinslot v1_Layer 1
100
AcDbLine
 10
21.73578956
 20
28.18064603999999
 30
0.0
 11
21.50969244
 21
28.45419163999999
 31
0.0
  0
LINE
  5
B6
330
70
100
AcDbEntity
  8
house_laserCut_Pinslot v1_Layer 1
100
AcDbLine
 10
21.23567292
 20
39.76933339999999
 30
0.0
 11
20.9211822
 21
39.93976091999999
 31
0.0
  0
LINE
  5
B7
330
70
100
AcDbEntity
  8
house_laserCut_Pinslot v1_Layer 1
100
AcDbLine
 10
21.50969483999999
 20
36.92993579999999
 30
0.0
 11
21.73579132
 21
37.20348331999999
 31
0.0
  0
LINE
  5
B8
330
70
100
AcDbEntity
  8
house_laserCut_Pinslot v1_Layer 1
100
AcDbLine
 10
21.90651387999999
 20
33.8209598
 30
0.0
 11
22.01441164
 21
34.16787436000001
 31
0.0
  0
LINE
  5
B9
330
70
100
AcDbEntity
  8
house_laserCut_Pinslot v1_Layer 1
100
AcDbLine
 10
22.01441164
 20
34.16787436000001
 30
0.0
 11
22.0520334
 21
34.54031547999999
 31
0.0
  0
LINE
  5
BA
330
70
100
AcDbEntity
  8
house_laserCut_Pinslot v1_Layer 1
100
AcDbLine
 10
22.0520334
 20
38.23678891999999
 30
1.026589439916313
 11
22.01441148
 21
38.60922459999999
 31
1.026589439916313
  0
LINE
  5
BB
330
70
100
AcDbEntity
  8
house_laserCut_Pinslot v1_Layer 1
100
AcDbLine
 10
21.90651308
 20
27.866699
 30
0.0
 11
21.73578956
 21
28.18064603999999
 31
0.0
  0
LINE
  5
BC
330
70
100
AcDbEntity
  8
house_laserCut_Pinslot v1_Layer 1
100
AcDbLine
 10
20.57367387999999
 20
32.72961612
 30
0.0
 11
20.92118492
 21
32.83732764000002
 31
0.0
  0
LINE
  5
BD
330
70
100
AcDbEntity
  8
house_laserCut_Pinslot v1_Layer 1
100
AcDbLine
 10
21.50969483999999
 20
25.84049963999999
 30
0.0
 11
21.73579132
 21
26.114047
 31
0.0
  0
LINE
  5
BE
330
70
100
AcDbEntity
  8
house_laserCut_Pinslot v1_Layer 1
100
AcDbLine
 10
20.57367196
 20
40.04747211999998
 30
0.0
 11
20.2005934
 21
40.08502891999998
 31
0.0
  0
LINE
  5
BF
330
70
100
AcDbEntity
  8
house_laserCut_Pinslot v1_Layer 1
100
AcDbLine
 10
20.57367196
 20
32.65452507999999
 30
0.0
 11
20.2005934
 21
32.69208204
 31
0.0
  0
LINE
  5
C0
330
70
100
AcDbEntity
  8
house_laserCut_Pinslot v1_Layer 1
100
AcDbLine
 10
21.50969244
 20
32.15067867999999
 30
0.0
 11
21.23567292
 21
32.37638491999998
 31
0.0
  0
LINE
  5
C1
330
70
100
AcDbEntity
  8
house_laserCut_Pinslot v1_Layer 1
100
AcDbLine
 10
20.57367387999999
 20
29.03312700000001
 30
0.0
 11
20.92118492
 21
29.14083931999999
 31
0.0
  0
LINE
  5
C2
330
70
100
AcDbEntity
  8
house_laserCut_Pinslot v1_Layer 1
100
AcDbLine
 10
21.23567292
 20
36.07286011999999
 30
0.0
 11
20.9211822
 21
36.24328764
 31
0.0
  0
LINE
  5
C3
330
70
100
AcDbEntity
  8
house_laserCut_Pinslot v1_Layer 1
100
AcDbLine
 10
20.2005934
 20
28.99557003999999
 30
0.0
 11
20.57367387999999
 21
29.03312700000001
 31
0.0
  0
LINE
  5
C4
330
70
100
AcDbEntity
  8
house_laserCut_Pinslot v1_Layer 1
100
AcDbLine
 10
21.73579132
 20
33.50700987999999
 30
0.0
 11
21.90651387999999
 21
33.8209598
 31
0.0
  0
LINE
  5
C5
330
70
100
AcDbEntity
  8
house_laserCut_Pinslot v1_Layer 1
100
AcDbLine
 10
20.9211822
 20
28.85032475999998
 30
0.0
 11
20.57367196
 21
28.95803595999999
 31
0.0
  0
LINE
  5
C6
330
70
100
AcDbEntity
  8
house_laserCut_Pinslot v1_Layer 1
100
AcDbLine
 10
22.0520334
 20
34.54031547999999
 30
0.0
 11
22.01441148
 21
34.91275131999998
 31
0.0
  0
LINE
  5
C7
330
70
100
AcDbEntity
  8
house_laserCut_Pinslot v1_Layer 1
100
AcDbLine
 10
20.92118492
 20
36.53380091999999
 30
0.0
 11
21.23567564
 21
36.70422908000001
 31
0.0
  0
LINE
  5
C8
330
70
100
AcDbEntity
  8
house_laserCut_Pinslot v1_Layer 1
100
AcDbLine
 10
20.9211822
 20
36.24328764
 30
0.0
 11
20.57367196
 21
36.35099883999998
 31
0.0
  0
LINE
  5
C9
330
70
100
AcDbEntity
  8
house_laserCut_Pinslot v1_Layer 1
100
AcDbLine
 10
21.90651308
 20
35.25966187999999
 30
0.0
 11
21.73578956
 21
35.57360891999999
 31
0.0
  0
LINE
  5
CA
330
70
100
AcDbEntity
  8
house_laserCut_Pinslot v1_Layer 1
100
AcDbLine
 10
21.23567292
 20
32.37638491999998
 30
0.0
 11
20.9211822
 21
32.54681323999999
 31
0.0
  0
LINE
  5
CB
330
70
100
AcDbEntity
  8
house_laserCut_Pinslot v1_Layer 1
100
AcDbLine
 10
20.9211822
 20
25.15382875999998
 30
0.0
 11
20.57367196
 21
25.26153996
 31
0.0
  0
LINE
  5
CC
330
70
100
AcDbEntity
  8
house_laserCut_Pinslot v1_Layer 1
100
AcDbLine
 10
25.33297164
 20
34.91276235999998
 30
0.0
 11
25.22507388
 21
35.25967596
 31
0.0
  0
LINE
  5
CD
330
70
100
AcDbEntity
  8
house_laserCut_Pinslot v1_Layer 1
100
AcDbLine
 10
24.69429819999999
 20
39.74392444
 30
0.0
 11
24.36306668
 21
39.92622236000001
 31
0.0
  0
LINE
  5
CE
330
70
100
AcDbEntity
  8
house_laserCut_Pinslot v1_Layer 1
100
AcDbLine
 10
25.33297195999999
 20
34.16788764
 30
0.0
 11
25.3705934
 21
34.54032011999998
 31
0.0
  0
LINE
  5
CF
330
70
100
AcDbEntity
  8
house_laserCut_Pinslot v1_Layer 1
100
AcDbLine
 10
23.89223564
 20
32.72963723999999
 30
0.0
 11
24.23974764
 21
32.83734955999999
 31
0.0
  0
LINE
  5
D0
330
70
100
AcDbEntity
  8
house_laserCut_Pinslot v1_Layer 1
100
AcDbLine
 10
24.55423852
 20
29.31129515999998
 30
0.0
 11
24.82825724
 21
29.5370038
 31
0.0
  0
LINE
  5
D1
330
70
100
AcDbEntity
  8
house_laserCut_Pinslot v1_Layer 1
100
AcDbLine
 10
23.89223564
 20
29.0331534
 30
0.0
 11
24.23974764
 21
29.14086571999999
 31
0.0
  0
LINE
  5
D2
330
70
100
AcDbEntity
  8
house_laserCut_Pinslot v1_Layer 1
100
AcDbLine
 10
23.5191534
 20
28.99559644
 30
0.0
 11
23.89223564
 21
29.0331534
 31
0.0
  0
LINE
  5
D3
330
70
100
AcDbEntity
  8
house_laserCut_Pinslot v1_Layer 1
100
AcDbLine
 10
25.41450076
 20
37.89206651999999
 30
0.0
 11
25.44508748
 21
38.23680811999999
 31
0.0
  0
LINE
  5
D4
330
70
100
AcDbEntity
  8
house_laserCut_Pinslot v1_Layer 1
100
AcDbLine
 10
25.17295932000001
 20
37.24590171999999
 30
0.0
 11
25.3237758
 21
37.55815452
 31
0.0
  0
LINE
  5
D5
330
70
100
AcDbEntity
  8
house_laserCut_Pinslot v1_Layer 1
100
AcDbLine
 10
22.0520334
 20
23.4508566
 30
0.0
 11
22.01441148
 21
23.82329243999999
 31
0.0
  0
LINE
  5
D6
330
70
100
AcDbEntity
  8
house_laserCut_Pinslot v1_Layer 1
100
AcDbLine
 10
25.05435132
 20
35.57362347999999
 30
0.0
 11
24.82825483999999
 21
35.84716747999999
 31
0.0
  0
LINE
  5
D7
330
70
100
AcDbEntity
  8
house_laserCut_Pinslot v1_Layer 1
100
AcDbLine
 10
25.4154886
 20
38.58154971999999
 30
0.0
 11
25.32565724
 21
38.91546171999999
 31
0.0
  0
LINE
  5
D8
330
70
100
AcDbEntity
  8
house_laserCut_Pinslot v1_Layer 1
100
AcDbLine
 10
23.89223387999999
 20
32.65455147999999
 30
0.0
 11
23.5191534
 21
32.69210844
 31
0.0
  0
LINE
  5
D9
330
70
100
AcDbEntity
  8
house_laserCut_Pinslot v1_Layer 1
100
AcDbLine
 10
24.23974492000001
 20
32.54683964
 30
0.0
 11
23.89223387999999
 21
32.65455147999999
 31
0.0
  0
LINE
  5
DA
330
70
100
AcDbEntity
  8
house_laserCut_Pinslot v1_Layer 1
100
AcDbLine
 10
24.23974492000001
 20
36.24329547999999
 30
0.0
 11
23.89223387999999
 21
36.35100444
 31
0.0
  0
LINE
  5
DB
330
70
100
AcDbEntity
  8
house_laserCut_Pinslot v1_Layer 1
100
AcDbLine
 10
23.5191534
 20
36.38856011999999
 30
0.0
 11
23.96972092
 21
36.43007355999998
 31
0.0
  0
LINE
  5
DC
330
70
100
AcDbEntity
  8
house_laserCut_Pinslot v1_Layer 1
100
AcDbLine
 10
23.97136732
 20
40.04354283999998
 30
0.0
 11
23.5191534
 21
40.08505611999999
 31
0.0
  0
LINE
  5
DD
330
70
100
AcDbEntity
  8
house_laserCut_Pinslot v1_Layer 1
100
AcDbLine
 10
25.3705934
 20
34.54032011999998
 30
0.0
 11
25.33297164
 21
34.91276235999998
 31
0.0
  0
LINE
  5
DE
330
70
100
AcDbEntity
  8
house_laserCut_Pinslot v1_Layer 1
100
AcDbLine
 10
20.57367196
 20
25.26153996
 30
0.0
 11
20.2005934
 21
25.29909659999999
 31
0.0
  0
LINE
  5
DF
330
70
100
AcDbEntity
  8
house_laserCut_Pinslot v1_Layer 1
100
AcDbLine
 10
24.36043244
 20
36.54739403999999
 30
0.0
 11
24.6912406
 21
36.72969179999999
 31
0.0
  0
LINE
  5
E0
330
70
100
AcDbEntity
  8
house_laserCut_Pinslot v1_Layer 1
100
AcDbLine
 10
25.05435292
 20
33.50703164
 30
0.0
 11
25.22507484000001
 21
33.82097851999999
 31
0.0
  0
LINE
  5
E1
330
70
100
AcDbEntity
  8
house_laserCut_Pinslot v1_Layer 1
100
AcDbLine
 10
24.82825724
 20
33.2334854
 30
0.0
 11
25.05435292
 21
33.50703164
 31
0.0
  0
LINE
  5
E2
330
70
100
AcDbEntity
  8
house_laserCut_Pinslot v1_Layer 1
100
AcDbLine
 10
24.23974764
 20
32.83734955999999
 30
0.0
 11
24.55423852
 21
33.00777851999999
 31
0.0
  0
LINE
  5
E3
330
70
100
AcDbEntity
  8
house_laserCut_Pinslot v1_Layer 1
100
AcDbLine
 10
21.90651308
 20
24.17020299999999
 30
0.0
 11
21.73578956
 21
24.48415003999998
 31
0.0
  0
LINE
  5
E4
330
70
100
AcDbEntity
  8
house_laserCut_Pinslot v1_Layer 1
100
AcDbLine
 10
21.23567292
 20
24.98340123999999
 30
0.0
 11
20.9211822
 21
25.15382875999998
 31
0.0
  0
LINE
  5
E5
330
70
100
AcDbEntity
  8
house_laserCut_Pinslot v1_Layer 1
100
AcDbLine
 10
20.57367387999999
 20
21.64015755999998
 30
0.0
 11
20.92118492
 21
21.74786956
 31
0.0
  0
LINE
  5
E6
330
70
100
AcDbEntity
  8
house_laserCut_Pinslot v1_Layer 1
100
AcDbLine
 10
24.96510907999999
 20
39.50747867999999
 30
0.0
 11
24.69429819999999
 21
39.74392444
 31
0.0
  0
LINE
  5
E7
330
70
100
AcDbEntity
  8
house_laserCut_Pinslot v1_Layer 1
100
AcDbLine
 10
20.2005934
 20
21.6026006
 30
0.0
 11
20.57367387999999
 21
21.64015755999998
 31
0.0
  0
LINE
  5
E8
330
70
100
AcDbEntity
  8
house_laserCut_Pinslot v1_Layer 1
100
AcDbLine
 10
24.36306668
 20
39.92622236000001
 30
0.0
 11
23.97136732
 21
40.04354283999998
 31
0.0
  0
LINE
  5
E9
330
70
100
AcDbEntity
  8
house_laserCut_Pinslot v1_Layer 1
100
AcDbLine
 10
21.23567564
 20
21.91829851999999
 30
0.0
 11
21.50969483999999
 21
22.14400603999998
 31
0.0
  0
LINE
  5
EA
330
70
100
AcDbEntity
  8
house_laserCut_Pinslot v1_Layer 1
100
AcDbLine
 10
24.55423564
 20
32.37641131999999
 30
0.0
 11
24.23974492000001
 21
32.54683964
 31
0.0
  0
LINE
  5
EB
330
70
100
AcDbEntity
  8
house_laserCut_Pinslot v1_Layer 1
100
AcDbLine
 10
22.01441148
 20
23.82329243999999
 30
0.0
 11
21.90651308
 21
24.17020299999999
 31
0.0
  0
LINE
  5
EC
330
70
100
AcDbEntity
  8
house_laserCut_Pinslot v1_Layer 1
100
AcDbLine
 10
20.92118492
 20
21.74786956
 30
0.0
 11
21.23567564
 21
21.91829851999999
 31
0.0
  0
LINE
  5
ED
330
70
100
AcDbEntity
  8
house_laserCut_Pinslot v1_Layer 1
100
AcDbLine
 10
25.17554652
 20
39.22771451999999
 30
0.0
 11
24.96510907999999
 21
39.50747867999999
 31
0.0
  0
LINE
  5
EE
330
70
100
AcDbEntity
  8
house_laserCut_Pinslot v1_Layer 1
100
AcDbLine
 10
24.6912406
 20
36.72969179999999
 30
0.0
 11
24.96209868000001
 21
36.96613772
 31
0.0
  0
LINE
  5
EF
330
70
100
AcDbEntity
  8
house_laserCut_Pinslot v1_Layer 1
100
AcDbLine
 10
25.22507484000001
 20
33.82097851999999
 30
0.0
 11
25.33297195999999
 21
34.16788764
 31
0.0
  0
LINE
  5
F0
330
70
100
AcDbEntity
  8
house_laserCut_Pinslot v1_Layer 1
100
AcDbLine
 10
24.82825483999999
 20
32.15070491999999
 30
0.0
 11
24.55423564
 21
32.37641131999999
 31
0.0
  0
LINE
  5
F1
330
70
100
AcDbEntity
  8
house_laserCut_Pinslot v1_Layer 1
100
AcDbLine
 10
25.05435132
 20
31.87715915999999
 30
0.0
 11
24.82825483999999
 21
32.15070491999999
 31
0.0
  0
LINE
  5
F2
330
70
100
AcDbEntity
  8
house_laserCut_Pinslot v1_Layer 1
100
AcDbLine
 10
24.96209868000001
 20
36.96613772
 30
0.0
 11
25.17295932000001
 21
37.24590171999999
 31
0.0
  0
LINE
  5
F3
330
70
100
AcDbEntity
  8
house_laserCut_Pinslot v1_Layer 1
100
AcDbLine
 10
21.73578956
 20
24.48415003999998
 30
0.0
 11
21.50969244
 21
24.75769564
 31
0.0
  0
LINE
  5
F4
330
70
100
AcDbEntity
  8
house_laserCut_Pinslot v1_Layer 1
100
AcDbLine
 10
22.01441164
 20
23.07841739999998
 30
0.0
 11
22.0520334
 21
23.4508566
 31
0.0
  0
LINE
  5
F5
330
70
100
AcDbEntity
  8
house_laserCut_Pinslot v1_Layer 1
100
AcDbLine
 10
21.90651387999999
 20
22.73150363999999
 30
0.0
 11
22.01441164
 21
23.07841739999998
 31
0.0
  0
LINE
  5
F6
330
70
100
AcDbEntity
  8
house_laserCut_Pinslot v1_Layer 1
100
AcDbLine
 10
21.73579132
 20
22.41755388
 30
0.0
 11
21.90651387999999
 21
22.73150363999999
 31
0.0
  0
LINE
  5
F7
330
70
100
AcDbEntity
  8
house_laserCut_Pinslot v1_Layer 1
100
AcDbLine
 10
25.32565724
 20
38.91546171999999
 30
0.0
 11
25.17554652
 21
39.22771451999999
 31
0.0
  0
LINE
  5
F8
330
70
100
AcDbEntity
  8
house_laserCut_Pinslot v1_Layer 1
100
AcDbLine
 10
25.44508748
 20
38.23680811999999
 30
0.0
 11
25.4154886
 21
38.58154971999999
 31
0.0
  0
LINE
  5
F9
330
70
100
AcDbEntity
  8
house_laserCut_Pinslot v1_Layer 1
100
AcDbLine
 10
24.82825483999999
 20
35.84716747999999
 30
0.0
 11
24.55423564
 21
36.07287067999999
 31
0.0
  0
LINE
  5
FA
330
70
100
AcDbEntity
  8
house_laserCut_Pinslot v1_Layer 1
100
AcDbLine
 10
21.50969244
 20
24.75769564
 30
0.0
 11
21.23567292
 21
24.98340123999999
 31
0.0
  0
LINE
  5
FB
330
70
100
AcDbEntity
  8
house_laserCut_Pinslot v1_Layer 1
100
AcDbLine
 10
23.5191534
 20
32.69208012000001
 30
0.0
 11
23.89223564
 21
32.72963723999999
 31
0.0
  0
LINE
  5
FC
330
70
100
AcDbEntity
  8
house_laserCut_Pinslot v1_Layer 1
100
AcDbLine
 10
21.50969483999999
 20
22.14400603999998
 30
0.0
 11
21.73579132
 21
22.41755388
 31
0.0
  0
LINE
  5
FD
330
70
100
AcDbEntity
  8
house_laserCut_Pinslot v1_Layer 1
100
AcDbLine
 10
25.22507388
 20
31.56321211999999
 30
0.0
 11
25.05435132
 21
31.87715915999999
 31
0.0
  0
LINE
  5
FE
330
70
100
AcDbEntity
  8
house_laserCut_Pinslot v1_Layer 1
100
AcDbLine
 10
25.3705934
 20
30.84386843999999
 30
0.0
 11
25.33297164
 21
31.21630235999999
 31
0.0
  0
LINE
  5
FF
330
70
100
AcDbEntity
  8
house_laserCut_Pinslot v1_Layer 1
100
AcDbLine
 10
25.33297195999999
 20
30.4714238
 30
0.0
 11
25.3705934
 21
30.84386843999999
 31
0.0
  0
LINE
  5
100
330
70
100
AcDbEntity
  8
house_laserCut_Pinslot v1_Layer 1
100
AcDbLine
 10
25.22507484000001
 20
30.1245062
 30
0.0
 11
25.33297195999999
 21
30.4714238
 31
0.0
  0
LINE
  5
101
330
70
100
AcDbEntity
  8
house_laserCut_Pinslot v1_Layer 1
100
AcDbLine
 10
25.22507388
 20
35.25967596
 30
0.0
 11
25.05435132
 21
35.57362347999999
 31
0.0
  0
LINE
  5
102
330
70
100
AcDbEntity
  8
house_laserCut_Pinslot v1_Layer 1
100
AcDbLine
 10
24.82825724
 20
29.5370038
 30
0.0
 11
25.05435292
 21
29.81055355999999
 31
0.0
  0
LINE
  5
103
330
70
100
AcDbEntity
  8
house_laserCut_Pinslot v1_Layer 1
100
AcDbLine
 10
23.96972092
 20
36.43007355999998
 30
0.0
 11
24.36043244
 21
36.54739403999999
 31
0.0
  0
LINE
  5
104
330
70
100
AcDbEntity
  8
house_laserCut_Pinslot v1_Layer 1
100
AcDbLine
 10
25.33297164
 20
31.21630235999999
 30
0.0
 11
25.22507388
 21
31.56321211999999
 31
0.0
  0
LINE
  5
105
330
70
100
AcDbEntity
  8
house_laserCut_Pinslot v1_Layer 1
100
AcDbLine
 10
25.05435292
 20
29.81055355999999
 30
0.0
 11
25.22507484000001
 21
30.1245062
 31
0.0
  0
LINE
  5
106
330
70
100
AcDbEntity
  8
house_laserCut_Pinslot v1_Layer 1
100
AcDbLine
 10
24.55423564
 20
36.07287067999999
 30
0.0
 11
24.23974492000001
 21
36.24329547999999
 31
0.0
  0
LINE
  5
107
330
70
100
AcDbEntity
  8
house_laserCut_Pinslot v1_Layer 1
100
AcDbLine
 10
24.55423852
 20
33.00777851999999
 30
0.0
 11
24.82825724
 21
33.2334854
 31
0.0
  0
LINE
  5
108
330
70
100
AcDbEntity
  8
house_laserCut_Pinslot v1_Layer 1
100
AcDbLine
 10
24.23974764
 20
29.14086571999999
 30
0.0
 11
24.55423852
 21
29.31129515999998
 31
0.0
  0
LINE
  5
109
330
70
100
AcDbEntity
  8
house_laserCut_Pinslot v1_Layer 1
100
AcDbLine
 10
23.89223387999999
 20
36.35100444
 30
0.0
 11
23.5191534
 21
36.38856011999999
 31
0.0
  0
LINE
  5
10A
330
70
100
AcDbEntity
  8
house_laserCut_Pinslot v1_Layer 1
100
AcDbLine
 10
25.3237758
 20
37.55815452
 30
0.0
 11
25.41450076
 21
37.89206651999999
 31
0.0
  0
LINE
  5
10B
330
70
100
AcDbEntity
  8
house_laserCut_Pinslot v1_Layer 1
100
AcDbLine
 10
25.22507484000001
 20
26.42801516
 30
0.0
 11
25.33297195999999
 21
26.77493611999999
 31
0.0
  0
LINE
  5
10C
330
70
100
AcDbEntity
  8
house_laserCut_Pinslot v1_Layer 1
100
AcDbLine
 10
23.89223387999999
 20
28.95806764000001
 30
0.0
 11
23.5191534
 21
28.99562459999999
 31
0.0
  0
LINE
  5
10D
330
70
100
AcDbEntity
  8
house_laserCut_Pinslot v1_Layer 1
100
AcDbLine
 10
24.82825724
 20
25.8405078
 30
0.0
 11
25.05435292
 21
26.11405980000001
 31
0.0
  0
LINE
  5
10E
330
70
100
AcDbEntity
  8
house_laserCut_Pinslot v1_Layer 1
100
AcDbLine
 10
24.33537084000001
 20
25.14026284
 30
0.0
 11
23.95434284
 21
25.25758316000001
 31
0.0
  0
LINE
  5
10F
330
70
100
AcDbEntity
  8
house_laserCut_Pinslot v1_Layer 1
100
AcDbLine
 10
27.00647724
 20
40.04747211999998
 30
0.0
 11
26.6333934
 21
40.08502891999998
 31
0.0
  0
LINE
  5
110
330
70
100
AcDbEntity
  8
house_laserCut_Pinslot v1_Layer 1
100
AcDbLine
 10
24.93163132
 20
24.72151916
 30
0.0
 11
24.66140972
 21
24.95796492
 31
0.0
  0
LINE
  5
111
330
70
100
AcDbEntity
  8
house_laserCut_Pinslot v1_Layer 1
100
AcDbLine
 10
24.23974492000001
 20
28.85035579999999
 30
0.0
 11
23.89223387999999
 21
28.95806764000001
 31
0.0
  0
LINE
  5
112
330
70
100
AcDbEntity
  8
house_laserCut_Pinslot v1_Layer 1
100
AcDbLine
 10
23.89223564
 20
25.33665387999999
 30
0.0
 11
24.23974764
 21
25.44436683999999
 31
0.0
  0
LINE
  5
113
330
70
100
AcDbEntity
  8
house_laserCut_Pinslot v1_Layer 1
100
AcDbLine
 10
28.16860475999999
 20
39.27008236000001
 30
0.0
 11
27.94250636
 21
39.5436278
 31
0.0
  0
LINE
  5
114
330
70
100
AcDbEntity
  8
house_laserCut_Pinslot v1_Layer 1
100
AcDbLine
 10
28.33932876
 20
38.95613531999999
 30
0.0
 11
28.16860475999999
 21
39.27008236000001
 31
0.0
  0
LINE
  5
115
330
70
100
AcDbEntity
  8
house_laserCut_Pinslot v1_Layer 1
100
AcDbLine
 10
24.98462332
 20
22.18017804
 30
0.0
 11
25.1907478
 21
22.4599422
 31
0.0
  0
LINE
  5
116
330
70
100
AcDbEntity
  8
house_laserCut_Pinslot v1_Layer 1
100
AcDbLine
 10
28.4848494
 20
38.23678891999999
 30
0.0
 11
28.44722732
 21
38.60922459999999
 31
0.0
  0
LINE
  5
117
330
70
100
AcDbEntity
  8
house_laserCut_Pinslot v1_Layer 1
100
AcDbLine
 10
28.33932828
 20
33.8209598
 30
0.0
 11
28.44722732
 21
34.16787436000001
 31
0.0
  0
LINE
  5
118
330
70
100
AcDbEntity
  8
house_laserCut_Pinslot v1_Layer 1
100
AcDbLine
 10
28.16860396
 20
33.50700987999999
 30
0.0
 11
28.33932828
 21
33.8209598
 31
0.0
  0
LINE
  5
119
330
70
100
AcDbEntity
  8
house_laserCut_Pinslot v1_Layer 1
100
AcDbLine
 10
25.1907478
 20
22.4599422
 30
0.0
 11
25.33443084
 21
22.772195
 31
0.0
  0
LINE
  5
11A
330
70
100
AcDbEntity
  8
house_laserCut_Pinslot v1_Layer 1
100
AcDbLine
 10
28.44722732
 20
38.60922459999999
 30
0.0
 11
28.33932876
 21
38.95613531999999
 31
0.0
  0
LINE
  5
11B
330
70
100
AcDbEntity
  8
house_laserCut_Pinslot v1_Layer 1
100
AcDbLine
 10
27.66848492000001
 20
39.76933339999999
 30
0.0
 11
27.35399147999999
 21
39.93976091999999
 31
0.0
  0
LINE
  5
11C
330
70
100
AcDbEntity
  8
house_laserCut_Pinslot v1_Layer 1
100
AcDbLine
 10
24.66140972
 20
24.95796492
 30
0.0
 11
24.33537084000001
 21
25.14026284
 31
0.0
  0
LINE
  5
11D
330
70
100
AcDbEntity
  8
house_laserCut_Pinslot v1_Layer 1
100
AcDbLine
 10
25.33443084
 20
22.772195
 30
0.0
 11
25.41650076
 21
23.10610699999999
 31
0.0
  0
LINE
  5
11E
330
70
100
AcDbEntity
  8
house_laserCut_Pinslot v1_Layer 1
100
AcDbLine
 10
27.94250524
 20
33.23346251999999
 30
0.0
 11
28.16860396
 21
33.50700987999999
 31
0.0
  0
LINE
  5
11F
330
70
100
AcDbEntity
  8
house_laserCut_Pinslot v1_Layer 1
100
AcDbLine
 10
23.5191534
 20
25.29909659999999
 30
0.0
 11
23.89223564
 21
25.33665387999999
 31
0.0
  0
LINE
  5
120
330
70
100
AcDbEntity
  8
house_laserCut_Pinslot v1_Layer 1
100
AcDbLine
 10
23.5191534
 20
21.6026006
 30
0.0
 11
23.98332283999999
 21
21.64411403999998
 31
0.0
  0
LINE
  5
121
330
70
100
AcDbEntity
  8
house_laserCut_Pinslot v1_Layer 1
100
AcDbLine
 10
27.3539902
 20
36.53380091999999
 30
0.0
 11
27.66848348000001
 21
36.70422908000001
 31
0.0
  0
LINE
  5
122
330
70
100
AcDbEntity
  8
house_laserCut_Pinslot v1_Layer 1
100
AcDbLine
 10
26.6333934
 20
36.38853291999998
 30
0.0
 11
27.00647644
 21
36.42608955999999
 31
0.0
  0
LINE
  5
123
330
70
100
AcDbEntity
  8
house_laserCut_Pinslot v1_Layer 1
100
AcDbLine
 10
27.00647724
 20
36.35099883999998
 30
0.0
 11
26.6333934
 21
36.38855547999999
 31
0.0
  0
LINE
  5
124
330
70
100
AcDbEntity
  8
house_laserCut_Pinslot v1_Layer 1
100
AcDbLine
 10
27.35399147999999
 20
36.24328764
 30
0.0
 11
27.00647724
 21
36.35099883999998
 31
0.0
  0
LINE
  5
125
330
70
100
AcDbEntity
  8
house_laserCut_Pinslot v1_Layer 1
100
AcDbLine
 10
27.94250636
 20
35.84715452
 30
0.0
 11
27.66848492000001
 21
36.07286011999999
 31
0.0
  0
LINE
  5
126
330
70
100
AcDbEntity
  8
house_laserCut_Pinslot v1_Layer 1
100
AcDbLine
 10
28.16860475999999
 20
35.57360891999999
 30
0.0
 11
27.94250636
 21
35.84715452
 31
0.0
  0
LINE
  5
127
330
70
100
AcDbEntity
  8
house_laserCut_Pinslot v1_Layer 1
100
AcDbLine
 10
27.66848348000001
 20
33.00775564
 30
0.0
 11
27.94250524
 21
33.23346251999999
 31
0.0
  0
LINE
  5
128
330
70
100
AcDbEntity
  8
house_laserCut_Pinslot v1_Layer 1
100
AcDbLine
 10
27.3539902
 20
32.83732764000002
 30
0.0
 11
27.66848348000001
 21
33.00775564
 31
0.0
  0
LINE
  5
129
330
70
100
AcDbEntity
  8
house_laserCut_Pinslot v1_Layer 1
100
AcDbLine
 10
27.00647644
 20
32.72961612
 30
0.0
 11
27.3539902
 21
32.83732764000002
 31
0.0
  0
LINE
  5
12A
330
70
100
AcDbEntity
  8
house_laserCut_Pinslot v1_Layer 1
100
AcDbLine
 10
26.6333934
 20
32.69205947999999
 30
0.0
 11
27.00647644
 21
32.72961612
 31
0.0
  0
LINE
  5
12B
330
70
100
AcDbEntity
  8
house_laserCut_Pinslot v1_Layer 1
100
AcDbLine
 10
25.33297164
 20
27.51981852
 30
0.0
 11
25.22507388
 21
27.86672827999999
 31
0.0
  0
LINE
  5
12C
330
70
100
AcDbEntity
  8
house_laserCut_Pinslot v1_Layer 1
100
AcDbLine
 10
28.33932828
 20
37.51743323999999
 30
0.0
 11
28.44722732
 21
37.8643478
 31
0.0
  0
LINE
  5
12D
330
70
100
AcDbEntity
  8
house_laserCut_Pinslot v1_Layer 1
100
AcDbLine
 10
24.82825483999999
 20
28.45422124
 30
0.0
 11
24.55423564
 21
28.67992748000001
 31
0.0
  0
LINE
  5
12E
330
70
100
AcDbEntity
  8
house_laserCut_Pinslot v1_Layer 1
100
AcDbLine
 10
27.94250636
 20
39.5436278
 30
0.0
 11
27.66848492000001
 21
39.76933339999999
 31
0.0
  0
LINE
  5
12F
330
70
100
AcDbEntity
  8
house_laserCut_Pinslot v1_Layer 1
100
AcDbLine
 10
25.3705934
 20
27.14738459999999
 30
0.0
 11
25.33297164
 21
27.51981852
 31
0.0
  0
LINE
  5
130
330
70
100
AcDbEntity
  8
house_laserCut_Pinslot v1_Layer 1
100
AcDbLine
 10
27.94250524
 20
36.92993579999999
 30
0.0
 11
28.16860396
 21
37.20348331999999
 31
0.0
  0
LINE
  5
131
330
70
100
AcDbEntity
  8
house_laserCut_Pinslot v1_Layer 1
100
AcDbLine
 10
27.35399147999999
 20
39.93976091999999
 30
0.0
 11
27.00647724
 21
40.04747211999998
 31
0.0
  0
LINE
  5
132
330
70
100
AcDbEntity
  8
house_laserCut_Pinslot v1_Layer 1
100
AcDbLine
 10
27.66848492000001
 20
36.07286011999999
 30
0.0
 11
27.35399147999999
 21
36.24328764
 31
0.0
  0
LINE
  5
133
330
70
100
AcDbEntity
  8
house_laserCut_Pinslot v1_Layer 1
100
AcDbLine
 10
24.71522972000001
 20
21.94373227999999
 30
0.0
 11
24.98462332
 21
22.18017804
 31
0.0
  0
LINE
  5
134
330
70
100
AcDbEntity
  8
house_laserCut_Pinslot v1_Layer 1
100
AcDbLine
 10
23.98332283999999
 20
21.64411403999998
 30
0.0
 11
24.38173884
 21
21.76143436
 31
0.0
  0
LINE
  5
135
330
70
100
AcDbEntity
  8
house_laserCut_Pinslot v1_Layer 1
100
AcDbLine
 10
28.44722732
 20
34.91275131999998
 30
0.0
 11
28.33932876
 21
35.25966187999999
 31
0.0
  0
LINE
  5
136
330
70
100
AcDbEntity
  8
house_laserCut_Pinslot v1_Layer 1
100
AcDbLine
 10
27.00647644
 20
36.42608955999999
 30
0.0
 11
27.3539902
 21
36.53380091999999
 31
0.0
  0
LINE
  5
137
330
70
100
AcDbEntity
  8
house_laserCut_Pinslot v1_Layer 1
100
AcDbLine
 10
28.33932876
 20
35.25966187999999
 30
0.0
 11
28.16860475999999
 21
35.57360891999999
 31
0.0
  0
LINE
  5
138
330
70
100
AcDbEntity
  8
house_laserCut_Pinslot v1_Layer 1
100
AcDbLine
 10
24.23974764
 20
25.44436683999999
 30
0.0
 11
24.55423852
 21
25.61479739999999
 31
0.0
  0
LINE
  5
139
330
70
100
AcDbEntity
  8
house_laserCut_Pinslot v1_Layer 1
100
AcDbLine
 10
28.44722732
 20
34.16787436000001
 30
0.0
 11
28.4848494
 21
34.54031547999999
 31
0.0
  0
LINE
  5
13A
330
70
100
AcDbEntity
  8
house_laserCut_Pinslot v1_Layer 1
100
AcDbLine
 10
25.30131084000001
 20
24.12950220000001
 30
0.0
 11
25.1452078
 21
24.441755
 31
0.0
  0
LINE
  5
13B
330
70
100
AcDbEntity
  8
house_laserCut_Pinslot v1_Layer 1
100
AcDbLine
 10
23.95434284
 20
25.25758316000001
 30
0.0
 11
23.5191534
 21
25.29909659999999
 31
0.0
  0
LINE
  5
13C
330
70
100
AcDbEntity
  8
house_laserCut_Pinslot v1_Layer 1
100
AcDbLine
 10
25.22507388
 20
27.86672827999999
 30
0.0
 11
25.05435132
 21
28.18067531999999
 31
0.0
  0
LINE
  5
13D
330
70
100
AcDbEntity
  8
house_laserCut_Pinslot v1_Layer 1
100
AcDbLine
 10
24.55423564
 20
28.67992748000001
 30
0.0
 11
24.23974492000001
 21
28.85035579999999
 31
0.0
  0
LINE
  5
13E
330
70
100
AcDbEntity
  8
house_laserCut_Pinslot v1_Layer 1
100
AcDbLine
 10
24.55423852
 20
25.61479739999999
 30
0.0
 11
24.82825724
 21
25.8405078
 31
0.0
  0
LINE
  5
13F
330
70
100
AcDbEntity
  8
house_laserCut_Pinslot v1_Layer 1
100
AcDbLine
 10
25.4377854
 20
23.4508486
 30
0.0
 11
25.39911276
 21
23.7955902
 31
0.0
  0
LINE
  5
140
330
70
100
AcDbEntity
  8
house_laserCut_Pinslot v1_Layer 1
100
AcDbLine
 10
25.39911276
 20
23.7955902
 30
0.0
 11
25.30131084000001
 21
24.12950220000001
 31
0.0
  0
LINE
  5
141
330
70
100
AcDbEntity
  8
house_laserCut_Pinslot v1_Layer 1
100
AcDbLine
 10
25.05435292
 20
26.11405980000001
 30
0.0
 11
25.22507484000001
 21
26.42801516
 31
0.0
  0
LINE
  5
142
330
70
100
AcDbEntity
  8
house_laserCut_Pinslot v1_Layer 1
100
AcDbLine
 10
24.38173884
 20
21.76143436
 30
0.0
 11
24.71522972000001
 21
21.94373227999999
 31
0.0
  0
LINE
  5
143
330
70
100
AcDbEntity
  8
house_laserCut_Pinslot v1_Layer 1
100
AcDbLine
 10
28.16860396
 20
37.20348331999999
 30
0.0
 11
28.33932828
 21
37.51743323999999
 31
0.0
  0
LINE
  5
144
330
70
100
AcDbEntity
  8
house_laserCut_Pinslot v1_Layer 1
100
AcDbLine
 10
25.41650076
 20
23.10610699999999
 30
0.0
 11
25.4377854
 21
23.4508486
 31
0.0
  0
LINE
  5
145
330
70
100
AcDbEntity
  8
house_laserCut_Pinslot v1_Layer 1
100
AcDbLine
 10
28.44722732
 20
37.8643478
 30
0.0
 11
28.4848494
 21
38.23678891999999
 31
0.0
  0
LINE
  5
146
330
70
100
AcDbEntity
  8
house_laserCut_Pinslot v1_Layer 1
100
AcDbLine
 10
25.1452078
 20
24.441755
 30
0.0
 11
24.93163132
 21
24.72151916
 31
0.0
  0
LINE
  5
147
330
70
100
AcDbEntity
  8
house_laserCut_Pinslot v1_Layer 1
100
AcDbLine
 10
25.05435132
 20
28.18067531999999
 30
0.0
 11
24.82825483999999
 21
28.45422124
 31
0.0
  0
LINE
  5
148
330
70
100
AcDbEntity
  8
house_laserCut_Pinslot v1_Layer 1
100
AcDbLine
 10
27.66848348000001
 20
36.70422908000001
 30
0.0
 11
27.94250524
 21
36.92993579999999
 31
0.0
  0
LINE
  5
149
330
70
100
AcDbEntity
  8
house_laserCut_Pinslot v1_Layer 1
100
AcDbLine
 10
28.4848494
 20
34.54031547999999
 30
0.0
 11
28.44722732
 21
34.91275131999998
 31
0.0
  0
LINE
  5
14A
330
70
100
AcDbEntity
  8
house_laserCut_Pinslot v1_Layer 1
100
AcDbLine
 10
25.33297195999999
 20
26.77493611999999
 30
0.0
 11
25.3705934
 21
27.14738459999999
 31
0.0
  0
LINE
  5
14B
330
70
100
AcDbEntity
  8
house_laserCut_Pinslot v1_Layer 1
100
AcDbLine
 10
28.44722732
 20
27.51978844
 30
0.0
 11
28.33932876
 21
27.866699
 31
0.0
  0
LINE
  5
14C
330
70
100
AcDbEntity
  8
house_laserCut_Pinslot v1_Layer 1
100
AcDbLine
 10
27.3539902
 20
21.74786956
 30
0.0
 11
27.66848348000001
 21
21.91829851999999
 31
0.0
  0
LINE
  5
14D
330
70
100
AcDbEntity
  8
house_laserCut_Pinslot v1_Layer 1
100
AcDbLine
 10
14.27950348
 20
40.62128379999999
 30
0.0
 11
14.440611
 21
40.60501339999999
 31
0.0
  0
LINE
  5
14E
330
70
100
AcDbEntity
  8
house_laserCut_Pinslot v1_Layer 1
100
AcDbLine
 10
27.00647644
 20
29.03312700000001
 30
0.0
 11
27.3539902
 21
29.14083931999999
 31
0.0
  0
LINE
  5
14F
330
70
100
AcDbEntity
  8
house_laserCut_Pinslot v1_Layer 1
100
AcDbLine
 10
28.44722732
 20
23.07841739999998
 30
0.0
 11
28.4848494
 21
23.4508566
 31
0.0
  0
LINE
  5
150
330
70
100
AcDbEntity
  8
house_laserCut_Pinslot v1_Layer 1
100
AcDbLine
 10
17.83256613866155
 20
31.84610717398872
 30
1.026589439916313
 11
17.83256613866155
 21
30.24607517398872
 31
1.026589439916313
  0
LINE
  5
151
330
70
100
AcDbEntity
  8
house_laserCut_Pinslot v1_Layer 1
100
AcDbLine
 10
28.4848494
 20
23.4508566
 30
0.0
 11
28.44722732
 21
23.82329243999999
 31
0.0
  0
LINE
  5
152
330
70
100
AcDbEntity
  8
house_laserCut_Pinslot v1_Layer 1
100
AcDbLine
 10
29.24390539999999
 20
40.1626006
 30
0.0
 11
29.24390539999999
 21
21.6026006
 31
0.0
  0
LINE
  5
153
330
70
100
AcDbEntity
  8
house_laserCut_Pinslot v1_Layer 1
100
AcDbLine
 10
27.35399147999999
 20
28.85032475999998
 30
0.0
 11
27.00647724
 21
28.95803595999999
 31
0.0
  0
LINE
  5
154
330
70
100
AcDbEntity
  8
house_laserCut_Pinslot v1_Layer 1
100
AcDbLine
 10
27.00647724
 20
25.26153996
 30
0.0
 11
26.6333934
 21
25.29909659999999
 31
0.0
  0
LINE
  5
155
330
70
100
AcDbEntity
  8
house_laserCut_Pinslot v1_Layer 1
100
AcDbLine
 10
28.4848494
 20
30.84384203999999
 30
0.0
 11
28.44722732
 21
31.21627595999999
 31
0.0
  0
LINE
  5
156
330
70
100
AcDbEntity
  8
house_laserCut_Pinslot v1_Layer 1
100
AcDbLine
 10
27.94250524
 20
22.14400603999998
 30
0.0
 11
28.16860396
 21
22.41755388
 31
0.0
  0
LINE
  5
157
330
70
100
AcDbEntity
  8
house_laserCut_Pinslot v1_Layer 1
100
AcDbLine
 10
27.94250524
 20
25.84049963999999
 30
0.0
 11
28.16860396
 21
26.114047
 31
0.0
  0
LINE
  5
158
330
70
100
AcDbEntity
  8
house_laserCut_Pinslot v1_Layer 1
100
AcDbLine
 10
28.33932876
 20
27.866699
 30
0.0
 11
28.16860475999999
 21
28.18064603999999
 31
0.0
  0
LINE
  5
159
330
70
100
AcDbEntity
  8
house_laserCut_Pinslot v1_Layer 1
100
AcDbLine
 10
27.94250636
 20
24.75769564
 30
0.0
 11
27.66848492000001
 21
24.98340123999999
 31
0.0
  0
LINE
  5
15A
330
70
100
AcDbEntity
  8
house_laserCut_Pinslot v1_Layer 1
100
AcDbLine
 10
28.33932876
 20
31.56318572000002
 30
0.0
 11
28.16860475999999
 21
31.87713275999999
 31
0.0
  0
LINE
  5
15B
330
70
100
AcDbEntity
  8
house_laserCut_Pinslot v1_Layer 1
100
AcDbLine
 10
26.6333934
 20
28.99557003999999
 30
0.0
 11
27.00647644
 21
29.03312700000001
 31
0.0
  0
LINE
  5
15C
330
70
100
AcDbEntity
  8
house_laserCut_Pinslot v1_Layer 1
100
AcDbLine
 10
27.94250636
 20
28.45419163999999
 30
0.0
 11
27.66848492000001
 21
28.67989724
 31
0.0
  0
LINE
  5
15D
330
70
100
AcDbEntity
  8
house_laserCut_Pinslot v1_Layer 1
100
AcDbLine
 10
27.3539902
 20
25.44436476
 30
0.0
 11
27.66848348000001
 21
25.61479276
 31
0.0
  0
LINE
  5
15E
330
70
100
AcDbEntity
  8
house_laserCut_Pinslot v1_Layer 1
100
AcDbLine
 10
27.00647724
 20
32.65452507999999
 30
0.0
 11
26.6333934
 21
32.69208204
 31
0.0
  0
LINE
  5
15F
330
70
100
AcDbEntity
  8
house_laserCut_Pinslot v1_Layer 1
100
AcDbLine
 10
26.6333934
 20
25.29909659999999
 30
0.0
 11
27.00647644
 21
25.33665323999999
 31
0.0
  0
LINE
  5
160
330
70
100
AcDbEntity
  8
house_laserCut_Pinslot v1_Layer 1
100
AcDbLine
 10
28.33932876
 20
24.17020299999999
 30
0.0
 11
28.16860475999999
 21
24.48415003999998
 31
0.0
  0
LINE
  5
161
330
70
100
AcDbEntity
  8
house_laserCut_Pinslot v1_Layer 1
100
AcDbLine
 10
28.44722732
 20
23.82329243999999
 30
0.0
 11
28.33932876
 21
24.17020299999999
 31
0.0
  0
LINE
  5
162
330
70
100
AcDbEntity
  8
house_laserCut_Pinslot v1_Layer 1
100
AcDbLine
 10
28.33932828
 20
22.73150363999999
 30
0.0
 11
28.44722732
 21
23.07841739999998
 31
0.0
  0
LINE
  5
163
330
70
100
AcDbEntity
  8
house_laserCut_Pinslot v1_Layer 1
100
AcDbLine
 10
28.16860396
 20
22.41755388
 30
0.0
 11
28.33932828
 21
22.73150363999999
 31
0.0
  0
LINE
  5
164
330
70
100
AcDbEntity
  8
house_laserCut_Pinslot v1_Layer 1
100
AcDbLine
 10
28.4848494
 20
27.14735259999999
 30
0.0
 11
28.44722732
 21
27.51978844
 31
0.0
  0
LINE
  5
165
330
70
100
AcDbEntity
  8
house_laserCut_Pinslot v1_Layer 1
100
AcDbLine
 10
27.00647644
 20
21.64015755999998
 30
0.0
 11
27.3539902
 21
21.74786956
 31
0.0
  0
LINE
  5
166
330
70
100
AcDbEntity
  8
house_laserCut_Pinslot v1_Layer 1
100
AcDbLine
 10
15.16395339999999
 20
21.6026006
 30
0.0
 11
15.16395339999999
 21
40.1626006
 31
0.0
  0
LINE
  5
167
330
70
100
AcDbEntity
  8
house_laserCut_Pinslot v1_Layer 1
100
AcDbLine
 10
28.33932828
 20
30.12447980000001
 30
0.0
 11
28.44722732
 21
30.47139756
 31
0.0
  0
LINE
  5
168
330
70
100
AcDbEntity
  8
house_laserCut_Pinslot v1_Layer 1
100
AcDbLine
 10
28.44722732
 20
31.21627595999999
 30
0.0
 11
28.33932876
 21
31.56318572000002
 31
0.0
  0
LINE
  5
169
330
70
100
AcDbEntity
  8
house_laserCut_Pinslot v1_Layer 1
100
AcDbLine
 10
27.94250524
 20
29.53697739999999
 30
0.0
 11
28.16860396
 21
29.81052716
 31
0.0
  0
LINE
  5
16A
330
70
100
AcDbEntity
  8
house_laserCut_Pinslot v1_Layer 1
100
AcDbLine
 10
27.00647724
 20
28.95803595999999
 30
0.0
 11
26.6333934
 21
28.99559259999999
 31
0.0
  0
LINE
  5
16B
330
70
100
AcDbEntity
  8
house_laserCut_Pinslot v1_Layer 1
100
AcDbLine
 10
27.66848492000001
 20
28.67989724
 30
0.0
 11
27.35399147999999
 21
28.85032475999998
 31
0.0
  0
LINE
  5
16C
330
70
100
AcDbEntity
  8
house_laserCut_Pinslot v1_Layer 1
100
AcDbLine
 10
27.66848348000001
 20
21.91829851999999
 30
0.0
 11
27.94250524
 21
22.14400603999998
 31
0.0
  0
LINE
  5
16D
330
70
100
AcDbEntity
  8
house_laserCut_Pinslot v1_Layer 1
100
AcDbLine
 10
26.6333934
 20
21.6026006
 30
0.0
 11
27.00647644
 21
21.64015755999998
 31
0.0
  0
LINE
  5
16E
330
70
100
AcDbEntity
  8
house_laserCut_Pinslot v1_Layer 1
100
AcDbLine
 10
27.35399147999999
 20
25.15382875999998
 30
0.0
 11
27.00647724
 21
25.26153996
 31
0.0
  0
LINE
  5
16F
330
70
100
AcDbEntity
  8
house_laserCut_Pinslot v1_Layer 1
100
AcDbLine
 10
28.16860475999999
 20
28.18064603999999
 30
0.0
 11
27.94250636
 21
28.45419163999999
 31
0.0
  0
LINE
  5
170
330
70
100
AcDbEntity
  8
house_laserCut_Pinslot v1_Layer 1
100
AcDbLine
 10
28.33932828
 20
26.42799692
 30
0.0
 11
28.44722732
 21
26.77491148
 31
0.0
  0
LINE
  5
171
330
70
100
AcDbEntity
  8
house_laserCut_Pinslot v1_Layer 1
100
AcDbLine
 10
28.16860396
 20
26.114047
 30
0.0
 11
28.33932828
 21
26.42799692
 31
0.0
  0
LINE
  5
172
330
70
100
AcDbEntity
  8
house_laserCut_Pinslot v1_Layer 1
100
AcDbLine
 10
15.1639694
 20
40.1626006
 30
0.0
 11
15.1639694
 21
21.6026006
 31
0.0
  0
LINE
  5
173
330
70
100
AcDbEntity
  8
house_laserCut_Pinslot v1_Layer 1
100
AcDbLine
 10
17.53256613866154
 20
30.24607517398872
 30
1.026589439916313
 11
17.53256613866154
 21
31.84610717398872
 31
1.026589439916313
  0
LINE
  5
174
330
70
100
AcDbEntity
  8
house_laserCut_Pinslot v1_Layer 1
100
AcDbLine
 10
14.12939132
 20
40.66794028
 30
0.0
 11
14.27950348
 21
40.62128379999999
 31
0.0
  0
LINE
  5
175
330
70
100
AcDbEntity
  8
house_laserCut_Pinslot v1_Layer 1
100
AcDbLine
 10
27.94250636
 20
32.15067867999999
 30
0.0
 11
27.66848492000001
 21
32.37638491999998
 31
0.0
  0
LINE
  5
176
330
70
100
AcDbEntity
  8
house_laserCut_Pinslot v1_Layer 1
100
AcDbLine
 10
27.66848492000001
 20
32.37638491999998
 30
0.0
 11
27.35399147999999
 21
32.54681323999999
 31
0.0
  0
LINE
  5
177
330
70
100
AcDbEntity
  8
house_laserCut_Pinslot v1_Layer 1
100
AcDbLine
 10
27.66848348000001
 20
25.61479276
 30
0.0
 11
27.94250524
 21
25.84049963999999
 31
0.0
  0
LINE
  5
178
330
70
100
AcDbEntity
  8
house_laserCut_Pinslot v1_Layer 1
100
AcDbLine
 10
27.00647644
 20
25.33665323999999
 30
0.0
 11
27.3539902
 21
25.44436476
 31
0.0
  0
LINE
  5
179
330
70
100
AcDbEntity
  8
house_laserCut_Pinslot v1_Layer 1
100
AcDbLine
 10
28.44722732
 20
30.47139756
 30
0.0
 11
28.4848494
 21
30.84384203999999
 31
0.0
  0
LINE
  5
17A
330
70
100
AcDbEntity
  8
house_laserCut_Pinslot v1_Layer 1
100
AcDbLine
 10
28.16860475999999
 20
24.48415003999998
 30
0.0
 11
27.94250636
 21
24.75769564
 31
0.0
  0
LINE
  5
17B
330
70
100
AcDbEntity
  8
house_laserCut_Pinslot v1_Layer 1
100
AcDbLine
 10
29.24390539999999
 20
21.6026006
 30
0.0
 11
15.16395339999999
 21
21.6026006
 31
0.0
  0
LINE
  5
17C
330
70
100
AcDbEntity
  8
house_laserCut_Pinslot v1_Layer 1
100
AcDbLine
 10
28.16860396
 20
29.81052716
 30
0.0
 11
28.33932828
 21
30.12447980000001
 31
0.0
  0
LINE
  5
17D
330
70
100
AcDbEntity
  8
house_laserCut_Pinslot v1_Layer 1
100
AcDbLine
 10
27.3539902
 20
29.14083931999999
 30
0.0
 11
27.66848348000001
 21
29.31126875999999
 31
0.0
  0
LINE
  5
17E
330
70
100
AcDbEntity
  8
house_laserCut_Pinslot v1_Layer 1
100
AcDbLine
 10
28.44722732
 20
26.77491148
 30
0.0
 11
28.4848494
 21
27.14735259999999
 31
0.0
  0
LINE
  5
17F
330
70
100
AcDbEntity
  8
house_laserCut_Pinslot v1_Layer 1
100
AcDbLine
 10
15.16395339999999
 20
40.1626006
 30
0.0
 11
29.24390539999999
 21
40.1626006
 31
0.0
  0
LINE
  5
180
330
70
100
AcDbEntity
  8
house_laserCut_Pinslot v1_Layer 1
100
AcDbLine
 10
17.83256613866155
 20
30.24607517398872
 30
1.026589439916313
 11
17.53256613866154
 21
30.24607517398872
 31
1.026589439916313
  0
LINE
  5
181
330
70
100
AcDbEntity
  8
house_laserCut_Pinslot v1_Layer 1
100
AcDbLine
 10
28.16860475999999
 20
31.87713275999999
 30
0.0
 11
27.94250636
 21
32.15067867999999
 31
0.0
  0
LINE
  5
182
330
70
100
AcDbEntity
  8
house_laserCut_Pinslot v1_Layer 1
100
AcDbLine
 10
27.66848492000001
 20
24.98340123999999
 30
0.0
 11
27.35399147999999
 21
25.15382875999998
 31
0.0
  0
LINE
  5
183
330
70
100
AcDbEntity
  8
house_laserCut_Pinslot v1_Layer 1
100
AcDbLine
 10
27.35399147999999
 20
32.54681323999999
 30
0.0
 11
27.00647724
 21
32.65452507999999
 31
0.0
  0
LINE
  5
184
330
70
100
AcDbEntity
  8
house_laserCut_Pinslot v1_Layer 1
100
AcDbLine
 10
27.66848348000001
 20
29.31126875999999
 30
0.0
 11
27.94250524
 21
29.53697739999999
 31
0.0
  0
LINE
  5
185
330
70
100
AcDbEntity
  8
house_laserCut_Pinslot v1_Layer 1
100
AcDbLine
 10
17.53256613866154
 20
31.84610717398872
 30
1.026589439916313
 11
17.83256613866155
 21
31.84610717398872
 31
1.026589439916313
  0
ENDSEC
  0
SECTION
  2
OBJECTS
  0
DICTIONARY
  5
C
330
0
100
AcDbDictionary
281
     1
  3
ACAD_COLOR
350
63
  3
ACAD_DETAILVIEWSTYLE
350
6A
  3
ACAD_GROUP
350
D
  3
ACAD_LAYOUT
350
62
  3
ACAD_MATERIAL
350
10
  3
ACAD_MLEADERSTYLE
350
66
  3
ACAD_MLINESTYLE
350
5F
  3
ACAD_PLOTSETTINGS
350
61
  3
ACAD_PLOTSTYLENAME
350
E
  3
ACAD_SCALELIST
350
42
  3
ACAD_SECTIONVIEWSTYLE
350
68
  3
ACAD_TABLESTYLE
350
64
  3
ACAD_VISUALSTYLE
350
29
  3
ACDB_RECOMPOSE_DATA
350
18E
  3
AcDbVariableDictionary
350
186
  0
DICTIONARY
  5
63
102
{ACAD_REACTORS
330
C
102
}
330
C
100
AcDbDictionary
281
     1
  0
DICTIONARY
  5
6A
102
{ACAD_REACTORS
330
C
102
}
330
C
100
AcDbDictionary
281
     1
  3
Imperial24
350
6B
  0
DICTIONARY
  5
D
102
{ACAD_REACTORS
330
C
102
}
330
C
100
AcDbDictionary
281
     1
  0
DICTIONARY
  5
62
102
{ACAD_REACTORS
330
C
102
}
330
C
100
AcDbDictionary
281
     1
  3
Layout1
350
6F
  3
Layout2
350
77
  3
Model
350
73
  0
DICTIONARY
  5
10
102
{ACAD_REACTORS
330
C
102
}
330
C
100
AcDbDictionary
281
     1
  3
ByBlock
350
19
  3
ByLayer
350
11
  3
Global
350
21
  0
DICTIONARY
  5
66
102
{ACAD_REACTORS
330
C
102
}
330
C
100
AcDbDictionary
281
     1
  3
Standard
350
67
  0
DICTIONARY
  5
5F
102
{ACAD_REACTORS
330
C
102
}
330
C
100
AcDbDictionary
281
     1
  3
Standard
350
60
  0
DICTIONARY
  5
61
102
{ACAD_REACTORS
330
C
102
}
330
C
100
AcDbDictionary
281
     1
  0
ACDBDICTIONARYWDFLT
  5
E
102
{ACAD_REACTORS
330
C
102
}
330
C
100
AcDbDictionary
281
     1
  3
Normal
350
F
100
AcDbDictionaryWithDefault
340
F
  0
DICTIONARY
  5
42
102
{ACAD_REACTORS
330
C
102
}
330
C
100
AcDbDictionary
281
     1
  3
A0
350
43
  3
A1
350
44
  3
A2
350
45
  3
A3
350
46
  3
A4
350
47
  3
A5
350
48
  3
A6
350
49
  3
A7
350
4A
  3
A8
350
4B
  3
A9
350
4C
  3
B0
350
4D
  3
B1
350
4E
  3
B2
350
4F
  3
B3
350
50
  3
B4
350
51
  3
B5
350
52
  3
B6
350
53
  0
DICTIONARY
  5
68
102
{ACAD_REACTORS
330
C
102
}
330
C
100
AcDbDictionary
281
     1
  3
Imperial24
350
69
  0
DICTIONARY
  5
64
102
{ACAD_REACTORS
330
C
102
}
330
C
100
AcDbDictionary
281
     1
  3
Standard
350
65
  0
DICTIONARY
  5
29
102
{ACAD_REACTORS
330
C
102
}
330
C
100
AcDbDictionary
281
     1
  3
2dWireframe
350
2F
  3
Basic
350
2E
  3
Brighten
350
35
  3
ColorChange
350
39
  3
Conceptual
350
32
  3
Dim
350
34
  3
EdgeColorOff
350
41
  3
Facepattern
350
38
  3
Flat
350
2A
  3
FlatWithEdges
350
2B
  3
Gouraud
350
2C
  3
GouraudWithEdges
350
2D
  3
Hidden
350
31
  3
JitterOff
350
3F
  3
Linepattern
350
37
  3
OverhangOff
350
40
  3
Realistic
350
33
  3
Shaded
350
3E
  3
Shaded with edges
350
3D
  3
Shades of Gray
350
3A
  3
Sketchy
350
3B
  3
Thicken
350
36
  3
Wireframe
350
30
  3
X-Ray
350
3C
  0
XRECORD
  5
18E
102
{ACAD_REACTORS
330
C
102
}
330
C
100
AcDbXrecord
280
     1
 90
        1
330
65
  0
DICTIONARY
  5
186
102
{ACAD_REACTORS
330
C
102
}
330
C
100
AcDbDictionary
281
     1
  3
CANNOSCALE
350
18B
  3
CMLEADERSTYLE
350
188
  3
CTABLESTYLE
350
187
  3
CVIEWDETAILSTYLE
350
189
  3
CVIEWSECTIONSTYLE
350
18A
  0
ACDBDETAILVIEWSTYLE
  5
6B
102
{ACAD_XDICTIONARY
360
191
102
}
102
{ACAD_REACTORS
330
6A
102
}
330
6A
100
AcDbModelDocViewStyle
 70
     0
  3
Imperial24
290
     0
100
AcDbDetailViewStyle
 70
     0
 71
     0
 90
        3
 71
     1
340
55
 62
   256
 40
0.24
340
0
 62
   256
 40
0.24
300

 40
0.36
280
     3
 71
     2
340
5D
 90
       25
 62
   256
 71
     3
340
55
 62
   256
 40
0.24
 90
        1
 40
0.75
 90
        1
300
%<\AcVar ViewType \f "%tc1">% %<\AcVar ViewDetailId>%\PSCALE %<\AcVar ViewScale \f "%sn">%
 71
     4
340
5D
 90
       25
 62
   256
340
5D
 90
       25
 62
   256
280
     0
  0
LAYOUT
  5
6F
102
{ACAD_REACTORS
330
62
102
}
330
62
100
AcDbPlotSettings
  1

  2

  4

  6

 40
0.0
 41
0.0
 42
0.0
 43
0.0
 44
0.0
 45
0.0
 46
0.0
 47
0.0
 48
0.0
 49
0.0
140
0.0
141
0.0
142
1.0
143
1.0
 70
   688
 72
     0
 73
     0
 74
     5
  7

 75
    16
147
1.0
 76
     0
 77
     2
 78
   300
148
0.0
149
0.0
100
AcDbLayout
  1
Layout1
 70
     1
 71
     1
 10
0.0
 20
0.0
 11
12.0
 21
9.0
 12
0.0
 22
0.0
 32
0.0
 14
0.0
 24
0.0
 34
0.0
 15
0.0
 25
0.0
 35
0.0
146
0.0
 13
0.0
 23
0.0
 33
0.0
 16
1.0
 26
0.0
 36
0.0
 17
0.0
 27
1.0
 37
0.0
 76
     0
330
6C
  0
LAYOUT
  5
77
102
{ACAD_REACTORS
330
62
102
}
330
62
100
AcDbPlotSettings
  1

  2

  4

  6

 40
0.0
 41
0.0
 42
0.0
 43
0.0
 44
0.0
 45
0.0
 46
0.0
 47
0.0
 48
0.0
 49
0.0
140
0.0
141
0.0
142
1.0
143
1.0
 70
   688
 72
     0
 73
     0
 74
     5
  7

 75
    16
147
1.0
 76
     0
 77
     2
 78
   300
148
0.0
149
0.0
100
AcDbLayout
  1
Layout2
 70
     1
 71
     2
 10
0.0
 20
0.0
 11
12.0
 21
9.0
 12
0.0
 22
0.0
 32
0.0
 14
0.0
 24
0.0
 34
0.0
 15
0.0
 25
0.0
 35
0.0
146
0.0
 13
0.0
 23
0.0
 33
0.0
 16
1.0
 26
0.0
 36
0.0
 17
0.0
 27
1.0
 37
0.0
 76
     0
330
74
  0
LAYOUT
  5
73
102
{ACAD_REACTORS
330
62
102
}
330
62
100
AcDbPlotSettings
  1

  2

  4

  6

 40
0.0
 41
0.0
 42
0.0
 43
0.0
 44
0.0
 45
0.0
 46
0.0
 47
0.0
 48
0.0
 49
0.0
140
0.0
141
0.0
142
1.0
143
1.0
 70
  1712
 72
     0
 73
     0
 74
     0
  7

 75
     0
147
1.0
 76
     0
 77
     2
 78
   300
148
0.0
149
0.0
100
AcDbLayout
  1
Model
 70
     1
 71
     0
 10
0.0
 20
0.0
 11
12.0
 21
9.0
 12
0.0
 22
0.0
 32
0.0
 14
0.0
 24
0.0
 34
0.0
 15
0.0
 25
0.0
 35
0.0
146
0.0
 13
0.0
 23
0.0
 33
0.0
 16
1.0
 26
0.0
 36
0.0
 17
0.0
 27
1.0
 37
0.0
 76
     0
330
70
  0
MATERIAL
  5
19
102
{ACAD_XDICTIONARY
360
1A
102
}
102
{ACAD_REACTORS
330
10
102
}
330
10
100
AcDbMaterial
  1
ByBlock
 72
     0
 43
0.0208333333333333
 43
0.0
 43
0.0
 43
0.0
 43
0.0
 43
0.0208333333333333
 43
0.0
 43
0.0
 43
0.0
 43
0.0
 43
1.0
 43
0.0
 43
0.0
 43
0.0
 43
0.0
 43
1.0
 77
     0
 47
0.0208333333333333
 47
0.0
 47
0.0
 47
0.0
 47
0.0
 47
0.0208333333333333
 47
0.0
 47
0.0
 47
0.0
 47
0.0
 47
1.0
 47
0.0
 47
0.0
 47
0.0
 47
0.0
 47
1.0
171
     0
 49
0.0208333333333333
 49
0.0
 49
0.0
 49
0.0
 49
0.0
 49
0.0208333333333333
 49
0.0
 49
0.0
 49
0.0
 49
0.0
 49
1.0
 49
0.0
 49
0.0
 49
0.0
 49
0.0
 49
1.0
175
     0
142
0.0208333333333333
142
0.0
142
0.0
142
0.0
142
0.0
142
0.0208333333333333
142
0.0
142
0.0
142
0.0
142
0.0
142
1.0
142
0.0
142
0.0
142
0.0
142
0.0
142
1.0
179
     0
144
0.0208333333333333
144
0.0
144
0.0
144
0.0
144
0.0
144
0.0208333333333333
144
0.0
144
0.0
144
0.0
144
0.0
144
1.0
144
0.0
144
0.0
144
0.0
144
0.0
144
1.0
147
0.0208333333333333
147
0.0
147
0.0
147
0.0
147
0.0
147
0.0208333333333333
147
0.0
147
0.0
147
0.0
147
0.0
147
1.0
147
0.0
147
0.0
147
0.0
147
0.0
147
1.0
  0
MATERIAL
  5
11
102
{ACAD_XDICTIONARY
360
12
102
}
102
{ACAD_REACTORS
330
10
102
}
330
10
100
AcDbMaterial
  1
ByLayer
 72
     0
 43
0.0208333333333333
 43
0.0
 43
0.0
 43
0.0
 43
0.0
 43
0.0208333333333333
 43
0.0
 43
0.0
 43
0.0
 43
0.0
 43
1.0
 43
0.0
 43
0.0
 43
0.0
 43
0.0
 43
1.0
 77
     0
 47
0.0208333333333333
 47
0.0
 47
0.0
 47
0.0
 47
0.0
 47
0.0208333333333333
 47
0.0
 47
0.0
 47
0.0
 47
0.0
 47
1.0
 47
0.0
 47
0.0
 47
0.0
 47
0.0
 47
1.0
171
     0
 49
0.0208333333333333
 49
0.0
 49
0.0
 49
0.0
 49
0.0
 49
0.0208333333333333
 49
0.0
 49
0.0
 49
0.0
 49
0.0
 49
1.0
 49
0.0
 49
0.0
 49
0.0
 49
0.0
 49
1.0
175
     0
142
0.0208333333333333
142
0.0
142
0.0
142
0.0
142
0.0
142
0.0208333333333333
142
0.0
142
0.0
142
0.0
142
0.0
142
1.0
142
0.0
142
0.0
142
0.0
142
0.0
142
1.0
179
     0
144
0.0208333333333333
144
0.0
144
0.0
144
0.0
144
0.0
144
0.0208333333333333
144
0.0
144
0.0
144
0.0
144
0.0
144
1.0
144
0.0
144
0.0
144
0.0
144
0.0
144
1.0
147
0.0208333333333333
147
0.0
147
0.0
147
0.0
147
0.0
147
0.0208333333333333
147
0.0
147
0.0
147
0.0
147
0.0
147
1.0
147
0.0
147
0.0
147
0.0
147
0.0
147
1.0
  0
MATERIAL
  5
21
102
{ACAD_XDICTIONARY
360
22
102
}
102
{ACAD_REACTORS
330
10
102
}
330
10
100
AcDbMaterial
  1
Global
 72
     0
 43
0.0208333333333333
 43
0.0
 43
0.0
 43
0.0
 43
0.0
 43
0.0208333333333333
 43
0.0
 43
0.0
 43
0.0
 43
0.0
 43
1.0
 43
0.0
 43
0.0
 43
0.0
 43
0.0
 43
1.0
 77
     0
 47
0.0208333333333333
 47
0.0
 47
0.0
 47
0.0
 47
0.0
 47
0.0208333333333333
 47
0.0
 47
0.0
 47
0.0
 47
0.0
 47
1.0
 47
0.0
 47
0.0
 47
0.0
 47
0.0
 47
1.0
171
     0
 49
0.0208333333333333
 49
0.0
 49
0.0
 49
0.0
 49
0.0
 49
0.0208333333333333
 49
0.0
 49
0.0
 49
0.0
 49
0.0
 49
1.0
 49
0.0
 49
0.0
 49
0.0
 49
0.0
 49
1.0
175
     0
142
0.0208333333333333
142
0.0
142
0.0
142
0.0
142
0.0
142
0.0208333333333333
142
0.0
142
0.0
142
0.0
142
0.0
142
1.0
142
0.0
142
0.0
142
0.0
142
0.0
142
1.0
179
     0
144
0.0208333333333333
144
0.0
144
0.0
144
0.0
144
0.0
144
0.0208333333333333
144
0.0
144
0.0
144
0.0
144
0.0
144
1.0
144
0.0
144
0.0
144
0.0
144
0.0
144
1.0
147
0.0208333333333333
147
0.0
147
0.0
147
0.0
147
0.0
147
0.0208333333333333
147
0.0
147
0.0
147
0.0
147
0.0
147
1.0
147
0.0
147
0.0
147
0.0
147
0.0
147
1.0
  0
MLEADERSTYLE
  5
67
102
{ACAD_REACTORS
330
66
102
}
330
66
100
AcDbMLeaderStyle
179
     2
170
     2
171
     1
172
     0
 90
        2
 40
0.0
 41
0.0
173
     1
 91
-1056964608
340
5B
 92
       -2
290
     1
 42
0.09
291
     1
 43
0.36
  3
Standard
 44
0.18
300

342
55
174
     1
178
     6
175
     1
176
     0
 93
-1056964608
 45
0.18
292
     0
297
     0
 46
0.18
 94
-1056964608
 47
1.0
 49
1.0
140
1.0
293
     1
141
0.0
294
     1
177
     0
142
1.0
295
     0
296
     0
143
0.125
271
     0
272
     9
273
     9
298
     1
  0
MLINESTYLE
  5
60
102
{ACAD_REACTORS
330
5F
102
}
330
5F
100
AcDbMlineStyle
  2
STANDARD
 70
     0
  3

 62
   256
 51
90.0
 52
90.0
 71
     2
 49
0.5
 62
   256
  6
BYLAYER
 49
-0.5
 62
   256
  6
BYLAYER
  0
ACDBPLACEHOLDER
  5
F
102
{ACAD_REACTORS
330
E
102
}
330
E
  0
SCALE
  5
43
102
{ACAD_REACTORS
330
42
102
}
330
42
100
AcDbScale
 70
     0
300
1:1
140
1.0
141
1.0
290
     1
  0
SCALE
  5
44
102
{ACAD_REACTORS
330
42
102
}
330
42
100
AcDbScale
 70
     0
300
1/128" = 1'-0"
140
0.0078125
141
12.0
290
     0
  0
SCALE
  5
45
102
{ACAD_REACTORS
330
42
102
}
330
42
100
AcDbScale
 70
     0
300
1/64" = 1'-0"
140
0.015625
141
12.0
290
     0
  0
SCALE
  5
46
102
{ACAD_REACTORS
330
42
102
}
330
42
100
AcDbScale
 70
     0
300
1/32" = 1'-0"
140
0.03125
141
12.0
290
     0
  0
SCALE
  5
47
102
{ACAD_REACTORS
330
42
102
}
330
42
100
AcDbScale
 70
     0
300
1/16" = 1'-0"
140
0.0625
141
12.0
290
     0
  0
SCALE
  5
48
102
{ACAD_REACTORS
330
42
102
}
330
42
100
AcDbScale
 70
     0
300
3/32" = 1'-0"
140
0.09375
141
12.0
290
     0
  0
SCALE
  5
49
102
{ACAD_REACTORS
330
42
102
}
330
42
100
AcDbScale
 70
     0
300
1/8" = 1'-0"
140
0.125
141
12.0
290
     0
  0
SCALE
  5
4A
102
{ACAD_REACTORS
330
42
102
}
330
42
100
AcDbScale
 70
     0
300
3/16" = 1'-0"
140
0.1875
141
12.0
290
     0
  0
SCALE
  5
4B
102
{ACAD_REACTORS
330
42
102
}
330
42
100
AcDbScale
 70
     0
300
1/4" = 1'-0"
140
0.25
141
12.0
290
     0
  0
SCALE
  5
4C
102
{ACAD_REACTORS
330
42
102
}
330
42
100
AcDbScale
 70
     0
300
3/8" = 1'-0"
140
0.375
141
12.0
290
     0
  0
SCALE
  5
4D
102
{ACAD_REACTORS
330
42
102
}
330
42
100
AcDbScale
 70
     0
300
1/2" = 1'-0"
140
0.5
141
12.0
290
     0
  0
SCALE
  5
4E
102
{ACAD_REACTORS
330
42
102
}
330
42
100
AcDbScale
 70
     0
300
3/4" = 1'-0"
140
0.75
141
12.0
290
     0
  0
SCALE
  5
4F
102
{ACAD_REACTORS
330
42
102
}
330
42
100
AcDbScale
 70
     0
300
1" = 1'-0"
140
1.0
141
12.0
290
     0
  0
SCALE
  5
50
102
{ACAD_REACTORS
330
42
102
}
330
42
100
AcDbScale
 70
     0
300
1-1/2" = 1'-0"
140
1.5
141
12.0
290
     0
  0
SCALE
  5
51
102
{ACAD_REACTORS
330
42
102
}
330
42
100
AcDbScale
 70
     0
300
3" = 1'-0"
140
3.0
141
12.0
290
     0
  0
SCALE
  5
52
102
{ACAD_REACTORS
330
42
102
}
330
42
100
AcDbScale
 70
     0
300
6" = 1'-0"
140
6.0
141
12.0
290
     0
  0
SCALE
  5
53
102
{ACAD_REACTORS
330
42
102
}
330
42
100
AcDbScale
 70
     0
300
1'-0" = 1'-0"
140
12.0
141
12.0
290
     0
  0
ACDBSECTIONVIEWSTYLE
  5
69
102
{ACAD_XDICTIONARY
360
18F
102
}
102
{ACAD_REACTORS
330
68
102
}
330
68
100
AcDbModelDocViewStyle
 70
     0
  3
Imperial24
290
     0
100
AcDbSectionViewStyle
 70
     0
 71
     0
 90
       78
 71
     1
340
55
 62
   256
 40
0.24
340
0
340
0
 62
   256
 40
0.24
300
I, O, Q, S, X, Z
 40
0.48
 90
        3
 40
0.18
 90
        1
 71
     2
340
5D
 90
       25
 62
   256
340
5D
 90
       50
 62
   256
 40
0.24
 40
0.0
 40
0.24
 71
     3
340
55
 62
   256
 40
0.24
 90
        1
 40
0.75
 90
        1
300
%<\AcVar ViewType \f "%tc1">% %<\AcVar ViewSectionStartId>%-%<\AcVar ViewSectionEndId>%\PSCALE %<\AcVar ViewScale \f "%sn">%
 71
     4
 62
   256
 62
   257
300
ANSI31
 40
1.0
 90
        0
290
     0
290
     0
 90
        6
 40
0.0
 40
1.570796326794896
 40
0.2617993877991494
 40
1.308996938995747
 40
-0.2617993877991494
 40
1.832595714594046
  0
TABLESTYLE
  5
65
102
{ACAD_XDICTIONARY
360
18C
102
}
102
{ACAD_REACTORS
330
64
102
}
330
64
100
AcDbTableStyle
280
     0
  3
Standard
 70
     0
 71
     0
 40
0.06
 41
0.06
280
     0
281
     0
  7
Standard
140
0.18
170
     2
 62
     0
 63
     7
283
     0
 90
      512
 91
        0
  1

274
    -2
284
     1
 64
     0
275
    -2
285
     1
 65
     0
276
    -2
286
     1
 66
     0
277
    -2
287
     1
 67
     0
278
    -2
288
     1
 68
     0
279
    -2
289
     1
 69
     0
  7
Standard
140
0.25
170
     5
 62
     0
 63
     7
283
     0
 90
      512
 91
        0
  1

274
    -2
284
     1
 64
     0
275
    -2
285
     1
 65
     0
276
    -2
286
     1
 66
     0
277
    -2
287
     1
 67
     0
278
    -2
288
     1
 68
     0
279
    -2
289
     1
 69
     0
  7
Standard
140
0.18
170
     5
 62
     0
 63
     7
283
     0
 90
      512
 91
        0
  1

274
    -2
284
     1
 64
     0
275
    -2
285
     1
 65
     0
276
    -2
286
     1
 66
     0
277
    -2
287
     1
 67
     0
278
    -2
288
     1
 68
     0
279
    -2
289
     1
 69
     0
  0
VISUALSTYLE
  5
2F
102
{ACAD_REACTORS
330
29
102
}
330
29
100
AcDbVisualStyle
  2
2dWireframe
 70
     4
177
     3
291
     0
 70
    58
 90
        0
176
     1
 90
        2
176
     1
 90
        0
176
     1
 90
        0
176
     1
 40
0.6
176
     1
 40
30.0
176
     1
 62
     7
420
 16777215
176
     1
 90
        1
176
     1
 90
        4
176
     1
 62
     7
176
     1
 62
   257
176
     1
 90
        1
176
     1
 90
        1
176
     1
 40
1.0
176
     1
 90
        0
176
     1
 62
   257
176
     1
 40
1.0
176
     1
 90
        1
176
     1
 90
        6
176
     1
 90
        2
176
     1
 62
     7
176
     1
 90
        5
176
     1
 90
        0
176
     1
 90
        0
176
     1
290
     0
176
     1
 90
        1
176
     1
 40
0.0
176
     1
 90
        0
176
     1
290
     1
176
     1
290
     1
176
     1
290
     0
176
     1
290
     0
176
     1
290
     0
176
     1
290
     0
176
     1
290
     0
176
     1
290
     0
176
     1
290
     0
176
     1
 90
       50
176
     1
 40
0.0
176
     1
 40
1.0
176
     1
 90
        0
176
     1
 62
    18
420
        0
176
     1
 90
       50
176
     1
 90
        3
176
     1
 62
     5
420
      255
176
     1
290
     0
176
     1
 90
       50
176
     1
 90
       50
176
     1
 90
       50
176
     1
290
     0
176
     1
 90
       50
176
     1
 62
   256
176
     0
 40
1.0
176
     0
 90
        2
176
     1
  1
strokes_ogs.tif
176
     1
290
     0
176
     1
 40
1.0
176
     1
 40
1.0
176
     1
1001
ACAD
1000
AcDbSavedByObjectVersion
1070
     0
  0
VISUALSTYLE
  5
2E
102
{ACAD_REACTORS
330
29
102
}
330
29
100
AcDbVisualStyle
  2
Basic
 70
     7
177
     3
291
     1
 70
    58
 90
        1
176
     1
 90
        0
176
     1
 90
        1
176
     1
 90
        0
176
     1
 40
0.6
176
     1
 40
30.0
176
     1
 62
     7
420
 16777215
176
     1
 90
        0
176
     1
 90
        4
176
     1
 62
     7
176
     1
 62
   257
176
     1
 90
        1
176
     1
 90
        1
176
     1
 40
1.0
176
     1
 90
        8
176
     1
 62
     7
176
     1
 40
1.0
176
     1
 90
        1
176
     1
 90
        6
176
     1
 90
        2
176
     1
 62
     7
176
     1
 90
        5
176
     1
 90
        0
176
     1
 90
        0
176
     1
290
     0
176
     1
 90
        1
176
     1
 40
0.0
176
     1
 90
        0
176
     1
290
     0
176
     1
290
     1
176
     1
290
     1
176
     1
290
     0
176
     1
290
     0
176
     1
290
     0
176
     1
290
     0
176
     1
290
     0
176
     1
290
     0
176
     1
 90
       50
176
     1
 40
0.0
176
     1
 40
1.0
176
     1
 90
        0
176
     1
 62
    18
420
        0
176
     1
 90
       50
176
     1
 90
        3
176
     1
 62
     5
420
      255
176
     1
290
     0
176
     1
 90
       50
176
     1
 90
       50
176
     1
 90
       50
176
     1
290
     0
176
     1
 90
       50
176
     1
 62
   256
176
     0
 40
1.0
176
     0
 90
        2
176
     1
  1
strokes_ogs.tif
176
     1
290
     0
176
     1
 40
1.0
176
     1
 40
1.0
176
     1
1001
ACAD
1000
AcDbSavedByObjectVersion
1070
     0
  0
VISUALSTYLE
  5
35
102
{ACAD_REACTORS
330
29
102
}
330
29
100
AcDbVisualStyle
  2
Brighten
 70
    12
177
     3
291
     1
 70
    58
 90
        2
176
     1
 90
        2
176
     1
 90
        0
176
     1
 90
        0
176
     1
 40
0.6
176
     1
 40
30.0
176
     1
 62
     7
420
 16777215
176
     1
 90
        1
176
     1
 90
        4
176
     1
 62
     7
176
     1
 62
   257
176
     1
 90
        1
176
     1
 90
        1
176
     1
 40
1.0
176
     1
 90
        8
176
     1
 62
     7
176
     1
 40
1.0
176
     1
 90
        1
176
     1
 90
        6
176
     1
 90
        2
176
     1
 62
     7
176
     1
 90
        5
176
     1
 90
        0
176
     1
 90
        0
176
     1
290
     0
176
     1
 90
        1
176
     1
 40
50.0
176
     1
 90
        0
176
     1
290
     0
176
     1
290
     1
176
     1
290
     1
176
     1
290
     0
176
     1
290
     0
176
     1
290
     0
176
     1
290
     0
176
     1
290
     0
176
     1
290
     0
176
     1
 90
       50
176
     1
 40
0.0
176
     1
 40
1.0
176
     1
 90
        0
176
     1
 62
    18
420
        0
176
     1
 90
       50
176
     1
 90
        3
176
     1
 62
     5
420
      255
176
     1
290
     0
176
     1
 90
       50
176
     1
 90
       50
176
     1
 90
       50
176
     1
290
     0
176
     1
 90
       50
176
     1
 62
   256
176
     0
 40
1.0
176
     0
 90
        2
176
     1
  1
strokes_ogs.tif
176
     1
290
     0
176
     1
 40
1.0
176
     1
 40
1.0
176
     1
1001
ACAD
1000
AcDbSavedByObjectVersion
1070
     0
  0
VISUALSTYLE
  5
39
102
{ACAD_REACTORS
330
29
102
}
330
29
100
AcDbVisualStyle
  2
ColorChange
 70
    16
177
     3
291
     1
 70
    58
 90
        2
176
     1
 90
        2
176
     1
 90
        3
176
     1
 90
        0
176
     1
 40
0.6
176
     1
 40
30.0
176
     1
 62
     8
420
  8421504
176
     1
 90
        1
176
     1
 90
        4
176
     1
 62
     7
176
     1
 62
   257
176
     1
 90
        1
176
     1
 90
        1
176
     1
 40
1.0
176
     1
 90
        8
176
     1
 62
     8
420
  8421504
176
     1
 40
1.0
176
     1
 90
        1
176
     1
 90
        6
176
     1
 90
        2
176
     1
 62
     7
176
     1
 90
        5
176
     1
 90
        0
176
     1
 90
        0
176
     1
290
     0
176
     1
 90
        1
176
     1
 40
0.0
176
     1
 90
        0
176
     1
290
     0
176
     1
290
     1
176
     1
290
     1
176
     1
290
     0
176
     1
290
     0
176
     1
290
     0
176
     1
290
     0
176
     1
290
     0
176
     1
290
     0
176
     1
 90
       50
176
     1
 40
0.0
176
     1
 40
1.0
176
     1
 90
        0
176
     1
 62
    18
420
        0
176
     1
 90
       50
176
     1
 90
        3
176
     1
 62
     5
420
      255
176
     1
290
     0
176
     1
 90
       50
176
     1
 90
       50
176
     1
 90
       50
176
     1
290
     0
176
     1
 90
       50
176
     1
 62
   256
176
     0
 40
1.0
176
     0
 90
        2
176
     1
  1
strokes_ogs.tif
176
     1
290
     0
176
     1
 40
1.0
176
     1
 40
1.0
176
     1
1001
ACAD
1000
AcDbSavedByObjectVersion
1070
     0
  0
VISUALSTYLE
  5
32
102
{ACAD_REACTORS
330
29
102
}
330
29
100
AcDbVisualStyle
  2
Conceptual
 70
     9
177
     3
291
     0
 70
    58
 90
        3
176
     1
 90
        2
176
     1
 90
        0
176
     1
 90
        0
176
     1
 40
0.6
176
     1
 40
30.0
176
     1
 62
     7
420
 16777215
176
     1
 90
        2
176
     1
 90
        2
176
     1
 62
     7
176
     1
 62
   257
176
     1
 90
        1
176
     1
 90
        1
176
     1
 40
179.0
176
     1
 90
        8
176
     1
 62
     7
176
     1
 40
1.0
176
     1
 90
        1
176
     1
 90
        6
176
     1
 90
        2
176
     1
 62
     7
176
     1
 90
        3
176
     1
 90
        0
176
     1
 90
        0
176
     1
290
     0
176
     1
 90
        1
176
     1
 40
0.0
176
     1
 90
        0
176
     1
290
     0
176
     1
290
     1
176
     1
290
     1
176
     1
290
     0
176
     1
290
     0
176
     1
290
     0
176
     1
290
     0
176
     1
290
     0
176
     1
290
     0
176
     1
 90
       50
176
     1
 40
0.0
176
     1
 40
1.0
176
     1
 90
        0
176
     1
 62
    18
420
        0
176
     1
 90
       50
176
     1
 90
        3
176
     1
 62
     5
420
      255
176
     1
290
     0
176
     1
 90
       50
176
     1
 90
       50
176
     1
 90
       50
176
     1
290
     0
176
     1
 90
       50
176
     1
 62
   256
176
     0
 40
1.0
176
     0
 90
        2
176
     1
  1
strokes_ogs.tif
176
     1
290
     0
176
     1
 40
1.0
176
     1
 40
1.0
176
     1
1001
ACAD
1000
AcDbSavedByObjectVersion
1070
     0
  0
VISUALSTYLE
  5
34
102
{ACAD_REACTORS
330
29
102
}
330
29
100
AcDbVisualStyle
  2
Dim
 70
    11
177
     3
291
     1
 70
    58
 90
        2
176
     1
 90
        2
176
     1
 90
        0
176
     1
 90
        0
176
     1
 40
0.6
176
     1
 40
30.0
176
     1
 62
     7
420
 16777215
176
     1
 90
        1
176
     1
 90
        4
176
     1
 62
     7
176
     1
 62
   257
176
     1
 90
        1
176
     1
 90
        1
176
     1
 40
1.0
176
     1
 90
        8
176
     1
 62
     7
176
     1
 40
1.0
176
     1
 90
        1
176
     1
 90
        6
176
     1
 90
        2
176
     1
 62
     7
176
     1
 90
        5
176
     1
 90
        0
176
     1
 90
        0
176
     1
290
     0
176
     1
 90
        1
176
     1
 40
-50.0
176
     1
 90
        0
176
     1
290
     0
176
     1
290
     1
176
     1
290
     1
176
     1
290
     0
176
     1
290
     0
176
     1
290
     0
176
     1
290
     0
176
     1
290
     0
176
     1
290
     0
176
     1
 90
       50
176
     1
 40
0.0
176
     1
 40
1.0
176
     1
 90
        0
176
     1
 62
    18
420
        0
176
     1
 90
       50
176
     1
 90
        3
176
     1
 62
     5
420
      255
176
     1
290
     0
176
     1
 90
       50
176
     1
 90
       50
176
     1
 90
       50
176
     1
290
     0
176
     1
 90
       50
176
     1
 62
   256
176
     0
 40
1.0
176
     0
 90
        2
176
     1
  1
strokes_ogs.tif
176
     1
290
     0
176
     1
 40
1.0
176
     1
 40
1.0
176
     1
1001
ACAD
1000
AcDbSavedByObjectVersion
1070
     0
  0
VISUALSTYLE
  5
41
102
{ACAD_REACTORS
330
29
102
}
330
29
100
AcDbVisualStyle
  2
EdgeColorOff
 70
    22
177
     3
291
     1
 70
    58
 90
        2
176
     0
 90
        2
176
     0
 90
        0
176
     0
 90
        0
176
     0
 40
0.6
176
     0
 40
30.0
176
     0
 62
     7
420
 16777215
176
     0
 90
        1
176
     0
 90
        4
176
     0
 62
     7
176
     0
 62
   257
176
     0
 90
        1
176
     0
 90
        1
176
     0
 40
1.0
176
     0
 90
        8
176
     2
 62
     7
176
     0
 40
1.0
176
     0
 90
        1
176
     0
 90
        6
176
     0
 90
        2
176
     0
 62
     7
176
     0
 90
        5
176
     0
 90
        0
176
     0
 90
        0
176
     0
290
     0
176
     0
 90
        1
176
     0
 40
0.0
176
     0
 90
        0
176
     0
290
     0
176
     0
290
     1
176
     0
290
     1
176
     0
290
     0
176
     0
290
     0
176
     0
290
     0
176
     0
290
     0
176
     0
290
     0
176
     0
290
     0
176
     0
 90
       50
176
     0
 40
0.0
176
     0
 40
1.0
176
     0
 90
        0
176
     0
 62
    18
420
        0
176
     0
 90
       50
176
     0
 90
        3
176
     0
 62
     5
420
      255
176
     0
290
     0
176
     0
 90
       50
176
     0
 90
       50
176
     0
 90
       50
176
     0
290
     0
176
     0
 90
       50
176
     0
 62
   256
176
     0
 40
1.0
176
     0
 90
        2
176
     0
  1
strokes_ogs.tif
176
     0
290
     0
176
     0
 40
1.0
176
     0
 40
1.0
176
     0
1001
ACAD
1000
AcDbSavedByObjectVersion
1070
     0
  0
VISUALSTYLE
  5
38
102
{ACAD_REACTORS
330
29
102
}
330
29
100
AcDbVisualStyle
  2
Facepattern
 70
    15
177
     3
291
     1
 70
    58
 90
        2
176
     1
 90
        2
176
     1
 90
        0
176
     1
 90
        0
176
     1
 40
0.6
176
     1
 40
30.0
176
     1
 62
     7
420
 16777215
176
     1
 90
        1
176
     1
 90
        4
176
     1
 62
     7
176
     1
 62
   257
176
     1
 90
        1
176
     1
 90
        1
176
     1
 40
1.0
176
     1
 90
        8
176
     1
 62
     7
176
     1
 40
1.0
176
     1
 90
        1
176
     1
 90
        6
176
     1
 90
        2
176
     1
 62
     7
176
     1
 90
        5
176
     1
 90
        0
176
     1
 90
        0
176
     1
290
     0
176
     1
 90
        1
176
     1
 40
0.0
176
     1
 90
        0
176
     1
290
     0
176
     1
290
     1
176
     1
290
     1
176
     1
290
     0
176
     1
290
     0
176
     1
290
     0
176
     1
290
     0
176
     1
290
     0
176
     1
290
     0
176
     1
 90
       50
176
     1
 40
0.0
176
     1
 40
1.0
176
     1
 90
        0
176
     1
 62
    18
420
        0
176
     1
 90
       50
176
     1
 90
        3
176
     1
 62
     5
420
      255
176
     1
290
     0
176
     1
 90
       50
176
     1
 90
       50
176
     1
 90
       50
176
     1
290
     0
176
     1
 90
       50
176
     1
 62
   256
176
     0
 40
1.0
176
     0
 90
        2
176
     1
  1
strokes_ogs.tif
176
     1
290
     0
176
     1
 40
1.0
176
     1
 40
1.0
176
     1
1001
ACAD
1000
AcDbSavedByObjectVersion
1070
     0
  0
VISUALSTYLE
  5
2A
102
{ACAD_REACTORS
330
29
102
}
330
29
100
AcDbVisualStyle
  2
Flat
 70
     0
177
     3
291
     1
 70
    58
 90
        2
176
     1
 90
        1
176
     1
 90
        1
176
     1
 90
        2
176
     1
 40
0.6
176
     1
 40
30.0
176
     1
 62
     7
420
 16777215
176
     1
 90
        0
176
     1
 90
        0
176
     1
 62
     7
176
     1
 62
   257
176
     1
 90
        1
176
     1
 90
        1
176
     1
 40
1.0
176
     1
 90
        8
176
     1
 62
     7
176
     1
 40
1.0
176
     1
 90
        1
176
     1
 90
        6
176
     1
 90
        2
176
     1
 62
     7
176
     1
 90
        5
176
     1
 90
        0
176
     1
 90
        0
176
     1
290
     0
176
     1
 90
       13
176
     1
 40
0.0
176
     1
 90
        0
176
     1
290
     0
176
     1
290
     1
176
     1
290
     1
176
     1
290
     0
176
     1
290
     0
176
     1
290
     0
176
     1
290
     0
176
     1
290
     0
176
     1
290
     0
176
     1
 90
       50
176
     1
 40
0.0
176
     1
 40
1.0
176
     1
 90
        0
176
     1
 62
    18
420
        0
176
     1
 90
       50
176
     1
 90
        3
176
     1
 62
     5
420
      255
176
     1
290
     0
176
     1
 90
       50
176
     1
 90
       50
176
     1
 90
       50
176
     1
290
     0
176
     1
 90
       50
176
     1
 62
   256
176
     0
 40
1.0
176
     0
 90
        2
176
     1
  1
strokes_ogs.tif
176
     1
290
     0
176
     1
 40
1.0
176
     1
 40
1.0
176
     1
1001
ACAD
1000
AcDbSavedByObjectVersion
1070
     0
  0
VISUALSTYLE
  5
2B
102
{ACAD_REACTORS
330
29
102
}
330
29
100
AcDbVisualStyle
  2
FlatWithEdges
 70
     1
177
     3
291
     1
 70
    58
 90
        2
176
     1
 90
        1
176
     1
 90
        1
176
     1
 90
        2
176
     1
 40
0.6
176
     1
 40
30.0
176
     1
 62
     7
420
 16777215
176
     1
 90
        1
176
     1
 90
        0
176
     1
 62
     7
176
     1
 62
   257
176
     1
 90
        1
176
     1
 90
        1
176
     1
 40
1.0
176
     1
 90
        0
176
     1
 62
   257
176
     1
 40
1.0
176
     1
 90
        1
176
     1
 90
        6
176
     1
 90
        2
176
     1
 62
     7
176
     1
 90
        5
176
     1
 90
        0
176
     1
 90
        0
176
     1
290
     0
176
     1
 90
       13
176
     1
 40
0.0
176
     1
 90
        0
176
     1
290
     0
176
     1
290
     1
176
     1
290
     1
176
     1
290
     0
176
     1
290
     0
176
     1
290
     0
176
     1
290
     0
176
     1
290
     0
176
     1
290
     0
176
     1
 90
       50
176
     1
 40
0.0
176
     1
 40
1.0
176
     1
 90
        0
176
     1
 62
    18
420
        0
176
     1
 90
       50
176
     1
 90
        3
176
     1
 62
     5
420
      255
176
     1
290
     0
176
     1
 90
       50
176
     1
 90
       50
176
     1
 90
       50
176
     1
290
     0
176
     1
 90
       50
176
     1
 62
   256
176
     0
 40
1.0
176
     0
 90
        2
176
     1
  1
strokes_ogs.tif
176
     1
290
     0
176
     1
 40
1.0
176
     1
 40
1.0
176
     1
1001
ACAD
1000
AcDbSavedByObjectVersion
1070
     0
  0
VISUALSTYLE
  5
2C
102
{ACAD_REACTORS
330
29
102
}
330
29
100
AcDbVisualStyle
  2
Gouraud
 70
     2
177
     3
291
     1
 70
    58
 90
        2
176
     1
 90
        2
176
     1
 90
        1
176
     1
 90
        2
176
     1
 40
0.6
176
     1
 40
30.0
176
     1
 62
     7
420
 16777215
176
     1
 90
        0
176
     1
 90
        0
176
     1
 62
     7
176
     1
 62
   257
176
     1
 90
        1
176
     1
 90
        1
176
     1
 40
1.0
176
     1
 90
        0
176
     1
 62
     7
176
     1
 40
1.0
176
     1
 90
        1
176
     1
 90
        6
176
     1
 90
        2
176
     1
 62
     7
176
     1
 90
        5
176
     1
 90
        0
176
     1
 90
        0
176
     1
290
     0
176
     1
 90
       13
176
     1
 40
0.0
176
     1
 90
        0
176
     1
290
     0
176
     1
290
     1
176
     1
290
     1
176
     1
290
     0
176
     1
290
     0
176
     1
290
     0
176
     1
290
     0
176
     1
290
     0
176
     1
290
     0
176
     1
 90
       50
176
     1
 40
0.0
176
     1
 40
1.0
176
     1
 90
        0
176
     1
 62
    18
420
        0
176
     1
 90
       50
176
     1
 90
        3
176
     1
 62
     5
420
      255
176
     1
290
     0
176
     1
 90
       50
176
     1
 90
       50
176
     1
 90
       50
176
     1
290
     0
176
     1
 90
       50
176
     1
 62
   256
176
     0
 40
1.0
176
     0
 90
        2
176
     1
  1
strokes_ogs.tif
176
     1
290
     0
176
     1
 40
1.0
176
     1
 40
1.0
176
     1
1001
ACAD
1000
AcDbSavedByObjectVersion
1070
     0
  0
VISUALSTYLE
  5
2D
102
{ACAD_REACTORS
330
29
102
}
330
29
100
AcDbVisualStyle
  2
GouraudWithEdges
 70
     3
177
     3
291
     1
 70
    58
 90
        2
176
     1
 90
        2
176
     1
 90
        1
176
     1
 90
        2
176
     1
 40
0.6
176
     1
 40
30.0
176
     1
 62
     7
420
 16777215
176
     1
 90
        1
176
     1
 90
        0
176
     1
 62
     7
176
     1
 62
   257
176
     1
 90
        1
176
     1
 90
        1
176
     1
 40
1.0
176
     1
 90
        0
176
     1
 62
   257
176
     1
 40
1.0
176
     1
 90
        1
176
     1
 90
        6
176
     1
 90
        2
176
     1
 62
     7
176
     1
 90
        5
176
     1
 90
        0
176
     1
 90
        0
176
     1
290
     0
176
     1
 90
       13
176
     1
 40
0.0
176
     1
 90
        0
176
     1
290
     0
176
     1
290
     1
176
     1
290
     1
176
     1
290
     0
176
     1
290
     0
176
     1
290
     0
176
     1
290
     0
176
     1
290
     0
176
     1
290
     0
176
     1
 90
       50
176
     1
 40
0.0
176
     1
 40
1.0
176
     1
 90
        0
176
     1
 62
    18
420
        0
176
     1
 90
       50
176
     1
 90
        3
176
     1
 62
     5
420
      255
176
     1
290
     0
176
     1
 90
       50
176
     1
 90
       50
176
     1
 90
       50
176
     1
290
     0
176
     1
 90
       50
176
     1
 62
   256
176
     0
 40
1.0
176
     0
 90
        2
176
     1
  1
strokes_ogs.tif
176
     1
290
     0
176
     1
 40
1.0
176
     1
 40
1.0
176
     1
1001
ACAD
1000
AcDbSavedByObjectVersion
1070
     0
  0
VISUALSTYLE
  5
31
102
{ACAD_REACTORS
330
29
102
}
330
29
100
AcDbVisualStyle
  2
Hidden
 70
     6
177
     3
291
     0
 70
    58
 90
        1
176
     1
 90
        2
176
     1
 90
        2
176
     1
 90
        0
176
     1
 40
0.6
176
     1
 40
30.0
176
     1
 62
     7
420
 16777215
176
     1
 90
        2
176
     1
 90
        2
176
     1
 62
     7
176
     1
 62
   257
176
     1
 90
        2
176
     1
 90
        1
176
     1
 40
40.0
176
     1
 90
        0
176
     1
 62
   257
176
     1
 40
1.0
176
     1
 90
        1
176
     1
 90
        6
176
     1
 90
        2
176
     1
 62
     7
176
     1
 90
        3
176
     1
 90
        0
176
     1
 90
        0
176
     1
290
     0
176
     1
 90
        1
176
     1
 40
0.0
176
     1
 90
        0
176
     1
290
     0
176
     1
290
     1
176
     1
290
     1
176
     1
290
     0
176
     1
290
     0
176
     1
290
     0
176
     1
290
     0
176
     1
290
     0
176
     1
290
     0
176
     1
 90
       50
176
     1
 40
0.0
176
     1
 40
1.0
176
     1
 90
        0
176
     1
 62
    18
420
        0
176
     1
 90
       50
176
     1
 90
        3
176
     1
 62
     5
420
      255
176
     1
290
     0
176
     1
 90
       50
176
     1
 90
       50
176
     1
 90
       50
176
     1
290
     0
176
     1
 90
       50
176
     1
 62
   256
176
     0
 40
1.0
176
     0
 90
        2
176
     1
  1
strokes_ogs.tif
176
     1
290
     0
176
     1
 40
1.0
176
     1
 40
1.0
176
     1
1001
ACAD
1000
AcDbSavedByObjectVersion
1070
     0
  0
VISUALSTYLE
  5
3F
102
{ACAD_REACTORS
330
29
102
}
330
29
100
AcDbVisualStyle
  2
JitterOff
 70
    20
177
     3
291
     1
 70
    58
 90
        2
176
     0
 90
        2
176
     0
 90
        0
176
     0
 90
        0
176
     0
 40
0.6
176
     0
 40
30.0
176
     0
 62
     7
420
 16777215
176
     0
 90
        1
176
     0
 90
        4
176
     0
 62
     7
176
     0
 62
   257
176
     0
 90
        1
176
     0
 90
        1
176
     0
 40
1.0
176
     0
 90
       10
176
     2
 62
     7
176
     0
 40
1.0
176
     0
 90
        1
176
     0
 90
        6
176
     0
 90
        2
176
     0
 62
     7
176
     0
 90
        5
176
     0
 90
        0
176
     0
 90
        0
176
     0
290
     0
176
     0
 90
        1
176
     0
 40
0.0
176
     0
 90
        0
176
     0
290
     0
176
     0
290
     1
176
     0
290
     1
176
     0
290
     0
176
     0
290
     0
176
     0
290
     0
176
     0
290
     0
176
     0
290
     0
176
     0
290
     0
176
     0
 90
       50
176
     0
 40
0.0
176
     0
 40
1.0
176
     0
 90
        0
176
     0
 62
    18
420
        0
176
     0
 90
       50
176
     0
 90
        3
176
     0
 62
     5
420
      255
176
     0
290
     0
176
     0
 90
       50
176
     0
 90
       50
176
     0
 90
       50
176
     0
290
     0
176
     0
 90
       50
176
     0
 62
   256
176
     0
 40
1.0
176
     0
 90
        2
176
     0
  1
strokes_ogs.tif
176
     0
290
     0
176
     0
 40
1.0
176
     0
 40
1.0
176
     0
1001
ACAD
1000
AcDbSavedByObjectVersion
1070
     0
  0
VISUALSTYLE
  5
37
102
{ACAD_REACTORS
330
29
102
}
330
29
100
AcDbVisualStyle
  2
Linepattern
 70
    14
177
     3
291
     1
 70
    58
 90
        2
176
     1
 90
        2
176
     1
 90
        0
176
     1
 90
        0
176
     1
 40
0.6
176
     1
 40
30.0
176
     1
 62
     7
420
 16777215
176
     1
 90
        1
176
     1
 90
        4
176
     1
 62
     7
176
     1
 62
   257
176
     1
 90
        7
176
     1
 90
        7
176
     1
 40
1.0
176
     1
 90
        8
176
     1
 62
     7
176
     1
 40
1.0
176
     1
 90
        1
176
     1
 90
        6
176
     1
 90
        2
176
     1
 62
     7
176
     1
 90
        5
176
     1
 90
        0
176
     1
 90
        0
176
     1
290
     0
176
     1
 90
        1
176
     1
 40
0.0
176
     1
 90
        0
176
     1
290
     0
176
     1
290
     1
176
     1
290
     1
176
     1
290
     0
176
     1
290
     0
176
     1
290
     0
176
     1
290
     0
176
     1
290
     0
176
     1
290
     0
176
     1
 90
       50
176
     1
 40
0.0
176
     1
 40
1.0
176
     1
 90
        0
176
     1
 62
    18
420
        0
176
     1
 90
       50
176
     1
 90
        3
176
     1
 62
     5
420
      255
176
     1
290
     0
176
     1
 90
       50
176
     1
 90
       50
176
     1
 90
       50
176
     1
290
     0
176
     1
 90
       50
176
     1
 62
   256
176
     0
 40
1.0
176
     0
 90
        2
176
     1
  1
strokes_ogs.tif
176
     1
290
     0
176
     1
 40
1.0
176
     1
 40
1.0
176
     1
1001
ACAD
1000
AcDbSavedByObjectVersion
1070
     0
  0
VISUALSTYLE
  5
40
102
{ACAD_REACTORS
330
29
102
}
330
29
100
AcDbVisualStyle
  2
OverhangOff
 70
    21
177
     3
291
     1
 70
    58
 90
        2
176
     0
 90
        2
176
     0
 90
        0
176
     0
 90
        0
176
     0
 40
0.6
176
     0
 40
30.0
176
     0
 62
     7
420
 16777215
176
     0
 90
        1
176
     0
 90
        4
176
     0
 62
     7
176
     0
 62
   257
176
     0
 90
        1
176
     0
 90
        1
176
     0
 40
1.0
176
     0
 90
        9
176
     2
 62
     7
176
     0
 40
1.0
176
     0
 90
        1
176
     0
 90
        6
176
     0
 90
        2
176
     0
 62
     7
176
     0
 90
        5
176
     0
 90
        0
176
     0
 90
        0
176
     0
290
     0
176
     0
 90
        1
176
     0
 40
0.0
176
     0
 90
        0
176
     0
290
     0
176
     0
290
     1
176
     0
290
     1
176
     0
290
     0
176
     0
290
     0
176
     0
290
     0
176
     0
290
     0
176
     0
290
     0
176
     0
290
     0
176
     0
 90
       50
176
     0
 40
0.0
176
     0
 40
1.0
176
     0
 90
        0
176
     0
 62
    18
420
        0
176
     0
 90
       50
176
     0
 90
        3
176
     0
 62
     5
420
      255
176
     0
290
     0
176
     0
 90
       50
176
     0
 90
       50
176
     0
 90
       50
176
     0
290
     0
176
     0
 90
       50
176
     0
 62
   256
176
     0
 40
1.0
176
     0
 90
        2
176
     0
  1
strokes_ogs.tif
176
     0
290
     0
176
     0
 40
1.0
176
     0
 40
1.0
176
     0
1001
ACAD
1000
AcDbSavedByObjectVersion
1070
     0
  0
VISUALSTYLE
  5
33
102
{ACAD_REACTORS
330
29
102
}
330
29
100
AcDbVisualStyle
  2
Realistic
 70
     8
177
     3
291
     0
 70
    58
 90
        2
176
     1
 90
        3
176
     1
 90
        0
176
     1
 90
        2
176
     1
 40
0.6
176
     1
 40
30.0
176
     1
 62
     7
420
 16777215
176
     1
 90
        0
176
     1
 90
        0
176
     1
 62
     7
176
     1
 62
   257
176
     1
 90
        1
176
     1
 90
        1
176
     1
 40
1.0
176
     1
 90
        8
176
     1
 62
   257
176
     1
 40
1.0
176
     1
 90
        1
176
     1
 90
        6
176
     1
 90
        2
176
     1
 62
     7
176
     1
 90
        3
176
     1
 90
        0
176
     1
 90
        0
176
     1
290
     0
176
     1
 90
       13
176
     1
 40
0.0
176
     1
 90
        0
176
     1
290
     0
176
     1
290
     1
176
     1
290
     1
176
     1
290
     0
176
     1
290
     0
176
     1
290
     0
176
     1
290
     0
176
     1
290
     0
176
     1
290
     0
176
     1
 90
       50
176
     1
 40
0.0
176
     1
 40
1.0
176
     1
 90
        0
176
     1
 62
    18
420
        0
176
     1
 90
       50
176
     1
 90
        3
176
     1
 62
     5
420
      255
176
     1
290
     0
176
     1
 90
       50
176
     1
 90
       50
176
     1
 90
       50
176
     1
290
     0
176
     1
 90
       50
176
     1
 62
   256
176
     0
 40
1.0
176
     0
 90
        2
176
     1
  1
strokes_ogs.tif
176
     1
290
     0
176
     1
 40
1.0
176
     1
 40
1.0
176
     1
1001
ACAD
1000
AcDbSavedByObjectVersion
1070
     0
  0
VISUALSTYLE
  5
3E
102
{ACAD_REACTORS
330
29
102
}
330
29
100
AcDbVisualStyle
  2
Shaded
 70
    27
177
     3
291
     0
 70
    58
 90
        2
176
     1
 90
        2
176
     1
 90
        1
176
     1
 90
        2
176
     1
 40
0.6
176
     1
 40
30.0
176
     1
 62
     7
420
 16777215
176
     1
 90
        0
176
     1
 90
        4
176
     1
 62
     7
176
     1
 62
   257
176
     1
 90
        1
176
     1
 90
        1
176
     1
 40
1.0
176
     1
 90
        8
176
     1
 62
   257
176
     1
 40
1.0
176
     1
 90
        1
176
     1
 90
        6
176
     1
 90
        2
176
     1
 62
     8
420
  7895160
176
     1
 90
        3
176
     1
 90
        0
176
     1
 90
        0
176
     1
290
     0
176
     1
 90
        5
176
     1
 40
0.0
176
     1
 90
        0
176
     1
290
     0
176
     1
290
     1
176
     1
290
     1
176
     1
290
     0
176
     1
290
     0
176
     1
290
     0
176
     1
290
     0
176
     1
290
     0
176
     1
290
     0
176
     1
 90
       50
176
     1
 40
0.0
176
     1
 40
1.0
176
     1
 90
        0
176
     1
 62
    18
420
        0
176
     1
 90
       50
176
     1
 90
        3
176
     1
 62
     5
420
      255
176
     1
290
     0
176
     1
 90
       50
176
     1
 90
       50
176
     1
 90
       50
176
     1
290
     0
176
     1
 90
       50
176
     1
 62
   256
176
     0
 40
1.0
176
     0
 90
        2
176
     1
  1
strokes_ogs.tif
176
     1
290
     0
176
     1
 40
1.0
176
     1
 40
1.0
176
     1
1001
ACAD
1000
AcDbSavedByObjectVersion
1070
     0
  0
VISUALSTYLE
  5
3D
102
{ACAD_REACTORS
330
29
102
}
330
29
100
AcDbVisualStyle
  2
Shaded with edges
 70
    26
177
     3
291
     0
 70
    58
 90
        2
176
     1
 90
        2
176
     1
 90
        1
176
     1
 90
        2
176
     1
 40
0.6
176
     1
 40
30.0
176
     1
 62
     7
420
 16777215
176
     1
 90
        1
176
     1
 90
        2
176
     1
 62
     7
176
     1
 62
   257
176
     1
 90
        2
176
     1
 90
        1
176
     1
 40
1.0
176
     1
 90
        8
176
     1
 62
   257
176
     1
 40
1.0
176
     1
 90
        1
176
     1
 90
        6
176
     1
 90
        2
176
     1
 62
     7
176
     1
 90
        3
176
     1
 90
        0
176
     1
 90
        0
176
     1
290
     0
176
     1
 90
        5
176
     1
 40
0.0
176
     1
 90
        0
176
     1
290
     0
176
     1
290
     1
176
     1
290
     1
176
     1
290
     0
176
     1
290
     0
176
     1
290
     0
176
     1
290
     0
176
     1
290
     0
176
     1
290
     0
176
     1
 90
       50
176
     1
 40
0.0
176
     1
 40
1.0
176
     1
 90
        0
176
     1
 62
    18
420
        0
176
     1
 90
       50
176
     1
 90
        3
176
     1
 62
     5
420
      255
176
     1
290
     0
176
     1
 90
       50
176
     1
 90
       50
176
     1
 90
       50
176
     1
290
     0
176
     1
 90
       50
176
     1
 62
   256
176
     0
 40
1.0
176
     0
 90
        2
176
     1
  1
strokes_ogs.tif
176
     1
290
     0
176
     1
 40
1.0
176
     1
 40
1.0
176
     1
1001
ACAD
1000
AcDbSavedByObjectVersion
1070
     0
  0
VISUALSTYLE
  5
3A
102
{ACAD_REACTORS
330
29
102
}
330
29
100
AcDbVisualStyle
  2
Shades of Gray
 70
    23
177
     3
291
     0
 70
    58
 90
        2
176
     1
 90
        2
176
     1
 90
        3
176
     1
 90
        0
176
     1
 40
0.6
176
     1
 40
30.0
176
     1
 62
     7
420
 16777215
176
     1
 90
        2
176
     1
 90
        2
176
     1
 62
     7
176
     1
 62
     7
176
     1
 90
        1
176
     1
 90
        1
176
     1
 40
40.0
176
     1
 90
        8
176
     1
 62
     7
176
     1
 40
1.0
176
     1
 90
        1
176
     1
 90
        6
176
     1
 90
        2
176
     1
 62
     7
176
     1
 90
        3
176
     1
 90
        0
176
     1
 90
        0
176
     1
290
     0
176
     1
 90
        1
176
     1
 40
0.0
176
     1
 90
        0
176
     1
290
     0
176
     1
290
     1
176
     1
290
     1
176
     1
290
     0
176
     1
290
     0
176
     1
290
     0
176
     1
290
     0
176
     1
290
     0
176
     1
290
     0
176
     1
 90
       50
176
     1
 40
0.0
176
     1
 40
1.0
176
     1
 90
        0
176
     1
 62
    18
420
        0
176
     1
 90
       50
176
     1
 90
        3
176
     1
 62
     5
420
      255
176
     1
290
     0
176
     1
 90
       50
176
     1
 90
       50
176
     1
 90
       50
176
     1
290
     0
176
     1
 90
       50
176
     1
 62
   256
176
     0
 40
1.0
176
     0
 90
        2
176
     1
  1
strokes_ogs.tif
176
     1
290
     0
176
     1
 40
1.0
176
     1
 40
1.0
176
     1
1001
ACAD
1000
AcDbSavedByObjectVersion
1070
     0
  0
VISUALSTYLE
  5
3B
102
{ACAD_REACTORS
330
29
102
}
330
29
100
AcDbVisualStyle
  2
Sketchy
 70
    24
177
     3
291
     0
 70
    58
 90
        1
176
     1
 90
        2
176
     1
 90
        2
176
     1
 90
        0
176
     1
 40
0.6
176
     1
 40
30.0
176
     1
 62
     7
420
 16777215
176
     1
 90
        2
176
     1
 90
        2
176
     1
 62
     7
176
     1
 62
     7
176
     1
 90
        1
176
     1
 90
        1
176
     1
 40
40.0
176
     1
 90
       11
176
     1
 62
     7
176
     1
 40
1.0
176
     1
 90
        1
176
     1
 90
        6
176
     1
 90
        2
176
     1
 62
     7
176
     1
 90
        6
176
     1
 90
        0
176
     1
 90
        0
176
     1
290
     0
176
     1
 90
        1
176
     1
 40
0.0
176
     1
 90
        0
176
     1
290
     0
176
     1
290
     1
176
     1
290
     1
176
     1
290
     0
176
     1
290
     0
176
     1
290
     0
176
     1
290
     0
176
     1
290
     0
176
     1
290
     0
176
     1
 90
       50
176
     1
 40
0.0
176
     1
 40
1.0
176
     1
 90
        0
176
     1
 62
    18
420
        0
176
     1
 90
       50
176
     1
 90
        3
176
     1
 62
     5
420
      255
176
     1
290
     0
176
     1
 90
       50
176
     1
 90
       50
176
     1
 90
       50
176
     1
290
     0
176
     1
 90
       50
176
     1
 62
   256
176
     0
 40
1.0
176
     0
 90
        2
176
     1
  1
strokes_ogs.tif
176
     1
290
     0
176
     1
 40
1.0
176
     1
 40
1.0
176
     1
1001
ACAD
1000
AcDbSavedByObjectVersion
1070
     0
  0
VISUALSTYLE
  5
36
102
{ACAD_REACTORS
330
29
102
}
330
29
100
AcDbVisualStyle
  2
Thicken
 70
    13
177
     3
291
     1
 70
    58
 90
        2
176
     1
 90
        2
176
     1
 90
        0
176
     1
 90
        0
176
     1
 40
0.6
176
     1
 40
30.0
176
     1
 62
     7
420
 16777215
176
     1
 90
        1
176
     1
 90
        4
176
     1
 62
     7
176
     1
 62
   257
176
     1
 90
        1
176
     1
 90
        1
176
     1
 40
1.0
176
     1
 90
       12
176
     1
 62
     7
176
     1
 40
1.0
176
     1
 90
        1
176
     1
 90
        6
176
     1
 90
        2
176
     1
 62
     7
176
     1
 90
        5
176
     1
 90
        0
176
     1
 90
        0
176
     1
290
     0
176
     1
 90
        1
176
     1
 40
0.0
176
     1
 90
        0
176
     1
290
     0
176
     1
290
     1
176
     1
290
     1
176
     1
290
     0
176
     1
290
     0
176
     1
290
     0
176
     1
290
     0
176
     1
290
     0
176
     1
290
     0
176
     1
 90
       50
176
     1
 40
0.0
176
     1
 40
1.0
176
     1
 90
        0
176
     1
 62
    18
420
        0
176
     1
 90
       50
176
     1
 90
        3
176
     1
 62
     5
420
      255
176
     1
290
     0
176
     1
 90
       50
176
     1
 90
       50
176
     1
 90
       50
176
     1
290
     0
176
     1
 90
       50
176
     1
 62
   256
176
     0
 40
1.0
176
     0
 90
        2
176
     1
  1
strokes_ogs.tif
176
     1
290
     0
176
     1
 40
1.0
176
     1
 40
1.0
176
     1
1001
ACAD
1000
AcDbSavedByObjectVersion
1070
     0
  0
VISUALSTYLE
  5
30
102
{ACAD_REACTORS
330
29
102
}
330
29
100
AcDbVisualStyle
  2
Wireframe
 70
     5
177
     3
291
     0
 70
    58
 90
        0
176
     1
 90
        2
176
     1
 90
        0
176
     1
 90
        0
176
     1
 40
0.6
176
     1
 40
30.0
176
     1
 62
     7
420
 16777215
176
     1
 90
        1
176
     1
 90
        4
176
     1
 62
     7
176
     1
 62
   257
176
     1
 90
        1
176
     1
 90
        1
176
     1
 40
1.0
176
     1
 90
        0
176
     1
 62
   257
176
     1
 40
1.0
176
     1
 90
        1
176
     1
 90
        6
176
     1
 90
        2
176
     1
 62
     7
176
     1
 90
        3
176
     1
 90
        0
176
     1
 90
        0
176
     1
290
     0
176
     1
 90
        1
176
     1
 40
0.0
176
     1
 90
        0
176
     1
290
     0
176
     1
290
     1
176
     1
290
     1
176
     1
290
     0
176
     1
290
     0
176
     1
290
     0
176
     1
290
     0
176
     1
290
     0
176
     1
290
     0
176
     1
 90
       50
176
     1
 40
0.0
176
     1
 40
1.0
176
     1
 90
        0
176
     1
 62
    18
420
        0
176
     1
 90
       50
176
     1
 90
        3
176
     1
 62
     5
420
      255
176
     1
290
     0
176
     1
 90
       50
176
     1
 90
       50
176
     1
 90
       50
176
     1
290
     0
176
     1
 90
       50
176
     1
 62
   256
176
     0
 40
1.0
176
     0
 90
        2
176
     1
  1
strokes_ogs.tif
176
     1
290
     0
176
     1
 40
1.0
176
     1
 40
1.0
176
     1
1001
ACAD
1000
AcDbSavedByObjectVersion
1070
     0
  0
VISUALSTYLE
  5
3C
102
{ACAD_REACTORS
330
29
102
}
330
29
100
AcDbVisualStyle
  2
X-Ray
 70
    25
177
     3
291
     0
 70
    58
 90
        2
176
     1
 90
        2
176
     1
 90
        1
176
     1
 90
        1
176
     1
 40
0.5
176
     1
 40
30.0
176
     1
 62
     7
420
 16777215
176
     1
 90
        1
176
     1
 90
        0
176
     1
 62
     7
176
     1
 62
   257
176
     1
 90
        1
176
     1
 90
        1
176
     1
 40
1.0
176
     1
 90
        8
176
     1
 62
     7
176
     1
 40
1.0
176
     1
 90
        1
176
     1
 90
        6
176
     1
 90
        2
176
     1
 62
     7
176
     1
 90
        3
176
     1
 90
        0
176
     1
 90
        0
176
     1
290
     0
176
     1
 90
       13
176
     1
 40
0.0
176
     1
 90
        0
176
     1
290
     0
176
     1
290
     1
176
     1
290
     1
176
     1
290
     0
176
     1
290
     0
176
     1
290
     0
176
     1
290
     0
176
     1
290
     0
176
     1
290
     0
176
     1
 90
       50
176
     1
 40
0.0
176
     1
 40
1.0
176
     1
 90
        0
176
     1
 62
    18
420
        0
176
     1
 90
       50
176
     1
 90
        3
176
     1
 62
     5
420
      255
176
     1
290
     0
176
     1
 90
       50
176
     1
 90
       50
176
     1
 90
       50
176
     1
290
     0
176
     1
 90
       50
176
     1
 62
   256
176
     0
 40
1.0
176
     0
 90
        2
176
     1
  1
strokes_ogs.tif
176
     1
290
     0
176
     1
 40
1.0
176
     1
 40
1.0
176
     1
1001
ACAD
1000
AcDbSavedByObjectVersion
1070
     0
  0
DICTIONARYVAR
  5
18B
102
{ACAD_REACTORS
330
186
102
}
330
186
100
DictionaryVariables
280
     0
  1
1:1
  0
DICTIONARYVAR
  5
188
102
{ACAD_REACTORS
330
186
102
}
330
186
100
DictionaryVariables
280
     0
  1
STANDARD
  0
DICTIONARYVAR
  5
187
102
{ACAD_REACTORS
330
186
102
}
330
186
100
DictionaryVariables
280
     0
  1
STANDARD
  0
DICTIONARYVAR
  5
189
102
{ACAD_REACTORS
330
186
102
}
330
186
100
DictionaryVariables
280
     0
  1
Imperial24
  0
DICTIONARYVAR
  5
18A
102
{ACAD_REACTORS
330
186
102
}
330
186
100
DictionaryVariables
280
     0
  1
Imperial24
  0
DICTIONARY
  5
191
330
6B
100
AcDbDictionary
280
     1
281
     1
  3
ACAD_XREC_ROUNDTRIP
360
192
  0
DICTIONARY
  5
1A
330
19
100
AcDbDictionary
280
     1
281
     1
  3
BUMPTILE
360
1C
  3
DIFFUSETILE
360
1B
  3
OPACITYTILE
360
1F
  3
REFLECTIONTILE
360
1E
  3
REFRACTIONTILE
360
20
  3
SPECULARTILE
360
1D
  0
DICTIONARY
  5
12
330
11
100
AcDbDictionary
280
     1
281
     1
  3
BUMPTILE
360
14
  3
DIFFUSETILE
360
13
  3
OPACITYTILE
360
17
  3
REFLECTIONTILE
360
16
  3
REFRACTIONTILE
360
18
  3
SPECULARTILE
360
15
  0
DICTIONARY
  5
22
330
21
100
AcDbDictionary
280
     1
281
     1
  3
BUMPTILE
360
24
  3
DIFFUSETILE
360
23
  3
OPACITYTILE
360
27
  3
REFLECTIONTILE
360
26
  3
REFRACTIONTILE
360
28
  3
SPECULARTILE
360
25
  0
DICTIONARY
  5
18F
330
69
100
AcDbDictionary
280
     1
281
     1
  3
ACAD_XREC_ROUNDTRIP
360
190
  0
DICTIONARY
  5
18C
330
65
100
AcDbDictionary
280
     1
281
     1
  3
ACAD_ROUNDTRIP_2008_TABLESTYLE_CELLSTYLEMAP
360
18D
  0
XRECORD
  5
192
102
{ACAD_REACTORS
330
191
102
}
330
191
100
AcDbXrecord
280
     1
102
DISPLAYNAME
  1
Imperial24
102
FLAGS
 90
        0
  0
XRECORD
  5
1C
102
{ACAD_REACTORS
330
1A
102
}
330
1A
100
AcDbXrecord
280
     1
270
     1
271
     1
  0
XRECORD
  5
1B
102
{ACAD_REACTORS
330
1A
102
}
330
1A
100
AcDbXrecord
280
     1
270
     1
271
     1
  0
XRECORD
  5
1F
102
{ACAD_REACTORS
330
1A
102
}
330
1A
100
AcDbXrecord
280
     1
270
     1
271
     1
  0
XRECORD
  5
1E
102
{ACAD_REACTORS
330
1A
102
}
330
1A
100
AcDbXrecord
280
     1
270
     1
271
     1
  0
XRECORD
  5
20
102
{ACAD_REACTORS
330
1A
102
}
330
1A
100
AcDbXrecord
280
     1
270
     1
271
     1
  0
XRECORD
  5
1D
102
{ACAD_REACTORS
330
1A
102
}
330
1A
100
AcDbXrecord
280
     1
270
     1
271
     1
  0
XRECORD
  5
14
102
{ACAD_REACTORS
330
12
102
}
330
12
100
AcDbXrecord
280
     1
270
     1
271
     1
  0
XRECORD
  5
13
102
{ACAD_REACTORS
330
12
102
}
330
12
100
AcDbXrecord
280
     1
270
     1
271
     1
  0
XRECORD
  5
17
102
{ACAD_REACTORS
330
12
102
}
330
12
100
AcDbXrecord
280
     1
270
     1
271
     1
  0
XRECORD
  5
16
102
{ACAD_REACTORS
330
12
102
}
330
12
100
AcDbXrecord
280
     1
270
     1
271
     1
  0
XRECORD
  5
18
102
{ACAD_REACTORS
330
12
102
}
330
12
100
AcDbXrecord
280
     1
270
     1
271
     1
  0
XRECORD
  5
15
102
{ACAD_REACTORS
330
12
102
}
330
12
100
AcDbXrecord
280
     1
270
     1
271
     1
  0
XRECORD
  5
24
102
{ACAD_REACTORS
330
22
102
}
330
22
100
AcDbXrecord
280
     1
270
     1
271
     1
  0
XRECORD
  5
23
102
{ACAD_REACTORS
330
22
102
}
330
22
100
AcDbXrecord
280
     1
270
     1
271
     1
  0
XRECORD
  5
27
102
{ACAD_REACTORS
330
22
102
}
330
22
100
AcDbXrecord
280
     1
270
     1
271
     1
  0
XRECORD
  5
26
102
{ACAD_REACTORS
330
22
102
}
330
22
100
AcDbXrecord
280
     1
270
     1
271
     1
  0
XRECORD
  5
28
102
{ACAD_REACTORS
330
22
102
}
330
22
100
AcDbXrecord
280
     1
270
     1
271
     1
  0
XRECORD
  5
25
102
{ACAD_REACTORS
330
22
102
}
330
22
100
AcDbXrecord
280
     1
270
     1
271
     1
  0
XRECORD
  5
190
102
{ACAD_REACTORS
330
18F
102
}
330
18F
100
AcDbXrecord
280
     1
102
DISPLAYNAME
  1
Imperial24
102
FLAGS
 90
        0
  0
CELLSTYLEMAP
  5
18D
102
{ACAD_REACTORS
330
18C
102
}
330
18C
100
AcDbCellStyleMap
 90
        3
300
CELLSTYLE
  1
TABLEFORMAT_BEGIN
 90
        5
170
     1
 91
        0
 92
    32768
 62
   257
 93
        1
300
CONTENTFORMAT
  1
CONTENTFORMAT_BEGIN
 90
        0
 91
        0
 92
      512
 93
        0
300

 40
0.0
140
1.0
 94
        5
 62
     0
340
55
144
0.25
309
CONTENTFORMAT_END
171
     0
 94
        0
309
TABLEFORMAT_END
  1
CELLSTYLE_BEGIN
 90
        1
 91
        1
300
_TITLE
309
CELLSTYLE_END
300
CELLSTYLE
  1
TABLEFORMAT_BEGIN
 90
        5
170
     1
 91
        0
 92
        0
 62
   257
 93
        1
300
CONTENTFORMAT
  1
CONTENTFORMAT_BEGIN
 90
        0
 91
        0
 92
      512
 93
        0
300

 40
0.0
140
1.0
 94
        5
 62
     0
340
55
144
0.18
309
CONTENTFORMAT_END
171
     0
 94
        0
309
TABLEFORMAT_END
  1
CELLSTYLE_BEGIN
 90
        2
 91
        1
300
_HEADER
309
CELLSTYLE_END
300
CELLSTYLE
  1
TABLEFORMAT_BEGIN
 90
        5
170
     1
 91
        0
 92
        0
 62
   257
 93
        1
300
CONTENTFORMAT
  1
CONTENTFORMAT_BEGIN
 90
        0
 91
        0
 92
      512
 93
        0
300

 40
0.0
140
1.0
 94
        2
 62
     0
340
55
144
0.18
309
CONTENTFORMAT_END
171
     0
 94
        0
309
TABLEFORMAT_END
  1
CELLSTYLE_BEGIN
 90
        3
 91
        2
300
_DATA
309
CELLSTYLE_END
  0
ENDSEC
  0
EOF
