999
"DXF R12 Output" (www.mydxf.blogspot.com)
 0 
SECTION
 2 
HEADER
 9 
$ACADVER
 1 
AC1009
 9 
$EXTMIN
 10 
 0 
 20 
 0 
 9 
$EXTMAX
 10 
 8.5 
 20 
 11 
 0 
ENDSEC
 0 
SECTION
 2 
ENTITIES
0
LINE
8
Layer 1
10
325.406000
20
593.050000
11
325.304310
21
594.056918
0
LINE
8
Layer 1
10
325.304310
20
594.056918
11
325.012708
21
594.995113
0
LINE
8
Layer 1
10
325.012708
20
594.995113
11
324.551393
21
595.844387
0
LINE
8
Layer 1
10
324.551393
20
595.844387
11
323.940564
21
596.584541
0
LINE
8
Layer 1
10
323.940564
20
596.584541
11
323.200421
21
597.195377
0
LINE
8
Layer 1
10
323.200421
20
597.195377
11
322.351165
21
597.656696
0
LINE
8
Layer 1
10
322.351165
20
597.656696
11
321.412995
21
597.948300
0
LINE
8
Layer 1
10
321.412995
20
597.948300
11
320.406110
21
598.049990
0
LINE
8
Layer 1
10
320.406110
20
598.049990
11
210.406110
21
598.049990
0
LINE
8
Layer 1
10
210.406110
20
598.049990
11
209.399190
21
597.948300
0
LINE
8
Layer 1
10
209.399190
20
597.948300
11
208.460991
21
597.656696
0
LINE
8
Layer 1
10
208.460991
20
597.656696
11
207.611710
21
597.195377
0
LINE
8
Layer 1
10
207.611710
20
597.195377
11
206.871549
21
596.584541
0
LINE
8
Layer 1
10
206.871549
20
596.584541
11
206.260705
21
595.844387
0
LINE
8
Layer 1
10
206.260705
20
595.844387
11
205.799380
21
594.995113
0
LINE
8
Layer 1
10
205.799380
20
594.995113
11
205.507772
21
594.056918
0
LINE
8
Layer 1
10
205.507772
20
594.056918
11
205.406080
21
593.050000
0
LINE
8
Layer 1
10
205.406080
20
593.050000
11
205.406080
21
483.050000
0
LINE
8
Layer 1
10
205.406080
20
483.050000
11
205.507771
21
482.043105
0
LINE
8
Layer 1
10
205.507771
20
482.043105
11
205.799378
21
481.104927
0
LINE
8
Layer 1
10
205.799378
20
481.104927
11
206.260703
21
480.255666
0
LINE
8
Layer 1
10
206.260703
20
480.255666
11
206.871545
21
479.515520
0
LINE
8
Layer 1
10
206.871545
20
479.515520
11
207.611706
21
478.904689
0
LINE
8
Layer 1
10
207.611706
20
478.904689
11
208.460987
21
478.443373
0
LINE
8
Layer 1
10
208.460987
20
478.443373
11
209.399188
21
478.151770
0
LINE
8
Layer 1
10
209.399188
20
478.151770
11
210.406110
21
478.050080
0
LINE
8
Layer 1
10
210.406110
20
478.050080
11
320.406110
21
478.050080
0
LINE
8
Layer 1
10
320.406110
20
478.050080
11
321.412995
21
478.151770
0
LINE
8
Layer 1
10
321.412995
20
478.151770
11
322.351165
21
478.443373
0
LINE
8
Layer 1
10
322.351165
20
478.443373
11
323.200421
21
478.904689
0
LINE
8
Layer 1
10
323.200421
20
478.904689
11
323.940564
21
479.515520
0
LINE
8
Layer 1
10
323.940564
20
479.515520
11
324.551393
21
480.255666
0
LINE
8
Layer 1
10
324.551393
20
480.255666
11
325.012708
21
481.104927
0
LINE
8
Layer 1
10
325.012708
20
481.104927
11
325.304310
21
482.043105
0
LINE
8
Layer 1
10
325.304310
20
482.043105
11
325.406000
21
483.050000
0
LINE
8
Layer 1
10
325.406000
20
483.050000
11
325.406000
21
593.050000
0
LINE
8
Layer 1
10
325.406000
20
593.050000
11
325.406000
21
593.050000
0
LINE
8
Layer 1
10
225.406000
20
588.050000
11
225.406000
21
585.049870
0
LINE
8
Layer 1
10
225.406000
20
585.049870
11
255.406100
21
585.049870
0
LINE
8
Layer 1
10
255.406100
20
585.049870
11
255.406100
21
588.050000
0
LINE
8
Layer 1
10
255.406100
20
588.050000
11
225.406000
21
588.050000
0
LINE
8
Layer 1
10
225.406000
20
588.050000
11
225.406000
21
588.050000
0
LINE
8
Layer 1
10
275.406000
20
588.050000
11
275.406000
21
585.049870
0
LINE
8
Layer 1
10
275.406000
20
585.049870
11
305.405900
21
585.049870
0
LINE
8
Layer 1
10
305.405900
20
585.049870
11
305.405900
21
588.050000
0
LINE
8
Layer 1
10
305.405900
20
588.050000
11
275.406000
21
588.050000
0
LINE
8
Layer 1
10
275.406000
20
588.050000
11
275.406000
21
588.050000
0
LINE
8
Layer 1
10
315.405700
20
578.050080
11
312.405710
21
578.050080
0
LINE
8
Layer 1
10
312.405710
20
578.050080
11
312.405710
21
548.049980
0
LINE
8
Layer 1
10
312.405710
20
548.049980
11
315.405700
21
548.049980
0
LINE
8
Layer 1
10
315.405700
20
548.049980
11
315.405700
21
578.050080
0
LINE
8
Layer 1
10
315.405700
20
578.050080
11
315.405700
21
578.050080
0
LINE
8
Layer 1
10
315.405700
20
528.050280
11
312.405710
21
528.050280
0
LINE
8
Layer 1
10
312.405710
20
528.050280
11
312.405710
21
498.050080
0
LINE
8
Layer 1
10
312.405710
20
498.050080
11
315.405700
21
498.050080
0
LINE
8
Layer 1
10
315.405700
20
498.050080
11
315.405700
21
528.050280
0
LINE
8
Layer 1
10
315.405700
20
528.050280
11
315.405700
21
528.050280
0
LINE
8
Layer 1
10
275.406000
20
491.050280
11
275.406000
21
488.050290
0
LINE
8
Layer 1
10
275.406000
20
488.050290
11
305.405900
21
488.050290
0
LINE
8
Layer 1
10
305.405900
20
488.050290
11
305.405900
21
491.050280
0
LINE
8
Layer 1
10
305.405900
20
491.050280
11
275.406000
21
491.050280
0
LINE
8
Layer 1
10
275.406000
20
491.050280
11
275.406000
21
491.050280
0
LINE
8
Layer 1
10
225.406000
20
491.050280
11
225.406000
21
488.050290
0
LINE
8
Layer 1
10
225.406000
20
488.050290
11
255.406100
21
488.050290
0
LINE
8
Layer 1
10
255.406100
20
488.050290
11
255.406100
21
491.050280
0
LINE
8
Layer 1
10
255.406100
20
491.050280
11
225.406000
21
491.050280
0
LINE
8
Layer 1
10
225.406000
20
491.050280
11
225.406000
21
491.050280
0
LINE
8
Layer 1
10
218.406000
20
528.050000
11
215.406010
21
528.050000
0
LINE
8
Layer 1
10
215.406010
20
528.050000
11
215.406010
21
498.049800
0
LINE
8
Layer 1
10
215.406010
20
498.049800
11
218.406000
21
498.049800
0
LINE
8
Layer 1
10
218.406000
20
498.049800
11
218.406000
21
528.050000
0
LINE
8
Layer 1
10
218.406000
20
528.050000
11
218.406000
21
528.050000
0
LINE
8
Layer 1
10
218.406000
20
578.049800
11
215.406010
21
578.049800
0
LINE
8
Layer 1
10
215.406010
20
578.049800
11
215.406010
21
548.049700
0
LINE
8
Layer 1
10
215.406010
20
548.049700
11
218.406000
21
548.049700
0
LINE
8
Layer 1
10
218.406000
20
548.049700
11
218.406000
21
578.049800
0
LINE
8
Layer 1
10
218.406000
20
578.049800
11
218.406000
21
578.049800
0
LINE
8
Layer 1
10
27.957000
20
539.233000
11
27.857199
21
539.233000
0
LINE
8
Layer 1
10
27.857199
20
539.233000
11
25.863387
21
539.031654
0
LINE
8
Layer 1
10
25.863387
20
539.031654
11
24.005704
21
538.454276
0
LINE
8
Layer 1
10
24.005704
20
538.454276
11
22.324130
21
537.540861
0
LINE
8
Layer 1
10
22.324130
20
537.540861
11
20.858644
21
536.331402
0
LINE
8
Layer 1
10
20.858644
20
536.331402
11
19.649227
21
534.865893
0
LINE
8
Layer 1
10
19.649227
20
534.865893
11
18.735859
21
533.184325
0
LINE
8
Layer 1
10
18.735859
20
533.184325
11
18.158520
21
531.326693
0
LINE
8
Layer 1
10
18.158520
20
531.326693
11
17.957189
21
529.332990
0
LINE
8
Layer 1
10
17.957189
20
529.332990
11
17.957189
21
524.511890
0
LINE
8
Layer 1
10
17.957189
20
524.511890
11
27.956999
21
524.511890
0
LINE
8
Layer 1
10
27.956999
20
524.511890
11
27.956999
21
539.232990
0
LINE
8
Layer 1
10
27.956999
20
539.232990
11
27.957000
21
539.233000
0
LINE
8
Layer 1
10
31.588500
20
539.233000
11
31.488699
21
539.233000
0
LINE
8
Layer 1
10
31.488699
20
539.233000
11
31.488699
21
524.511900
0
LINE
8
Layer 1
10
31.488699
20
524.511900
11
41.488509
21
524.511900
0
LINE
8
Layer 1
10
41.488509
20
524.511900
11
41.488509
21
529.333000
0
LINE
8
Layer 1
10
41.488509
20
529.333000
11
41.287178
21
531.326700
0
LINE
8
Layer 1
10
41.287178
20
531.326700
11
40.709839
21
533.184331
0
LINE
8
Layer 1
10
40.709839
20
533.184331
11
39.796471
21
534.865898
0
LINE
8
Layer 1
10
39.796471
20
534.865898
11
38.587054
21
536.331409
0
LINE
8
Layer 1
10
38.587054
20
536.331409
11
37.121569
21
537.540869
0
LINE
8
Layer 1
10
37.121569
20
537.540869
11
35.439994
21
538.454285
0
LINE
8
Layer 1
10
35.439994
20
538.454285
11
33.582311
21
539.031663
0
LINE
8
Layer 1
10
33.582311
20
539.031663
11
31.588499
21
539.233010
0
LINE
8
Layer 1
10
31.588499
20
539.233010
11
31.588500
21
539.233000
0
LINE
8
Layer 1
10
41.488510
20
521.205400
11
31.488700
21
521.205400
0
LINE
8
Layer 1
10
31.488700
20
521.205400
11
31.488700
21
504.386000
0
LINE
8
Layer 1
10
31.488700
20
504.386000
11
41.488510
21
504.386000
0
LINE
8
Layer 1
10
41.488510
20
504.386000
11
41.488510
21
521.205400
0
LINE
8
Layer 1
10
41.488510
20
521.205400
11
41.488510
21
521.205400
0
LINE
8
Layer 1
10
27.957010
20
521.205400
11
17.957200
21
521.205400
0
LINE
8
Layer 1
10
17.957200
20
521.205400
11
17.957200
21
504.386000
0
LINE
8
Layer 1
10
17.957200
20
504.386000
11
27.957010
21
504.386000
0
LINE
8
Layer 1
10
27.957010
20
504.386000
11
27.957010
21
521.205400
0
LINE
8
Layer 1
10
27.957010
20
521.205400
11
27.957010
21
521.205400
0
LINE
8
Layer 1
10
71.491610
20
539.233000
11
71.391386
21
539.233000
0
LINE
8
Layer 1
10
71.391386
20
539.233000
11
69.397694
21
539.031654
0
LINE
8
Layer 1
10
69.397694
20
539.031654
11
67.540068
21
538.454276
0
LINE
8
Layer 1
10
67.540068
20
538.454276
11
65.858501
21
537.540861
0
LINE
8
Layer 1
10
65.858501
20
537.540861
11
64.392989
21
536.331402
0
LINE
8
Layer 1
10
64.392989
20
536.331402
11
63.183525
21
534.865893
0
LINE
8
Layer 1
10
63.183525
20
534.865893
11
62.270105
21
533.184325
0
LINE
8
Layer 1
10
62.270105
20
533.184325
11
61.692724
21
531.326693
0
LINE
8
Layer 1
10
61.692724
20
531.326693
11
61.491376
21
529.332990
0
LINE
8
Layer 1
10
61.491376
20
529.332990
11
61.491376
21
524.511890
0
LINE
8
Layer 1
10
61.491376
20
524.511890
11
71.491576
21
524.511890
0
LINE
8
Layer 1
10
71.491576
20
524.511890
11
71.491576
21
539.232990
0
LINE
8
Layer 1
10
71.491576
20
539.232990
11
71.491610
21
539.233000
0
LINE
8
Layer 1
10
75.123110
20
539.233000
11
75.023203
21
539.233000
0
LINE
8
Layer 1
10
75.023203
20
539.233000
11
75.023203
21
524.511900
0
LINE
8
Layer 1
10
75.023203
20
524.511900
11
85.023123
21
524.511900
0
LINE
8
Layer 1
10
85.023123
20
524.511900
11
85.023123
21
529.333000
0
LINE
8
Layer 1
10
85.023123
20
529.333000
11
84.821788
21
531.326700
0
LINE
8
Layer 1
10
84.821788
20
531.326700
11
84.244439
21
533.184331
0
LINE
8
Layer 1
10
84.244439
20
533.184331
11
83.331059
21
534.865898
0
LINE
8
Layer 1
10
83.331059
20
534.865898
11
82.121631
21
536.331409
0
LINE
8
Layer 1
10
82.121631
20
536.331409
11
80.656139
21
537.540869
0
LINE
8
Layer 1
10
80.656139
20
537.540869
11
78.974566
21
538.454285
0
LINE
8
Layer 1
10
78.974566
20
538.454285
11
77.116897
21
539.031663
0
LINE
8
Layer 1
10
77.116897
20
539.031663
11
75.123113
21
539.233010
0
LINE
8
Layer 1
10
75.123113
20
539.233010
11
75.123110
21
539.233000
0
LINE
8
Layer 1
10
85.023120
20
521.205400
11
75.023200
21
521.205400
0
LINE
8
Layer 1
10
75.023200
20
521.205400
11
75.023200
21
504.386000
0
LINE
8
Layer 1
10
75.023200
20
504.386000
11
85.023120
21
504.386000
0
LINE
8
Layer 1
10
85.023120
20
504.386000
11
85.023120
21
521.205400
0
LINE
8
Layer 1
10
85.023120
20
521.205400
11
85.023120
21
521.205400
0
LINE
8
Layer 1
10
71.491620
20
521.205400
11
61.491420
21
521.205400
0
LINE
8
Layer 1
10
61.491420
20
521.205400
11
61.491420
21
504.386000
0
LINE
8
Layer 1
10
61.491420
20
504.386000
11
71.491620
21
504.386000
0
LINE
8
Layer 1
10
71.491620
20
504.386000
11
71.491620
21
521.205400
0
LINE
8
Layer 1
10
71.491620
20
521.205400
11
71.491620
21
521.205400
0
LINE
8
Layer 1
10
61.470200
20
570.478000
11
60.205530
21
571.476432
0
LINE
8
Layer 1
10
60.205530
20
571.476432
11
58.507687
21
572.464026
0
LINE
8
Layer 1
10
58.507687
20
572.464026
11
56.616746
21
573.253078
0
LINE
8
Layer 1
10
56.616746
20
573.253078
11
54.641470
21
573.822930
0
LINE
8
Layer 1
10
54.641470
20
573.822930
11
52.690620
21
574.152922
0
LINE
8
Layer 1
10
52.690620
20
574.152922
11
52.689562
21
561.665322
0
LINE
8
Layer 1
10
52.689562
20
561.665322
11
61.470172
21
570.478002
0
LINE
8
Layer 1
10
61.470172
20
570.478002
11
61.470200
21
570.478000
0
LINE
8
Layer 1
10
50.399300
20
574.144100
11
50.400006
21
561.665600
0
LINE
8
Layer 1
10
50.400006
20
561.665600
11
41.559106
21
570.498100
0
LINE
8
Layer 1
10
41.559106
20
570.498100
11
42.883016
21
571.476424
0
LINE
8
Layer 1
10
42.883016
20
571.476424
11
44.581541
21
572.463334
0
LINE
8
Layer 1
10
44.581541
20
572.463334
11
46.472388
21
573.249455
0
LINE
8
Layer 1
10
46.472388
20
573.249455
11
48.447628
21
573.815978
0
LINE
8
Layer 1
10
48.447628
20
573.815978
11
50.399336
21
574.144094
0
LINE
8
Layer 1
10
50.399336
20
574.144094
11
50.399300
21
574.144100
0
LINE
8
Layer 1
10
49.923367
20
558.900900
11
40.009287
21
568.757910
0
LINE
8
Layer 1
10
40.009287
20
568.757910
11
38.549525
21
566.622084
0
LINE
8
Layer 1
10
38.549525
20
566.622084
11
37.362245
21
564.197047
0
LINE
8
Layer 1
10
37.362245
20
564.197047
11
36.564233
21
561.588189
0
LINE
8
Layer 1
10
36.564233
20
561.588189
11
36.272277
21
558.900900
0
LINE
8
Layer 1
10
36.272277
20
558.900900
11
49.923377
21
558.900900
0
LINE
8
Layer 1
10
49.923377
20
558.900900
11
49.923367
21
558.900900
0
LINE
8
Layer 1
10
66.816167
20
558.900900
11
66.532809
21
561.603668
0
LINE
8
Layer 1
10
66.532809
20
561.603668
11
65.753743
21
564.246589
0
LINE
8
Layer 1
10
65.753743
20
564.246589
11
64.585482
21
566.705690
0
LINE
8
Layer 1
10
64.585482
20
566.705690
11
63.134537
21
568.857000
0
LINE
8
Layer 1
10
63.134537
20
568.857000
11
53.245147
21
558.894900
0
LINE
8
Layer 1
10
53.245147
20
558.894900
11
66.816147
21
558.900897
0
LINE
8
Layer 1
10
66.816147
20
558.900897
11
66.816167
21
558.900900
0
LINE
8
Layer 1
10
8.693567
20
556.050490
11
15.764647
21
563.121500
0
LINE
8
Layer 1
10
15.764647
20
563.121500
11
14.508047
21
564.187600
0
LINE
8
Layer 1
10
14.508047
20
564.187600
11
14.059786
21
564.679532
0
LINE
8
Layer 1
10
14.059786
20
564.679532
11
13.899152
21
565.238880
0
LINE
8
Layer 1
10
13.899152
20
565.238880
11
13.899470
21
565.244595
0
LINE
8
Layer 1
10
13.899470
20
565.244595
11
14.281564
21
565.881007
0
LINE
8
Layer 1
10
14.281564
20
565.881007
11
20.297454
21
571.896897
0
LINE
8
Layer 1
10
20.297454
20
571.896897
11
20.570751
21
572.147061
0
LINE
8
Layer 1
10
20.570751
20
572.147061
11
20.900352
21
572.259906
0
LINE
8
Layer 1
10
20.900352
20
572.259906
11
20.907054
21
572.260294
0
LINE
8
Layer 1
10
20.907054
20
572.260294
11
21.501900
21
572.093571
0
LINE
8
Layer 1
10
21.501900
20
572.093571
11
22.007054
21
571.648506
0
LINE
8
Layer 1
10
22.007054
20
571.648506
11
23.048064
21
570.404606
0
LINE
8
Layer 1
10
23.048064
20
570.404606
11
30.118754
21
577.475686
0
LINE
8
Layer 1
10
30.118754
20
577.475686
11
37.189874
21
584.546806
0
LINE
8
Layer 1
10
37.189874
20
584.546806
11
35.933274
21
585.612906
0
LINE
8
Layer 1
10
35.933274
20
585.612906
11
35.485158
21
586.104841
0
LINE
8
Layer 1
10
35.485158
20
586.104841
11
35.324379
21
586.664216
0
LINE
8
Layer 1
10
35.324379
20
586.664216
11
35.324732
21
586.669825
0
LINE
8
Layer 1
10
35.324732
20
586.669825
11
35.706720
21
587.306201
0
LINE
8
Layer 1
10
35.706720
20
587.306201
11
41.722750
21
593.322231
0
LINE
8
Layer 1
10
41.722750
20
593.322231
11
41.995981
21
593.572338
0
LINE
8
Layer 1
10
41.995981
20
593.572338
11
42.325648
21
593.685204
0
LINE
8
Layer 1
10
42.325648
20
593.685204
11
42.332351
21
593.685522
0
LINE
8
Layer 1
10
42.332351
20
593.685522
11
42.927192
21
593.518861
0
LINE
8
Layer 1
10
42.927192
20
593.518861
11
43.432631
21
593.073805
0
LINE
8
Layer 1
10
43.432631
20
593.073805
11
44.473331
21
591.829905
0
LINE
8
Layer 1
10
44.473331
20
591.829905
11
51.544061
21
598.901025
0
LINE
8
Layer 1
10
51.544061
20
598.901025
11
58.615141
21
591.829905
0
LINE
8
Layer 1
10
58.615141
20
591.829905
11
59.655841
21
593.073805
0
LINE
8
Layer 1
10
59.655841
20
593.073805
11
60.161270
21
593.518861
0
LINE
8
Layer 1
10
60.161270
20
593.518861
11
60.756151
21
593.685522
0
LINE
8
Layer 1
10
60.756151
20
593.685522
11
60.762854
21
593.685204
0
LINE
8
Layer 1
10
60.762854
20
593.685204
11
61.092467
21
593.572337
0
LINE
8
Layer 1
10
61.092467
20
593.572337
11
61.365752
21
593.322231
0
LINE
8
Layer 1
10
61.365752
20
593.322231
11
67.381642
21
587.306201
0
LINE
8
Layer 1
10
67.381642
20
587.306201
11
67.763771
21
586.669825
0
LINE
8
Layer 1
10
67.763771
20
586.669825
11
67.764053
21
586.664216
0
LINE
8
Layer 1
10
67.764053
20
586.664216
11
67.603274
21
586.104838
0
LINE
8
Layer 1
10
67.603274
20
586.104838
11
67.155158
21
585.612906
0
LINE
8
Layer 1
10
67.155158
20
585.612906
11
65.898558
21
584.546806
0
LINE
8
Layer 1
10
65.898558
20
584.546806
11
72.969248
21
577.475686
0
LINE
8
Layer 1
10
72.969248
20
577.475686
11
80.040368
21
570.404606
0
LINE
8
Layer 1
10
80.040368
20
570.404606
11
81.081448
21
571.648506
0
LINE
8
Layer 1
10
81.081448
20
571.648506
11
81.586547
21
572.093571
0
LINE
8
Layer 1
10
81.586547
20
572.093571
11
82.181338
21
572.260294
0
LINE
8
Layer 1
10
82.181338
20
572.260294
11
82.188041
21
572.259906
0
LINE
8
Layer 1
10
82.188041
20
572.259906
11
82.517707
21
572.147061
0
LINE
8
Layer 1
10
82.517707
20
572.147061
11
82.790939
21
571.896897
0
LINE
8
Layer 1
10
82.790939
20
571.896897
11
88.806859
21
565.881007
0
LINE
8
Layer 1
10
88.806859
20
565.881007
11
89.188953
21
565.244595
0
LINE
8
Layer 1
10
89.188953
20
565.244595
11
89.189305
21
565.238880
0
LINE
8
Layer 1
10
89.189305
20
565.238880
11
89.028527
21
564.679533
0
LINE
8
Layer 1
10
89.028527
20
564.679533
11
88.580410
21
564.187600
0
LINE
8
Layer 1
10
88.580410
20
564.187600
11
87.323810
21
563.121500
0
LINE
8
Layer 1
10
87.323810
20
563.121500
11
94.394820
21
556.050490
0
LINE
8
Layer 1
10
94.394820
20
556.050490
11
101.544220
21
548.901090
0
LINE
8
Layer 1
10
101.544220
20
548.901090
11
101.544220
21
528.900990
0
LINE
8
Layer 1
10
101.544220
20
528.900990
11
98.544230
21
528.900990
0
LINE
8
Layer 1
10
98.544230
20
528.900990
11
98.544230
21
508.900990
0
LINE
8
Layer 1
10
98.544230
20
508.900990
11
101.544220
21
508.900990
0
LINE
8
Layer 1
10
101.544220
20
508.900990
11
101.544220
21
488.901090
0
LINE
8
Layer 1
10
101.544220
20
488.901090
11
91.394320
21
488.901090
0
LINE
8
Layer 1
10
91.394320
20
488.901090
11
91.537936
21
487.285680
0
LINE
8
Layer 1
10
91.537936
20
487.285680
11
91.495012
21
486.613709
0
LINE
8
Layer 1
10
91.495012
20
486.613709
11
91.192531
21
486.075300
0
LINE
8
Layer 1
10
91.192531
20
486.075300
11
91.187346
21
486.070784
0
LINE
8
Layer 1
10
91.187346
20
486.070784
11
90.874533
21
485.917401
0
LINE
8
Layer 1
10
90.874533
20
485.917401
11
90.504333
21
485.901098
0
LINE
8
Layer 1
10
90.504333
20
485.901098
11
62.596733
21
485.901098
0
LINE
8
Layer 1
10
62.596733
20
485.901098
11
61.876643
21
486.080980
0
LINE
8
Layer 1
10
61.876643
20
486.080980
11
61.872162
21
486.084508
0
LINE
8
Layer 1
10
61.872162
20
486.084508
11
61.590266
21
486.593880
0
LINE
8
Layer 1
10
61.590266
20
486.593880
11
61.559565
21
487.258588
0
LINE
8
Layer 1
10
61.559565
20
487.258588
11
61.694256
21
488.901088
0
LINE
8
Layer 1
10
61.694256
20
488.901088
11
51.394156
21
488.901088
0
LINE
8
Layer 1
10
51.394156
20
488.901088
11
41.394166
21
488.901088
0
LINE
8
Layer 1
10
41.394166
20
488.901088
11
41.537747
21
487.285678
0
LINE
8
Layer 1
10
41.537747
20
487.285678
11
41.495066
21
486.613707
0
LINE
8
Layer 1
10
41.495066
20
486.613707
11
41.192377
21
486.075298
0
LINE
8
Layer 1
10
41.192377
20
486.075298
11
41.187474
21
486.070783
0
LINE
8
Layer 1
10
41.187474
20
486.070783
11
40.874661
21
485.917399
0
LINE
8
Layer 1
10
40.874661
20
485.917399
11
40.504461
21
485.901097
0
LINE
8
Layer 1
10
40.504461
20
485.901097
11
12.596861
21
485.901097
0
LINE
8
Layer 1
10
12.596861
20
485.901097
11
11.876771
21
486.080979
0
LINE
8
Layer 1
10
11.876771
20
486.080979
11
11.872290
21
486.084506
0
LINE
8
Layer 1
10
11.872290
20
486.084506
11
11.590341
21
486.593878
0
LINE
8
Layer 1
10
11.590341
20
486.593878
11
11.559270
21
487.258586
0
LINE
8
Layer 1
10
11.559270
20
487.258586
11
11.694066
21
488.901086
0
LINE
8
Layer 1
10
11.694066
20
488.901086
11
1.544166
21
488.901086
0
LINE
8
Layer 1
10
1.544166
20
488.901086
11
1.544166
21
508.900986
0
LINE
8
Layer 1
10
1.544166
20
508.900986
11
4.544156
21
508.900986
0
LINE
8
Layer 1
10
4.544156
20
508.900986
11
4.544156
21
528.900986
0
LINE
8
Layer 1
10
4.544156
20
528.900986
11
1.544166
21
528.900986
0
LINE
8
Layer 1
10
1.544166
20
528.900986
11
1.544166
21
548.901086
0
LINE
8
Layer 1
10
1.544166
20
548.901086
11
8.693566
21
556.050486
0
LINE
8
Layer 1
10
8.693566
20
556.050486
11
8.693567
21
556.050490
0
LINE
8
Layer 1
10
4.032820
20
394.691000
11
2.390600
21
394.556309
0
LINE
8
Layer 1
10
2.390600
20
394.556309
11
1.725622
21
394.587010
0
LINE
8
Layer 1
10
1.725622
20
394.587010
11
1.216480
21
394.868800
0
LINE
8
Layer 1
10
1.216480
20
394.868800
11
1.212599
21
394.873421
0
LINE
8
Layer 1
10
1.212599
20
394.873421
11
1.032682
21
395.593406
0
LINE
8
Layer 1
10
1.032682
20
395.593406
11
1.032682
21
423.900906
0
LINE
8
Layer 1
10
1.032682
20
423.900906
11
1.049029
21
424.271147
0
LINE
8
Layer 1
10
1.049029
20
424.271147
11
1.202403
21
424.583919
0
LINE
8
Layer 1
10
1.202403
20
424.583919
11
1.206990
21
424.589211
0
LINE
8
Layer 1
10
1.206990
20
424.589211
11
1.745523
21
424.891718
0
LINE
8
Layer 1
10
1.745523
20
424.891718
11
2.417410
21
424.934616
0
LINE
8
Layer 1
10
2.417410
20
424.934616
11
4.032820
21
424.791035
0
LINE
8
Layer 1
10
4.032820
20
424.791035
11
4.032820
21
434.591035
0
LINE
8
Layer 1
10
4.032820
20
434.591035
11
4.032820
21
444.690835
0
LINE
8
Layer 1
10
4.032820
20
444.690835
11
2.390600
21
444.556144
0
LINE
8
Layer 1
10
2.390600
20
444.556144
11
1.725621
21
444.587003
0
LINE
8
Layer 1
10
1.725621
20
444.587003
11
1.216480
21
444.868635
0
LINE
8
Layer 1
10
1.216480
20
444.868635
11
1.212599
21
444.873256
0
LINE
8
Layer 1
10
1.212599
20
444.873256
11
1.032682
21
445.593241
0
LINE
8
Layer 1
10
1.032682
20
445.593241
11
1.032682
21
473.901141
0
LINE
8
Layer 1
10
1.032682
20
473.901141
11
1.049029
21
474.271329
0
LINE
8
Layer 1
10
1.049029
20
474.271329
11
1.202403
21
474.584154
0
LINE
8
Layer 1
10
1.202403
20
474.584154
11
1.206989
21
474.589058
0
LINE
8
Layer 1
10
1.206989
20
474.589058
11
1.745523
21
474.891786
0
LINE
8
Layer 1
10
1.745523
20
474.891786
11
2.417409
21
474.934428
0
LINE
8
Layer 1
10
2.417409
20
474.934428
11
4.032819
21
474.790847
0
LINE
8
Layer 1
10
4.032819
20
474.790847
11
4.033101
21
481.740747
0
LINE
8
Layer 1
10
4.033101
20
481.740747
11
23.932801
21
481.740747
0
LINE
8
Layer 1
10
23.932801
20
481.740747
11
23.932801
21
484.740737
0
LINE
8
Layer 1
10
23.932801
20
484.740737
11
44.132901
21
484.740737
0
LINE
8
Layer 1
10
44.132901
20
484.740737
11
44.132901
21
481.740747
0
LINE
8
Layer 1
10
44.132901
20
481.740747
11
64.032701
21
481.740747
0
LINE
8
Layer 1
10
64.032701
20
481.740747
11
64.032701
21
387.740747
0
LINE
8
Layer 1
10
64.032701
20
387.740747
11
44.132901
21
387.741029
0
LINE
8
Layer 1
10
44.132901
20
387.741029
11
44.132901
21
384.741039
0
LINE
8
Layer 1
10
44.132901
20
384.741039
11
23.932801
21
384.741039
0
LINE
8
Layer 1
10
23.932801
20
384.741039
11
23.932801
21
387.741029
0
LINE
8
Layer 1
10
23.932801
20
387.741029
11
4.033101
21
387.740747
0
LINE
8
Layer 1
10
4.033101
20
387.740747
11
4.032819
21
394.690937
0
LINE
8
Layer 1
10
4.032819
20
394.690937
11
4.032820
21
394.691000
0
LINE
8
Layer 1
10
54.364920
20
454.688000
11
54.364920
21
454.588199
0
LINE
8
Layer 1
10
54.364920
20
454.588199
11
54.163586
21
452.594392
0
LINE
8
Layer 1
10
54.163586
20
452.594392
11
53.586240
21
450.736721
0
LINE
8
Layer 1
10
53.586240
20
450.736721
11
52.672863
21
449.055164
0
LINE
8
Layer 1
10
52.672863
20
449.055164
11
51.463439
21
447.589699
0
LINE
8
Layer 1
10
51.463439
20
447.589699
11
49.997949
21
446.380303
0
LINE
8
Layer 1
10
49.997949
20
446.380303
11
48.316376
21
445.466952
0
LINE
8
Layer 1
10
48.316376
20
445.466952
11
46.458702
21
444.889625
0
LINE
8
Layer 1
10
46.458702
20
444.889625
11
44.464910
21
444.688299
0
LINE
8
Layer 1
10
44.464910
20
444.688299
11
39.643810
21
444.688299
0
LINE
8
Layer 1
10
39.643810
20
444.688299
11
39.643810
21
454.687999
0
LINE
8
Layer 1
10
39.643810
20
454.687999
11
54.364910
21
454.687999
0
LINE
8
Layer 1
10
54.364910
20
454.687999
11
54.364920
21
454.688000
0
LINE
8
Layer 1
10
54.364920
20
458.319500
11
54.364920
21
458.219699
0
LINE
8
Layer 1
10
54.364920
20
458.219699
11
39.643820
21
458.219699
0
LINE
8
Layer 1
10
39.643820
20
458.219699
11
39.643820
21
468.219509
0
LINE
8
Layer 1
10
39.643820
20
468.219509
11
44.464920
21
468.219509
0
LINE
8
Layer 1
10
44.464920
20
468.219509
11
46.458712
21
468.018178
0
LINE
8
Layer 1
10
46.458712
20
468.018178
11
48.316386
21
467.440839
0
LINE
8
Layer 1
10
48.316386
20
467.440839
11
49.997959
21
466.527471
0
LINE
8
Layer 1
10
49.997959
20
466.527471
11
51.463449
21
465.318054
0
LINE
8
Layer 1
10
51.463449
20
465.318054
11
52.672873
21
463.852569
0
LINE
8
Layer 1
10
52.672873
20
463.852569
11
53.586250
21
462.170994
0
LINE
8
Layer 1
10
53.586250
20
462.170994
11
54.163596
21
460.313311
0
LINE
8
Layer 1
10
54.163596
20
460.313311
11
54.364930
21
458.319499
0
LINE
8
Layer 1
10
54.364930
20
458.319499
11
54.364920
21
458.319500
0
LINE
8
Layer 1
10
36.337620
20
468.219510
11
36.337620
21
458.219700
0
LINE
8
Layer 1
10
36.337620
20
458.219700
11
19.517820
21
458.219700
0
LINE
8
Layer 1
10
19.517820
20
458.219700
11
19.517820
21
468.219510
0
LINE
8
Layer 1
10
19.517820
20
468.219510
11
36.337620
21
468.219510
0
LINE
8
Layer 1
10
36.337620
20
468.219510
11
36.337620
21
468.219510
0
LINE
8
Layer 1
10
36.337620
20
454.688010
11
36.337620
21
444.688310
0
LINE
8
Layer 1
10
36.337620
20
444.688310
11
19.517820
21
444.688310
0
LINE
8
Layer 1
10
19.517820
20
444.688310
11
19.517820
21
454.688010
0
LINE
8
Layer 1
10
19.517820
20
454.688010
11
36.337620
21
454.688010
0
LINE
8
Layer 1
10
36.337620
20
454.688010
11
36.337620
21
454.688010
0
LINE
8
Layer 1
10
36.337620
20
411.154010
11
36.337620
21
401.153810
0
LINE
8
Layer 1
10
36.337620
20
401.153810
11
19.517820
21
401.153810
0
LINE
8
Layer 1
10
19.517820
20
401.153810
11
19.517820
21
411.154010
0
LINE
8
Layer 1
10
19.517820
20
411.154010
11
36.337620
21
411.154010
0
LINE
8
Layer 1
10
36.337620
20
411.154010
11
36.337620
21
411.154010
0
LINE
8
Layer 1
10
36.337620
20
424.685410
11
36.337620
21
414.685210
0
LINE
8
Layer 1
10
36.337620
20
414.685210
11
19.517820
21
414.685210
0
LINE
8
Layer 1
10
19.517820
20
414.685210
11
19.517820
21
424.685410
0
LINE
8
Layer 1
10
19.517820
20
424.685410
11
36.337620
21
424.685410
0
LINE
8
Layer 1
10
36.337620
20
424.685410
11
36.337620
21
424.685410
0
LINE
8
Layer 1
10
54.364920
20
414.785440
11
54.364920
21
414.685216
0
LINE
8
Layer 1
10
54.364920
20
414.685216
11
39.643820
21
414.685216
0
LINE
8
Layer 1
10
39.643820
20
414.685216
11
39.643820
21
424.685416
0
LINE
8
Layer 1
10
39.643820
20
424.685416
11
44.464920
21
424.685416
0
LINE
8
Layer 1
10
44.464920
20
424.685416
11
46.458712
21
424.484087
0
LINE
8
Layer 1
10
46.458712
20
424.484087
11
48.316386
21
423.906752
0
LINE
8
Layer 1
10
48.316386
20
423.906752
11
49.997959
21
422.993390
0
LINE
8
Layer 1
10
49.997959
20
422.993390
11
51.463449
21
421.783981
0
LINE
8
Layer 1
10
51.463449
20
421.783981
11
52.672873
21
420.318503
0
LINE
8
Layer 1
10
52.672873
20
420.318503
11
53.586250
21
418.636935
0
LINE
8
Layer 1
10
53.586250
20
418.636935
11
54.163596
21
416.779256
0
LINE
8
Layer 1
10
54.163596
20
416.779256
11
54.364930
21
414.785446
0
LINE
8
Layer 1
10
54.364930
20
414.785446
11
54.364920
21
414.785440
0
LINE
8
Layer 1
10
54.364920
20
411.154010
11
54.364920
21
411.053927
0
LINE
8
Layer 1
10
54.364920
20
411.053927
11
54.163586
21
409.060111
0
LINE
8
Layer 1
10
54.163586
20
409.060111
11
53.586240
21
407.202416
0
LINE
8
Layer 1
10
53.586240
20
407.202416
11
52.672863
21
405.520826
0
LINE
8
Layer 1
10
52.672863
20
405.520826
11
51.463439
21
404.055322
0
LINE
8
Layer 1
10
51.463439
20
404.055322
11
49.997949
21
402.845887
0
LINE
8
Layer 1
10
49.997949
20
402.845887
11
48.316376
21
401.932503
0
LINE
8
Layer 1
10
48.316376
20
401.932503
11
46.458702
21
401.355152
0
LINE
8
Layer 1
10
46.458702
20
401.355152
11
44.464910
21
401.153817
0
LINE
8
Layer 1
10
44.464910
20
401.153817
11
39.643810
21
401.153817
0
LINE
8
Layer 1
10
39.643810
20
401.153817
11
39.643810
21
411.154017
0
LINE
8
Layer 1
10
39.643810
20
411.154017
11
54.364910
21
411.154017
0
LINE
8
Layer 1
10
54.364910
20
411.154017
11
54.364920
21
411.154010
0
LINE
8
Layer 1
10
64.032700
20
387.741000
11
83.932900
21
387.741000
0
LINE
8
Layer 1
10
83.932900
20
387.741000
11
83.932900
21
384.740980
0
LINE
8
Layer 1
10
83.932900
20
384.740980
11
104.133000
21
384.740980
0
LINE
8
Layer 1
10
104.133000
20
384.740980
11
104.133000
21
387.741000
0
LINE
8
Layer 1
10
104.133000
20
387.741000
11
124.032800
21
387.741000
0
LINE
8
Layer 1
10
124.032800
20
387.741000
11
124.032800
21
394.690900
0
LINE
8
Layer 1
10
124.032800
20
394.690900
11
125.675400
21
394.556104
0
LINE
8
Layer 1
10
125.675400
20
394.556104
11
126.340034
21
394.587157
0
LINE
8
Layer 1
10
126.340034
20
394.587157
11
126.849410
21
394.869089
0
LINE
8
Layer 1
10
126.849410
20
394.869089
11
126.852938
21
394.873287
0
LINE
8
Layer 1
10
126.852938
20
394.873287
11
127.032855
21
395.593307
0
LINE
8
Layer 1
10
127.032855
20
395.593307
11
127.032855
21
423.901207
0
LINE
8
Layer 1
10
127.032855
20
423.901207
11
127.016561
21
424.271408
0
LINE
8
Layer 1
10
127.016561
20
424.271408
11
126.863239
21
424.584220
0
LINE
8
Layer 1
10
126.863239
20
424.584220
11
126.858653
21
424.589124
0
LINE
8
Layer 1
10
126.858653
20
424.589124
11
126.320238
21
424.891842
0
LINE
8
Layer 1
10
126.320238
20
424.891842
11
125.648233
21
424.934529
0
LINE
8
Layer 1
10
125.648233
20
424.934529
11
124.032823
21
424.790913
0
LINE
8
Layer 1
10
124.032823
20
424.790913
11
124.032823
21
434.590913
0
LINE
8
Layer 1
10
124.032823
20
434.590913
11
124.032823
21
444.691113
0
LINE
8
Layer 1
10
124.032823
20
444.691113
11
125.675423
21
444.556317
0
LINE
8
Layer 1
10
125.675423
20
444.556317
11
126.340056
21
444.587044
0
LINE
8
Layer 1
10
126.340056
20
444.587044
11
126.849433
21
444.868914
0
LINE
8
Layer 1
10
126.849433
20
444.868914
11
126.852960
21
444.873429
0
LINE
8
Layer 1
10
126.852960
20
444.873429
11
127.032877
21
445.593519
0
LINE
8
Layer 1
10
127.032877
20
445.593519
11
127.032877
21
473.901019
0
LINE
8
Layer 1
10
127.032877
20
473.901019
11
127.016583
21
474.271220
0
LINE
8
Layer 1
10
127.016583
20
474.271220
11
126.863261
21
474.584032
0
LINE
8
Layer 1
10
126.863261
20
474.584032
11
126.858675
21
474.588936
0
LINE
8
Layer 1
10
126.858675
20
474.588936
11
126.320261
21
474.891655
0
LINE
8
Layer 1
10
126.320261
20
474.891655
11
125.648255
21
474.934341
0
LINE
8
Layer 1
10
125.648255
20
474.934341
11
124.032845
21
474.790725
0
LINE
8
Layer 1
10
124.032845
20
474.790725
11
124.032845
21
481.740945
0
LINE
8
Layer 1
10
124.032845
20
481.740945
11
104.133045
21
481.740945
0
LINE
8
Layer 1
10
104.133045
20
481.740945
11
104.133045
21
484.740935
0
LINE
8
Layer 1
10
104.133045
20
484.740935
11
83.932945
21
484.740935
0
LINE
8
Layer 1
10
83.932945
20
484.740935
11
83.932945
21
481.740945
0
LINE
8
Layer 1
10
83.932945
20
481.740945
11
64.032745
21
481.740945
0
LINE
8
Layer 1
10
64.032745
20
481.740945
11
64.032700
21
387.741000
0
LINE
8
Layer 1
10
73.705910
20
412.331300
11
73.705910
21
412.225784
0
LINE
8
Layer 1
10
73.705910
20
412.225784
11
73.878990
21
410.124753
0
LINE
8
Layer 1
10
73.878990
20
410.124753
11
74.375312
21
408.167124
0
LINE
8
Layer 1
10
74.375312
20
408.167124
11
75.160502
21
406.395042
0
LINE
8
Layer 1
10
75.160502
20
406.395042
11
76.200184
21
404.850650
0
LINE
8
Layer 1
10
76.200184
20
404.850650
11
77.459983
21
403.576094
0
LINE
8
Layer 1
10
77.459983
20
403.576094
11
78.905524
21
402.613518
0
LINE
8
Layer 1
10
78.905524
20
402.613518
11
80.502431
21
402.005067
0
LINE
8
Layer 1
10
80.502431
20
402.005067
11
82.216330
21
401.792884
0
LINE
8
Layer 1
10
82.216330
20
401.792884
11
86.360730
21
401.792884
0
LINE
8
Layer 1
10
86.360730
20
401.792884
11
86.360730
21
412.331284
0
LINE
8
Layer 1
10
86.360730
20
412.331284
11
73.705930
21
412.331284
0
LINE
8
Layer 1
10
73.705930
20
412.331284
11
73.705910
21
412.331300
0
LINE
8
Layer 1
10
73.705910
20
415.513680
11
73.705910
21
415.408199
0
LINE
8
Layer 1
10
73.705910
20
415.408199
11
86.360710
21
415.408199
0
LINE
8
Layer 1
10
86.360710
20
415.408199
11
86.360710
21
425.946699
0
LINE
8
Layer 1
10
86.360710
20
425.946699
11
82.216310
21
425.946699
0
LINE
8
Layer 1
10
82.216310
20
425.946699
11
80.502411
21
425.734533
0
LINE
8
Layer 1
10
80.502411
20
425.734533
11
78.905504
21
425.126121
0
LINE
8
Layer 1
10
78.905504
20
425.126121
11
77.459963
21
424.163592
0
LINE
8
Layer 1
10
77.459963
20
424.163592
11
76.200164
21
422.889074
0
LINE
8
Layer 1
10
76.200164
20
422.889074
11
75.160482
21
421.344697
0
LINE
8
Layer 1
10
75.160482
20
421.344697
11
74.375292
21
419.572590
0
LINE
8
Layer 1
10
74.375292
20
419.572590
11
73.878970
21
417.614881
0
LINE
8
Layer 1
10
73.878970
20
417.614881
11
73.705890
21
415.513699
0
LINE
8
Layer 1
10
73.705890
20
415.513699
11
73.705910
21
415.513680
0
LINE
8
Layer 1
10
89.203200
20
425.946000
11
89.203200
21
415.407500
0
LINE
8
Layer 1
10
89.203200
20
415.407500
11
103.662100
21
415.407500
0
LINE
8
Layer 1
10
103.662100
20
415.407500
11
103.662100
21
425.946000
0
LINE
8
Layer 1
10
103.662100
20
425.946000
11
89.203200
21
425.946000
0
LINE
8
Layer 1
10
89.203200
20
425.946000
11
89.203200
21
425.946000
0
LINE
8
Layer 1
10
89.203200
20
412.330600
11
89.203200
21
401.792200
0
LINE
8
Layer 1
10
89.203200
20
401.792200
11
103.662100
21
401.792200
0
LINE
8
Layer 1
10
103.662100
20
401.792200
11
103.662100
21
412.330600
0
LINE
8
Layer 1
10
103.662100
20
412.330600
11
89.203200
21
412.330600
0
LINE
8
Layer 1
10
89.203200
20
412.330600
11
89.203200
21
412.330600
0
LINE
8
Layer 1
10
106.414000
20
425.946000
11
106.414000
21
415.407500
0
LINE
8
Layer 1
10
106.414000
20
415.407500
11
120.872900
21
415.407500
0
LINE
8
Layer 1
10
120.872900
20
415.407500
11
120.872900
21
425.946000
0
LINE
8
Layer 1
10
120.872900
20
425.946000
11
106.414000
21
425.946000
0
LINE
8
Layer 1
10
106.414000
20
425.946000
11
106.414000
21
425.946000
0
LINE
8
Layer 1
10
106.414000
20
412.330600
11
106.414000
21
401.792200
0
LINE
8
Layer 1
10
106.414000
20
401.792200
11
120.872900
21
401.792200
0
LINE
8
Layer 1
10
120.872900
20
401.792200
11
120.872900
21
412.330600
0
LINE
8
Layer 1
10
120.872900
20
412.330600
11
106.414000
21
412.330600
0
LINE
8
Layer 1
10
106.414000
20
412.330600
11
106.414000
21
412.330600
0
LINE
8
Layer 1
10
73.700900
20
454.687500
11
73.700900
21
454.587276
0
LINE
8
Layer 1
10
73.700900
20
454.587276
11
73.902246
21
452.593469
0
LINE
8
Layer 1
10
73.902246
20
452.593469
11
74.479624
21
450.735798
0
LINE
8
Layer 1
10
74.479624
20
450.735798
11
75.393039
21
449.054241
0
LINE
8
Layer 1
10
75.393039
20
449.054241
11
76.602497
21
447.588776
0
LINE
8
Layer 1
10
76.602497
20
447.588776
11
78.068007
21
446.379380
0
LINE
8
Layer 1
10
78.068007
20
446.379380
11
79.749575
21
445.466029
0
LINE
8
Layer 1
10
79.749575
20
445.466029
11
81.607207
21
444.888702
0
LINE
8
Layer 1
10
81.607207
20
444.888702
11
83.600910
21
444.687376
0
LINE
8
Layer 1
10
83.600910
20
444.687376
11
88.422010
21
444.687376
0
LINE
8
Layer 1
10
88.422010
20
444.687376
11
88.422010
21
454.687476
0
LINE
8
Layer 1
10
88.422010
20
454.687476
11
73.700910
21
454.687476
0
LINE
8
Layer 1
10
73.700910
20
454.687476
11
73.700900
21
454.687500
0
LINE
8
Layer 1
10
73.700900
20
458.319000
11
73.700900
21
458.218811
0
LINE
8
Layer 1
10
73.700900
20
458.218811
11
88.422000
21
458.218811
0
LINE
8
Layer 1
10
88.422000
20
458.218811
11
88.422000
21
468.219011
0
LINE
8
Layer 1
10
88.422000
20
468.219011
11
83.600900
21
468.219011
0
LINE
8
Layer 1
10
83.600900
20
468.219011
11
81.607200
21
468.017676
0
LINE
8
Layer 1
10
81.607200
20
468.017676
11
79.749569
21
467.440327
0
LINE
8
Layer 1
10
79.749569
20
467.440327
11
78.068002
21
466.526946
0
LINE
8
Layer 1
10
78.068002
20
466.526946
11
76.602491
21
465.317519
0
LINE
8
Layer 1
10
76.602491
20
465.317519
11
75.393031
21
463.852027
0
LINE
8
Layer 1
10
75.393031
20
463.852027
11
74.479615
21
462.170454
0
LINE
8
Layer 1
10
74.479615
20
462.170454
11
73.902237
21
460.312784
0
LINE
8
Layer 1
10
73.902237
20
460.312784
11
73.700890
21
458.319001
0
LINE
8
Layer 1
10
73.700890
20
458.319001
11
73.700900
21
458.319000
0
LINE
8
Layer 1
10
91.728600
20
468.219010
11
91.728600
21
458.218810
0
LINE
8
Layer 1
10
91.728600
20
458.218810
11
108.547900
21
458.218810
0
LINE
8
Layer 1
10
108.547900
20
458.218810
11
108.547900
21
468.219010
0
LINE
8
Layer 1
10
108.547900
20
468.219010
11
91.728600
21
468.219010
0
LINE
8
Layer 1
10
91.728600
20
468.219010
11
91.728600
21
468.219010
0
LINE
8
Layer 1
10
91.728600
20
454.687510
11
91.728600
21
444.687410
0
LINE
8
Layer 1
10
91.728600
20
444.687410
11
108.547900
21
444.687410
0
LINE
8
Layer 1
10
108.547900
20
444.687410
11
108.547900
21
454.687510
0
LINE
8
Layer 1
10
108.547900
20
454.687510
11
91.728600
21
454.687510
0
LINE
8
Layer 1
10
91.728600
20
454.687510
11
91.728600
21
454.687510
0
LINE
8
Layer 1
10
129.625000
20
539.137000
11
129.525199
21
539.137000
0
LINE
8
Layer 1
10
129.525199
20
539.137000
11
127.531387
21
538.935654
0
LINE
8
Layer 1
10
127.531387
20
538.935654
11
125.673704
21
538.358276
0
LINE
8
Layer 1
10
125.673704
20
538.358276
11
123.992130
21
537.444861
0
LINE
8
Layer 1
10
123.992130
20
537.444861
11
122.526644
21
536.235402
0
LINE
8
Layer 1
10
122.526644
20
536.235402
11
121.317227
21
534.769893
0
LINE
8
Layer 1
10
121.317227
20
534.769893
11
120.403859
21
533.088325
0
LINE
8
Layer 1
10
120.403859
20
533.088325
11
119.826520
21
531.230693
0
LINE
8
Layer 1
10
119.826520
20
531.230693
11
119.625189
21
529.236990
0
LINE
8
Layer 1
10
119.625189
20
529.236990
11
119.625189
21
524.415890
0
LINE
8
Layer 1
10
119.625189
20
524.415890
11
129.624999
21
524.415890
0
LINE
8
Layer 1
10
129.624999
20
524.415890
11
129.624999
21
539.136990
0
LINE
8
Layer 1
10
129.624999
20
539.136990
11
129.625000
21
539.137000
0
LINE
8
Layer 1
10
133.256500
20
539.137000
11
133.156699
21
539.137000
0
LINE
8
Layer 1
10
133.156699
20
539.137000
11
133.156699
21
524.415900
0
LINE
8
Layer 1
10
133.156699
20
524.415900
11
143.156509
21
524.415900
0
LINE
8
Layer 1
10
143.156509
20
524.415900
11
143.156509
21
529.237000
0
LINE
8
Layer 1
10
143.156509
20
529.237000
11
142.955178
21
531.230700
0
LINE
8
Layer 1
10
142.955178
20
531.230700
11
142.377839
21
533.088331
0
LINE
8
Layer 1
10
142.377839
20
533.088331
11
141.464471
21
534.769898
0
LINE
8
Layer 1
10
141.464471
20
534.769898
11
140.255054
21
536.235409
0
LINE
8
Layer 1
10
140.255054
20
536.235409
11
138.789569
21
537.444869
0
LINE
8
Layer 1
10
138.789569
20
537.444869
11
137.107994
21
538.358285
0
LINE
8
Layer 1
10
137.107994
20
538.358285
11
135.250311
21
538.935663
0
LINE
8
Layer 1
10
135.250311
20
538.935663
11
133.256499
21
539.137010
0
LINE
8
Layer 1
10
133.256499
20
539.137010
11
133.256500
21
539.137000
0
LINE
8
Layer 1
10
143.156510
20
521.109400
11
133.156700
21
521.109400
0
LINE
8
Layer 1
10
133.156700
20
521.109400
11
133.156700
21
504.290000
0
LINE
8
Layer 1
10
133.156700
20
504.290000
11
143.156510
21
504.290000
0
LINE
8
Layer 1
10
143.156510
20
504.290000
11
143.156510
21
521.109400
0
LINE
8
Layer 1
10
143.156510
20
521.109400
11
143.156510
21
521.109400
0
LINE
8
Layer 1
10
129.625010
20
521.109400
11
119.625200
21
521.109400
0
LINE
8
Layer 1
10
119.625200
20
521.109400
11
119.625200
21
504.290000
0
LINE
8
Layer 1
10
119.625200
20
504.290000
11
129.625010
21
504.290000
0
LINE
8
Layer 1
10
129.625010
20
504.290000
11
129.625010
21
521.109400
0
LINE
8
Layer 1
10
129.625010
20
521.109400
11
129.625010
21
521.109400
0
LINE
8
Layer 1
10
173.159610
20
539.137000
11
173.059386
21
539.137000
0
LINE
8
Layer 1
10
173.059386
20
539.137000
11
171.065694
21
538.935654
0
LINE
8
Layer 1
10
171.065694
20
538.935654
11
169.208068
21
538.358276
0
LINE
8
Layer 1
10
169.208068
20
538.358276
11
167.526501
21
537.444861
0
LINE
8
Layer 1
10
167.526501
20
537.444861
11
166.060988
21
536.235402
0
LINE
8
Layer 1
10
166.060988
20
536.235402
11
164.851525
21
534.769893
0
LINE
8
Layer 1
10
164.851525
20
534.769893
11
163.938105
21
533.088325
0
LINE
8
Layer 1
10
163.938105
20
533.088325
11
163.360724
21
531.230693
0
LINE
8
Layer 1
10
163.360724
20
531.230693
11
163.159376
21
529.236990
0
LINE
8
Layer 1
10
163.159376
20
529.236990
11
163.159376
21
524.415890
0
LINE
8
Layer 1
10
163.159376
20
524.415890
11
173.159576
21
524.415890
0
LINE
8
Layer 1
10
173.159576
20
524.415890
11
173.159576
21
539.136990
0
LINE
8
Layer 1
10
173.159576
20
539.136990
11
173.159610
21
539.137000
0
LINE
8
Layer 1
10
176.791110
20
539.137000
11
176.691203
21
539.137000
0
LINE
8
Layer 1
10
176.691203
20
539.137000
11
176.691203
21
524.415900
0
LINE
8
Layer 1
10
176.691203
20
524.415900
11
186.691123
21
524.415900
0
LINE
8
Layer 1
10
186.691123
20
524.415900
11
186.691123
21
529.237000
0
LINE
8
Layer 1
10
186.691123
20
529.237000
11
186.489788
21
531.230700
0
LINE
8
Layer 1
10
186.489788
20
531.230700
11
185.912439
21
533.088331
0
LINE
8
Layer 1
10
185.912439
20
533.088331
11
184.999059
21
534.769898
0
LINE
8
Layer 1
10
184.999059
20
534.769898
11
183.789631
21
536.235409
0
LINE
8
Layer 1
10
183.789631
20
536.235409
11
182.324139
21
537.444869
0
LINE
8
Layer 1
10
182.324139
20
537.444869
11
180.642566
21
538.358285
0
LINE
8
Layer 1
10
180.642566
20
538.358285
11
178.784897
21
538.935663
0
LINE
8
Layer 1
10
178.784897
20
538.935663
11
176.791113
21
539.137010
0
LINE
8
Layer 1
10
176.791113
20
539.137010
11
176.791110
21
539.137000
0
LINE
8
Layer 1
10
186.691120
20
521.109400
11
176.691200
21
521.109400
0
LINE
8
Layer 1
10
176.691200
20
521.109400
11
176.691200
21
504.290000
0
LINE
8
Layer 1
10
176.691200
20
504.290000
11
186.691120
21
504.290000
0
LINE
8
Layer 1
10
186.691120
20
504.290000
11
186.691120
21
521.109400
0
LINE
8
Layer 1
10
186.691120
20
521.109400
11
186.691120
21
521.109400
0
LINE
8
Layer 1
10
173.159620
20
521.109400
11
163.159420
21
521.109400
0
LINE
8
Layer 1
10
163.159420
20
521.109400
11
163.159420
21
504.290000
0
LINE
8
Layer 1
10
163.159420
20
504.290000
11
173.159620
21
504.290000
0
LINE
8
Layer 1
10
173.159620
20
504.290000
11
173.159620
21
521.109400
0
LINE
8
Layer 1
10
173.159620
20
521.109400
11
173.159620
21
521.109400
0
LINE
8
Layer 1
10
163.138000
20
570.382000
11
161.873330
21
571.380397
0
LINE
8
Layer 1
10
161.873330
20
571.380397
11
160.175487
21
572.368009
0
LINE
8
Layer 1
10
160.175487
20
572.368009
11
158.284546
21
573.157074
0
LINE
8
Layer 1
10
158.284546
20
573.157074
11
156.309270
21
573.726933
0
LINE
8
Layer 1
10
156.309270
20
573.726933
11
154.358420
21
574.056927
0
LINE
8
Layer 1
10
154.358420
20
574.056927
11
154.357362
21
561.569327
0
LINE
8
Layer 1
10
154.357362
20
561.569327
11
163.137932
21
570.382037
0
LINE
8
Layer 1
10
163.137932
20
570.382037
11
163.138000
21
570.382000
0
LINE
8
Layer 1
10
152.067100
20
574.048100
11
152.067806
21
561.569600
0
LINE
8
Layer 1
10
152.067806
20
561.569600
11
143.226906
21
570.402100
0
LINE
8
Layer 1
10
143.226906
20
570.402100
11
144.550816
21
571.380389
0
LINE
8
Layer 1
10
144.550816
20
571.380389
11
146.249341
21
572.367321
0
LINE
8
Layer 1
10
146.249341
20
572.367321
11
148.140188
21
573.153451
0
LINE
8
Layer 1
10
148.140188
20
573.153451
11
150.115428
21
573.719978
0
LINE
8
Layer 1
10
150.115428
20
573.719978
11
152.067136
21
574.048099
0
LINE
8
Layer 1
10
152.067136
20
574.048099
11
152.067100
21
574.048100
0
LINE
8
Layer 1
10
151.591202
20
558.804900
11
141.677082
21
568.661910
0
LINE
8
Layer 1
10
141.677082
20
568.661910
11
140.217320
21
566.526084
0
LINE
8
Layer 1
10
140.217320
20
566.526084
11
139.030040
21
564.101047
0
LINE
8
Layer 1
10
139.030040
20
564.101047
11
138.232028
21
561.492189
0
LINE
8
Layer 1
10
138.232028
20
561.492189
11
137.940072
21
558.804900
0
LINE
8
Layer 1
10
137.940072
20
558.804900
11
151.591172
21
558.804900
0
LINE
8
Layer 1
10
151.591172
20
558.804900
11
151.591202
21
558.804900
0
LINE
8
Layer 1
10
168.484002
20
558.804900
11
168.200644
21
561.507668
0
LINE
8
Layer 1
10
168.200644
20
561.507668
11
167.421578
21
564.150589
0
LINE
8
Layer 1
10
167.421578
20
564.150589
11
166.253317
21
566.609690
0
LINE
8
Layer 1
10
166.253317
20
566.609690
11
164.802372
21
568.761000
0
LINE
8
Layer 1
10
164.802372
20
568.761000
11
154.912982
21
558.798870
0
LINE
8
Layer 1
10
154.912982
20
558.798870
11
168.483982
21
558.804902
0
LINE
8
Layer 1
10
168.483982
20
558.804902
11
168.484002
21
558.804900
0
LINE
8
Layer 1
10
110.361402
20
555.954490
11
117.432482
21
563.025500
0
LINE
8
Layer 1
10
117.432482
20
563.025500
11
116.175882
21
564.091600
0
LINE
8
Layer 1
10
116.175882
20
564.091600
11
115.727620
21
564.583532
0
LINE
8
Layer 1
10
115.727620
20
564.583532
11
115.566987
21
565.142880
0
LINE
8
Layer 1
10
115.566987
20
565.142880
11
115.567304
21
565.148595
0
LINE
8
Layer 1
10
115.567304
20
565.148595
11
115.949398
21
565.785007
0
LINE
8
Layer 1
10
115.949398
20
565.785007
11
121.965288
21
571.800897
0
LINE
8
Layer 1
10
121.965288
20
571.800897
11
122.238586
21
572.051061
0
LINE
8
Layer 1
10
122.238586
20
572.051061
11
122.568186
21
572.163906
0
LINE
8
Layer 1
10
122.568186
20
572.163906
11
122.574889
21
572.164294
0
LINE
8
Layer 1
10
122.574889
20
572.164294
11
123.169735
21
571.997571
0
LINE
8
Layer 1
10
123.169735
20
571.997571
11
123.674889
21
571.552506
0
LINE
8
Layer 1
10
123.674889
20
571.552506
11
124.715899
21
570.308606
0
LINE
8
Layer 1
10
124.715899
20
570.308606
11
131.786589
21
577.379686
0
LINE
8
Layer 1
10
131.786589
20
577.379686
11
138.857709
21
584.450806
0
LINE
8
Layer 1
10
138.857709
20
584.450806
11
137.601109
21
585.516906
0
LINE
8
Layer 1
10
137.601109
20
585.516906
11
137.152993
21
586.008841
0
LINE
8
Layer 1
10
137.152993
20
586.008841
11
136.992214
21
586.568216
0
LINE
8
Layer 1
10
136.992214
20
586.568216
11
136.992567
21
586.573790
0
LINE
8
Layer 1
10
136.992567
20
586.573790
11
137.374555
21
587.210202
0
LINE
8
Layer 1
10
137.374555
20
587.210202
11
143.390585
21
593.226192
0
LINE
8
Layer 1
10
143.390585
20
593.226192
11
143.663829
21
593.476329
0
LINE
8
Layer 1
10
143.663829
20
593.476329
11
143.993483
21
593.589201
0
LINE
8
Layer 1
10
143.993483
20
593.589201
11
144.000186
21
593.589518
0
LINE
8
Layer 1
10
144.000186
20
593.589518
11
144.595027
21
593.422857
0
LINE
8
Layer 1
10
144.595027
20
593.422857
11
145.100466
21
592.977801
0
LINE
8
Layer 1
10
145.100466
20
592.977801
11
146.141166
21
591.733901
0
LINE
8
Layer 1
10
146.141166
20
591.733901
11
153.211896
21
598.805021
0
LINE
8
Layer 1
10
153.211896
20
598.805021
11
160.282976
21
591.733901
0
LINE
8
Layer 1
10
160.282976
20
591.733901
11
161.323676
21
592.977801
0
LINE
8
Layer 1
10
161.323676
20
592.977801
11
161.829105
21
593.422857
0
LINE
8
Layer 1
10
161.829105
20
593.422857
11
162.423986
21
593.589518
0
LINE
8
Layer 1
10
162.423986
20
593.589518
11
162.430689
21
593.589201
0
LINE
8
Layer 1
10
162.430689
20
593.589201
11
162.760302
21
593.476329
0
LINE
8
Layer 1
10
162.760302
20
593.476329
11
163.033587
21
593.226192
0
LINE
8
Layer 1
10
163.033587
20
593.226192
11
169.049477
21
587.210202
0
LINE
8
Layer 1
10
169.049477
20
587.210202
11
169.431606
21
586.573790
0
LINE
8
Layer 1
10
169.431606
20
586.573790
11
169.431888
21
586.568216
0
LINE
8
Layer 1
10
169.431888
20
586.568216
11
169.271109
21
586.008838
0
LINE
8
Layer 1
10
169.271109
20
586.008838
11
168.822993
21
585.516906
0
LINE
8
Layer 1
10
168.822993
20
585.516906
11
167.566393
21
584.450806
0
LINE
8
Layer 1
10
167.566393
20
584.450806
11
174.637083
21
577.379686
0
LINE
8
Layer 1
10
174.637083
20
577.379686
11
181.708203
21
570.308606
0
LINE
8
Layer 1
10
181.708203
20
570.308606
11
182.749283
21
571.552506
0
LINE
8
Layer 1
10
182.749283
20
571.552506
11
183.254387
21
571.997571
0
LINE
8
Layer 1
10
183.254387
20
571.997571
11
183.849213
21
572.164294
0
LINE
8
Layer 1
10
183.849213
20
572.164294
11
183.855880
21
572.163906
0
LINE
8
Layer 1
10
183.855880
20
572.163906
11
184.185551
21
572.051061
0
LINE
8
Layer 1
10
184.185551
20
572.051061
11
184.458813
21
571.800897
0
LINE
8
Layer 1
10
184.458813
20
571.800897
11
190.474703
21
565.785007
0
LINE
8
Layer 1
10
190.474703
20
565.785007
11
190.856797
21
565.148595
0
LINE
8
Layer 1
10
190.856797
20
565.148595
11
190.857150
21
565.142880
0
LINE
8
Layer 1
10
190.857150
20
565.142880
11
190.696341
21
564.583533
0
LINE
8
Layer 1
10
190.696341
20
564.583533
11
190.248220
21
564.091600
0
LINE
8
Layer 1
10
190.248220
20
564.091600
11
188.991620
21
563.025500
0
LINE
8
Layer 1
10
188.991620
20
563.025500
11
196.062630
21
555.954490
0
LINE
8
Layer 1
10
196.062630
20
555.954490
11
203.212030
21
548.805090
0
LINE
8
Layer 1
10
203.212030
20
548.805090
11
203.212030
21
528.804990
0
LINE
8
Layer 1
10
203.212030
20
528.804990
11
200.212040
21
528.804990
0
LINE
8
Layer 1
10
200.212040
20
528.804990
11
200.212040
21
508.804990
0
LINE
8
Layer 1
10
200.212040
20
508.804990
11
203.212030
21
508.804990
0
LINE
8
Layer 1
10
203.212030
20
508.804990
11
203.212030
21
488.805090
0
LINE
8
Layer 1
10
203.212030
20
488.805090
11
193.062130
21
488.805090
0
LINE
8
Layer 1
10
193.062130
20
488.805090
11
193.205746
21
487.189680
0
LINE
8
Layer 1
10
193.205746
20
487.189680
11
193.162835
21
486.517709
0
LINE
8
Layer 1
10
193.162835
20
486.517709
11
192.860341
21
485.979300
0
LINE
8
Layer 1
10
192.860341
20
485.979300
11
192.855155
21
485.974784
0
LINE
8
Layer 1
10
192.855155
20
485.974784
11
192.542343
21
485.821401
0
LINE
8
Layer 1
10
192.542343
20
485.821401
11
192.172142
21
485.805098
0
LINE
8
Layer 1
10
192.172142
20
485.805098
11
164.264542
21
485.805098
0
LINE
8
Layer 1
10
164.264542
20
485.805098
11
163.544416
21
485.984980
0
LINE
8
Layer 1
10
163.544416
20
485.984980
11
163.539936
21
485.988508
0
LINE
8
Layer 1
10
163.539936
20
485.988508
11
163.258040
21
486.497880
0
LINE
8
Layer 1
10
163.258040
20
486.497880
11
163.227339
21
487.162588
0
LINE
8
Layer 1
10
163.227339
20
487.162588
11
163.362030
21
488.805088
0
LINE
8
Layer 1
10
163.362030
20
488.805088
11
153.061930
21
488.805088
0
LINE
8
Layer 1
10
153.061930
20
488.805088
11
143.061930
21
488.805088
0
LINE
8
Layer 1
10
143.061930
20
488.805088
11
143.205546
21
487.189678
0
LINE
8
Layer 1
10
143.205546
20
487.189678
11
143.162847
21
486.517707
0
LINE
8
Layer 1
10
143.162847
20
486.517707
11
142.860141
21
485.979298
0
LINE
8
Layer 1
10
142.860141
20
485.979298
11
142.855237
21
485.974783
0
LINE
8
Layer 1
10
142.855237
20
485.974783
11
142.542425
21
485.821399
0
LINE
8
Layer 1
10
142.542425
20
485.821399
11
142.172224
21
485.805097
0
LINE
8
Layer 1
10
142.172224
20
485.805097
11
114.264624
21
485.805097
0
LINE
8
Layer 1
10
114.264624
20
485.805097
11
113.544498
21
485.984979
0
LINE
8
Layer 1
10
113.544498
20
485.984979
11
113.540018
21
485.988506
0
LINE
8
Layer 1
10
113.540018
20
485.988506
11
113.258069
21
486.497878
0
LINE
8
Layer 1
10
113.258069
20
486.497878
11
113.226998
21
487.162586
0
LINE
8
Layer 1
10
113.226998
20
487.162586
11
113.361794
21
488.805086
0
LINE
8
Layer 1
10
113.361794
20
488.805086
11
103.211894
21
488.805086
0
LINE
8
Layer 1
10
103.211894
20
488.805086
11
103.211894
21
508.804986
0
LINE
8
Layer 1
10
103.211894
20
508.804986
11
106.211884
21
508.804986
0
LINE
8
Layer 1
10
106.211884
20
508.804986
11
106.211884
21
528.804986
0
LINE
8
Layer 1
10
106.211884
20
528.804986
11
103.211894
21
528.804986
0
LINE
8
Layer 1
10
103.211894
20
528.804986
11
103.211894
21
548.805086
0
LINE
8
Layer 1
10
103.211894
20
548.805086
11
110.361294
21
555.954486
0
LINE
8
Layer 1
10
110.361294
20
555.954486
11
110.361402
21
555.954490
0
LINE
8
Layer 1
10
129.927000
20
475.285000
11
214.927100
21
475.285000
0
LINE
8
Layer 1
10
214.927100
20
475.285000
11
214.927100
21
359.285000
0
LINE
8
Layer 1
10
214.927100
20
359.285000
11
129.927000
21
359.285000
0
LINE
8
Layer 1
10
129.927000
20
359.285000
11
129.927000
21
475.285000
0
LINE
8
Layer 1
10
129.927000
20
475.285000
11
129.927000
21
475.285000
0
LINE
8
Layer 1
10
164.477300
20
464.285100
11
164.477300
21
467.285120
0
LINE
8
Layer 1
10
164.477300
20
467.285120
11
174.477220
21
467.285120
0
LINE
8
Layer 1
10
174.477220
20
467.285120
11
174.477220
21
464.285100
0
LINE
8
Layer 1
10
174.477220
20
464.285100
11
164.477300
21
464.285100
0
LINE
8
Layer 1
10
164.477300
20
464.285100
11
164.477300
21
464.285100
0
LINE
8
Layer 1
10
194.777000
20
464.285100
11
194.777000
21
467.285120
0
LINE
8
Layer 1
10
194.777000
20
467.285120
11
204.777200
21
467.285120
0
LINE
8
Layer 1
10
204.777200
20
467.285120
11
204.777200
21
464.285100
0
LINE
8
Layer 1
10
204.777200
20
464.285100
11
194.777000
21
464.285100
0
LINE
8
Layer 1
10
194.777000
20
464.285100
11
194.777000
21
464.285100
0
LINE
8
Layer 1
10
194.777000
20
367.285400
11
194.777000
21
370.285390
0
LINE
8
Layer 1
10
194.777000
20
370.285390
11
204.777200
21
370.285390
0
LINE
8
Layer 1
10
204.777200
20
370.285390
11
204.777200
21
367.285400
0
LINE
8
Layer 1
10
204.777200
20
367.285400
11
194.777000
21
367.285400
0
LINE
8
Layer 1
10
194.777000
20
367.285400
11
194.777000
21
367.285400
0
LINE
8
Layer 1
10
164.477300
20
367.285400
11
164.477300
21
370.285390
0
LINE
8
Layer 1
10
164.477300
20
370.285390
11
174.477220
21
370.285390
0
LINE
8
Layer 1
10
174.477220
20
370.285390
11
174.477220
21
367.285400
0
LINE
8
Layer 1
10
174.477220
20
367.285400
11
164.477300
21
367.285400
0
LINE
8
Layer 1
10
164.477300
20
367.285400
11
164.477300
21
367.285400
0
LINE
8
Layer 1
10
214.927000
20
475.285000
11
302.926700
21
475.285000
0
LINE
8
Layer 1
10
302.926700
20
475.285000
11
302.926700
21
359.285000
0
LINE
8
Layer 1
10
302.926700
20
359.285000
11
214.927000
21
359.285000
0
LINE
8
Layer 1
10
214.927000
20
359.285000
11
214.927000
21
475.285000
0
LINE
8
Layer 1
10
268.376700
20
370.285000
11
268.376700
21
367.285010
0
LINE
8
Layer 1
10
268.376700
20
367.285010
11
258.376890
21
367.285010
0
LINE
8
Layer 1
10
258.376890
20
367.285010
11
258.376890
21
370.285000
0
LINE
8
Layer 1
10
258.376890
20
370.285000
11
268.376700
21
370.285000
0
LINE
8
Layer 1
10
268.376700
20
370.285000
11
268.376700
21
370.285000
0
LINE
8
Layer 1
10
238.077000
20
370.285000
11
238.077000
21
367.285010
0
LINE
8
Layer 1
10
238.077000
20
367.285010
11
228.076800
21
367.285010
0
LINE
8
Layer 1
10
228.076800
20
367.285010
11
228.076800
21
370.285000
0
LINE
8
Layer 1
10
228.076800
20
370.285000
11
238.077000
21
370.285000
0
LINE
8
Layer 1
10
238.077000
20
370.285000
11
238.077000
21
370.285000
0
LINE
8
Layer 1
10
238.077000
20
467.285200
11
238.077000
21
464.285110
0
LINE
8
Layer 1
10
238.077000
20
464.285110
11
228.076800
21
464.285110
0
LINE
8
Layer 1
10
228.076800
20
464.285110
11
228.076800
21
467.285200
0
LINE
8
Layer 1
10
228.076800
20
467.285200
11
238.077000
21
467.285200
0
LINE
8
Layer 1
10
238.077000
20
467.285200
11
238.077000
21
467.285200
0
LINE
8
Layer 1
10
268.376700
20
467.285200
11
268.376700
21
464.285110
0
LINE
8
Layer 1
10
268.376700
20
464.285110
11
258.376890
21
464.285110
0
LINE
8
Layer 1
10
258.376890
20
464.285110
11
258.376890
21
467.285200
0
LINE
8
Layer 1
10
258.376890
20
467.285200
11
268.376700
21
467.285200
0
LINE
8
Layer 1
10
268.376700
20
467.285200
11
268.376700
21
467.285200
0
LINE
8
Layer 1
10
286.611000
20
359.285000
11
288.942769
21
359.519731
0
LINE
8
Layer 1
10
288.942769
20
359.519731
11
291.114730
21
360.192931
0
LINE
8
Layer 1
10
291.114730
20
360.192931
11
293.080313
21
361.258112
0
LINE
8
Layer 1
10
293.080313
20
361.258112
11
294.792949
21
362.668784
0
LINE
8
Layer 1
10
294.792949
20
362.668784
11
296.206066
21
364.378458
0
LINE
8
Layer 1
10
296.206066
20
364.378458
11
297.273093
21
366.340644
0
LINE
8
Layer 1
10
297.273093
20
366.340644
11
297.947462
21
368.508855
0
LINE
8
Layer 1
10
297.947462
20
368.508855
11
298.182600
21
370.836600
0
LINE
8
Layer 1
10
298.182600
20
370.836600
11
297.947462
21
373.164324
0
LINE
8
Layer 1
10
297.947462
20
373.164324
11
297.273096
21
375.332515
0
LINE
8
Layer 1
10
297.273096
20
375.332515
11
296.206071
21
377.294684
0
LINE
8
Layer 1
10
296.206071
20
377.294684
11
294.792956
21
379.004344
0
LINE
8
Layer 1
10
294.792956
20
379.004344
11
293.080322
21
380.415004
0
LINE
8
Layer 1
10
293.080322
20
380.415004
11
291.114738
21
381.480176
0
LINE
8
Layer 1
10
291.114738
20
381.480176
11
288.942774
21
382.153371
0
LINE
8
Layer 1
10
288.942774
20
382.153371
11
286.611000
21
382.388100
0
LINE
8
Layer 1
10
286.611000
20
382.388100
11
288.942769
21
382.622829
0
LINE
8
Layer 1
10
288.942769
20
382.622829
11
291.114730
21
383.296026
0
LINE
8
Layer 1
10
291.114730
20
383.296026
11
293.080313
21
384.361201
0
LINE
8
Layer 1
10
293.080313
20
384.361201
11
294.792949
21
385.771869
0
LINE
8
Layer 1
10
294.792949
20
385.771869
11
296.206066
21
387.481540
0
LINE
8
Layer 1
10
296.206066
20
387.481540
11
297.273093
21
389.443727
0
LINE
8
Layer 1
10
297.273093
20
389.443727
11
297.947462
21
391.611943
0
LINE
8
Layer 1
10
297.947462
20
391.611943
11
298.182600
21
393.939700
0
LINE
8
Layer 1
10
298.182600
20
393.939700
11
297.947462
21
396.267424
0
LINE
8
Layer 1
10
297.947462
20
396.267424
11
297.273096
21
398.435615
0
LINE
8
Layer 1
10
297.273096
20
398.435615
11
296.206071
21
400.397784
0
LINE
8
Layer 1
10
296.206071
20
400.397784
11
294.792956
21
402.107444
0
LINE
8
Layer 1
10
294.792956
20
402.107444
11
293.080322
21
403.518104
0
LINE
8
Layer 1
10
293.080322
20
403.518104
11
291.114738
21
404.583276
0
LINE
8
Layer 1
10
291.114738
20
404.583276
11
288.942774
21
405.256471
0
LINE
8
Layer 1
10
288.942774
20
405.256471
11
286.611000
21
405.491200
0
LINE
8
Layer 1
10
286.611000
20
405.491059
11
288.942769
21
405.725790
0
LINE
8
Layer 1
10
288.942769
20
405.725790
11
291.114730
21
406.398992
0
LINE
8
Layer 1
10
291.114730
20
406.398992
11
293.080313
21
407.464176
0
LINE
8
Layer 1
10
293.080313
20
407.464176
11
294.792949
21
408.874855
0
LINE
8
Layer 1
10
294.792949
20
408.874855
11
296.206066
21
410.584541
0
LINE
8
Layer 1
10
296.206066
20
410.584541
11
297.273093
21
412.546745
0
LINE
8
Layer 1
10
297.273093
20
412.546745
11
297.947462
21
414.714981
0
LINE
8
Layer 1
10
297.947462
20
414.714981
11
298.182600
21
417.042759
0
LINE
8
Layer 1
10
298.182600
20
417.042759
11
297.947462
21
419.370471
0
LINE
8
Layer 1
10
297.947462
20
419.370471
11
297.273096
21
421.538657
0
LINE
8
Layer 1
10
297.273096
20
421.538657
11
296.206071
21
423.500826
0
LINE
8
Layer 1
10
296.206071
20
423.500826
11
294.792956
21
425.210488
0
LINE
8
Layer 1
10
294.792956
20
425.210488
11
293.080322
21
426.621152
0
LINE
8
Layer 1
10
293.080322
20
426.621152
11
291.114738
21
427.686329
0
LINE
8
Layer 1
10
291.114738
20
427.686329
11
288.942774
21
428.359528
0
LINE
8
Layer 1
10
288.942774
20
428.359528
11
286.611000
21
428.594259
0
LINE
8
Layer 1
10
286.611000
20
428.594118
11
288.942769
21
428.828847
0
LINE
8
Layer 1
10
288.942769
20
428.828847
11
291.114730
21
429.502044
0
LINE
8
Layer 1
10
291.114730
20
429.502044
11
293.080313
21
430.567219
0
LINE
8
Layer 1
10
293.080313
20
430.567219
11
294.792949
21
431.977887
0
LINE
8
Layer 1
10
294.792949
20
431.977887
11
296.206066
21
433.687558
0
LINE
8
Layer 1
10
296.206066
20
433.687558
11
297.273093
21
435.649745
0
LINE
8
Layer 1
10
297.273093
20
435.649745
11
297.947462
21
437.817961
0
LINE
8
Layer 1
10
297.947462
20
437.817961
11
298.182600
21
440.145718
0
LINE
8
Layer 1
10
298.182600
20
440.145718
11
297.947462
21
442.473442
0
LINE
8
Layer 1
10
297.947462
20
442.473442
11
297.273096
21
444.641633
0
LINE
8
Layer 1
10
297.273096
20
444.641633
11
296.206071
21
446.603802
0
LINE
8
Layer 1
10
296.206071
20
446.603802
11
294.792956
21
448.313462
0
LINE
8
Layer 1
10
294.792956
20
448.313462
11
293.080322
21
449.724122
0
LINE
8
Layer 1
10
293.080322
20
449.724122
11
291.114738
21
450.789294
0
LINE
8
Layer 1
10
291.114738
20
450.789294
11
288.942774
21
451.462489
0
LINE
8
Layer 1
10
288.942774
20
451.462489
11
286.611000
21
451.697218
0
LINE
8
Layer 1
10
286.611000
20
451.697077
11
288.942769
21
451.931806
0
LINE
8
Layer 1
10
288.942769
20
451.931806
11
291.114730
21
452.605002
0
LINE
8
Layer 1
10
291.114730
20
452.605002
11
293.080313
21
453.670178
0
LINE
8
Layer 1
10
293.080313
20
453.670178
11
294.792949
21
455.080845
0
LINE
8
Layer 1
10
294.792949
20
455.080845
11
296.206066
21
456.790517
0
LINE
8
Layer 1
10
296.206066
20
456.790517
11
297.273093
21
458.752704
0
LINE
8
Layer 1
10
297.273093
20
458.752704
11
297.947462
21
460.920920
0
LINE
8
Layer 1
10
297.947462
20
460.920920
11
298.182600
21
463.248677
0
LINE
8
Layer 1
10
298.182600
20
463.248677
11
297.947462
21
465.576400
0
LINE
8
Layer 1
10
297.947462
20
465.576400
11
297.273096
21
467.744592
0
LINE
8
Layer 1
10
297.273096
20
467.744592
11
296.206071
21
469.706761
0
LINE
8
Layer 1
10
296.206071
20
469.706761
11
294.792956
21
471.416420
0
LINE
8
Layer 1
10
294.792956
20
471.416420
11
293.080322
21
472.827080
0
LINE
8
Layer 1
10
293.080322
20
472.827080
11
291.114738
21
473.892252
0
LINE
8
Layer 1
10
291.114738
20
473.892252
11
288.942774
21
474.565447
0
LINE
8
Layer 1
10
288.942774
20
474.565447
11
286.611000
21
474.800177
0
LINE
8
Layer 1
10
267.147000
20
359.285000
11
270.048059
21
359.544459
0
LINE
8
Layer 1
10
270.048059
20
359.544459
11
272.538159
21
360.277711
0
LINE
8
Layer 1
10
272.538159
20
360.277711
11
274.622477
21
361.417073
0
LINE
8
Layer 1
10
274.622477
20
361.417073
11
276.306187
21
362.894859
0
LINE
8
Layer 1
10
276.306187
20
362.894859
11
277.594465
21
364.643385
0
LINE
8
Layer 1
10
277.594465
20
364.643385
11
278.492484
21
366.594965
0
LINE
8
Layer 1
10
278.492484
20
366.594965
11
279.005421
21
368.681915
0
LINE
8
Layer 1
10
279.005421
20
368.681915
11
279.138450
21
370.836550
0
LINE
8
Layer 1
10
279.138450
20
370.836550
11
278.896746
21
372.991185
0
LINE
8
Layer 1
10
278.896746
20
372.991185
11
278.285484
21
375.078135
0
LINE
8
Layer 1
10
278.285484
20
375.078135
11
277.309840
21
377.029715
0
LINE
8
Layer 1
10
277.309840
20
377.029715
11
275.974987
21
378.778241
0
LINE
8
Layer 1
10
275.974987
20
378.778241
11
274.286102
21
380.256027
0
LINE
8
Layer 1
10
274.286102
20
380.256027
11
272.248359
21
381.395389
0
LINE
8
Layer 1
10
272.248359
20
381.395389
11
269.866934
21
382.128641
0
LINE
8
Layer 1
10
269.866934
20
382.128641
11
267.147000
21
382.388100
0
LINE
8
Layer 1
10
267.147000
20
382.388100
11
269.478764
21
382.622833
0
LINE
8
Layer 1
10
269.478764
20
382.622833
11
271.650714
21
383.296039
0
LINE
8
Layer 1
10
271.650714
20
383.296039
11
273.616282
21
384.361230
0
LINE
8
Layer 1
10
273.616282
20
384.361230
11
275.328899
21
385.771920
0
LINE
8
Layer 1
10
275.328899
20
385.771920
11
276.741997
21
387.481620
0
LINE
8
Layer 1
10
276.741997
20
387.481620
11
277.809009
21
389.443841
0
LINE
8
Layer 1
10
277.809009
20
389.443841
11
278.483366
21
391.612097
0
LINE
8
Layer 1
10
278.483366
20
391.612097
11
278.718500
21
393.939900
0
LINE
8
Layer 1
10
278.718500
20
393.939900
11
278.483364
21
396.267612
0
LINE
8
Layer 1
10
278.483364
20
396.267612
11
277.809003
21
398.435798
0
LINE
8
Layer 1
10
277.809003
20
398.435798
11
276.741987
21
400.397967
0
LINE
8
Layer 1
10
276.741987
20
400.397967
11
275.328884
21
402.107629
0
LINE
8
Layer 1
10
275.328884
20
402.107629
11
273.616264
21
403.518293
0
LINE
8
Layer 1
10
273.616264
20
403.518293
11
271.650697
21
404.583470
0
LINE
8
Layer 1
10
271.650697
20
404.583470
11
269.478753
21
405.256669
0
LINE
8
Layer 1
10
269.478753
20
405.256669
11
267.147000
21
405.491400
0
LINE
8
Layer 1
10
267.147000
20
405.491224
11
269.478764
21
405.725955
0
LINE
8
Layer 1
10
269.478764
20
405.725955
11
271.650714
21
406.399157
0
LINE
8
Layer 1
10
271.650714
20
406.399157
11
273.616282
21
407.464341
0
LINE
8
Layer 1
10
273.616282
20
407.464341
11
275.328899
21
408.875020
0
LINE
8
Layer 1
10
275.328899
20
408.875020
11
276.741997
21
410.584706
0
LINE
8
Layer 1
10
276.741997
20
410.584706
11
277.809009
21
412.546910
0
LINE
8
Layer 1
10
277.809009
20
412.546910
11
278.483366
21
414.715145
0
LINE
8
Layer 1
10
278.483366
20
414.715145
11
278.718500
21
417.042924
0
LINE
8
Layer 1
10
278.718500
20
417.042924
11
278.483364
21
419.370636
0
LINE
8
Layer 1
10
278.483364
20
419.370636
11
277.809003
21
421.538822
0
LINE
8
Layer 1
10
277.809003
20
421.538822
11
276.741987
21
423.500991
0
LINE
8
Layer 1
10
276.741987
20
423.500991
11
275.328884
21
425.210652
0
LINE
8
Layer 1
10
275.328884
20
425.210652
11
273.616264
21
426.621317
0
LINE
8
Layer 1
10
273.616264
20
426.621317
11
271.650697
21
427.686494
0
LINE
8
Layer 1
10
271.650697
20
427.686494
11
269.478753
21
428.359693
0
LINE
8
Layer 1
10
269.478753
20
428.359693
11
267.147000
21
428.594424
0
LINE
8
Layer 1
10
267.147000
20
428.594247
11
269.478764
21
428.828979
0
LINE
8
Layer 1
10
269.478764
20
428.828979
11
271.650714
21
429.502181
0
LINE
8
Layer 1
10
271.650714
20
429.502181
11
273.616282
21
430.567362
0
LINE
8
Layer 1
10
273.616282
20
430.567362
11
275.328899
21
431.978030
0
LINE
8
Layer 1
10
275.328899
20
431.978030
11
276.741997
21
433.687694
0
LINE
8
Layer 1
10
276.741997
20
433.687694
11
277.809009
21
435.649862
0
LINE
8
Layer 1
10
277.809009
20
435.649862
11
278.483366
21
437.818044
0
LINE
8
Layer 1
10
278.483366
20
437.818044
11
278.718500
21
440.145747
0
LINE
8
Layer 1
10
278.718500
20
440.145747
11
278.483364
21
442.473511
0
LINE
8
Layer 1
10
278.483364
20
442.473511
11
277.809003
21
444.641721
0
LINE
8
Layer 1
10
277.809003
20
444.641721
11
276.741987
21
446.603893
0
LINE
8
Layer 1
10
276.741987
20
446.603893
11
275.328884
21
448.313543
0
LINE
8
Layer 1
10
275.328884
20
448.313543
11
273.616264
21
449.724188
0
LINE
8
Layer 1
10
273.616264
20
449.724188
11
271.650697
21
450.789343
0
LINE
8
Layer 1
10
271.650697
20
450.789343
11
269.478753
21
451.462524
0
LINE
8
Layer 1
10
269.478753
20
451.462524
11
267.147000
21
451.697247
0
LINE
8
Layer 1
10
267.147000
20
451.697247
11
269.963047
21
451.956706
0
LINE
8
Layer 1
10
269.963047
20
451.956706
11
272.404994
21
452.689959
0
LINE
8
Layer 1
10
272.404994
20
452.689959
11
274.472545
21
453.829320
0
LINE
8
Layer 1
10
274.472545
20
453.829320
11
276.165408
21
455.307107
0
LINE
8
Layer 1
10
276.165408
20
455.307107
11
277.483287
21
457.055632
0
LINE
8
Layer 1
10
277.483287
20
457.055632
11
278.425890
21
459.007212
0
LINE
8
Layer 1
10
278.425890
20
459.007212
11
278.992921
21
461.094162
0
LINE
8
Layer 1
10
278.992921
20
461.094162
11
279.184088
21
463.248797
0
LINE
8
Layer 1
10
279.184088
20
463.248797
11
278.999095
21
465.403432
0
LINE
8
Layer 1
10
278.999095
20
465.403432
11
278.437649
21
467.490382
0
LINE
8
Layer 1
10
278.437649
20
467.490382
11
277.499457
21
469.441962
0
LINE
8
Layer 1
10
277.499457
20
469.441962
11
276.184223
21
471.190488
0
LINE
8
Layer 1
10
276.184223
20
471.190488
11
274.491655
21
472.668274
0
LINE
8
Layer 1
10
274.491655
20
472.668274
11
272.421458
21
473.807636
0
LINE
8
Layer 1
10
272.421458
20
473.807636
11
269.973337
21
474.540889
0
LINE
8
Layer 1
10
269.973337
20
474.540889
11
267.147000
21
474.800347
0
LINE
8
Layer 1
10
246.406000
20
359.285000
11
248.737753
21
359.519731
0
LINE
8
Layer 1
10
248.737753
20
359.519731
11
250.909697
21
360.192931
0
LINE
8
Layer 1
10
250.909697
20
360.192931
11
252.875264
21
361.258112
0
LINE
8
Layer 1
10
252.875264
20
361.258112
11
254.587884
21
362.668784
0
LINE
8
Layer 1
10
254.587884
20
362.668784
11
256.000987
21
364.378458
0
LINE
8
Layer 1
10
256.000987
20
364.378458
11
257.068003
21
366.340644
0
LINE
8
Layer 1
10
257.068003
20
366.340644
11
257.742364
21
368.508855
0
LINE
8
Layer 1
10
257.742364
20
368.508855
11
257.977500
21
370.836600
0
LINE
8
Layer 1
10
257.977500
20
370.836600
11
257.742363
21
373.164324
0
LINE
8
Layer 1
10
257.742363
20
373.164324
11
257.067998
21
375.332515
0
LINE
8
Layer 1
10
257.067998
20
375.332515
11
256.000976
21
377.294684
0
LINE
8
Layer 1
10
256.000976
20
377.294684
11
254.587869
21
379.004344
0
LINE
8
Layer 1
10
254.587869
20
379.004344
11
252.875247
21
380.415004
0
LINE
8
Layer 1
10
252.875247
20
380.415004
11
250.909680
21
381.480176
0
LINE
8
Layer 1
10
250.909680
20
381.480176
11
248.737741
21
382.153371
0
LINE
8
Layer 1
10
248.737741
20
382.153371
11
246.406000
21
382.388100
0
LINE
8
Layer 1
10
246.406000
20
382.388100
11
248.737753
21
382.622829
0
LINE
8
Layer 1
10
248.737753
20
382.622829
11
250.909697
21
383.296026
0
LINE
8
Layer 1
10
250.909697
20
383.296026
11
252.875264
21
384.361201
0
LINE
8
Layer 1
10
252.875264
20
384.361201
11
254.587884
21
385.771869
0
LINE
8
Layer 1
10
254.587884
20
385.771869
11
256.000987
21
387.481540
0
LINE
8
Layer 1
10
256.000987
20
387.481540
11
257.068003
21
389.443727
0
LINE
8
Layer 1
10
257.068003
20
389.443727
11
257.742364
21
391.611943
0
LINE
8
Layer 1
10
257.742364
20
391.611943
11
257.977500
21
393.939700
0
LINE
8
Layer 1
10
257.977500
20
393.939700
11
257.742363
21
396.267424
0
LINE
8
Layer 1
10
257.742363
20
396.267424
11
257.067998
21
398.435615
0
LINE
8
Layer 1
10
257.067998
20
398.435615
11
256.000976
21
400.397784
0
LINE
8
Layer 1
10
256.000976
20
400.397784
11
254.587869
21
402.107444
0
LINE
8
Layer 1
10
254.587869
20
402.107444
11
252.875247
21
403.518104
0
LINE
8
Layer 1
10
252.875247
20
403.518104
11
250.909680
21
404.583276
0
LINE
8
Layer 1
10
250.909680
20
404.583276
11
248.737741
21
405.256471
0
LINE
8
Layer 1
10
248.737741
20
405.256471
11
246.406000
21
405.491200
0
LINE
8
Layer 1
10
246.406000
20
405.491059
11
248.737753
21
405.725790
0
LINE
8
Layer 1
10
248.737753
20
405.725790
11
250.909697
21
406.398992
0
LINE
8
Layer 1
10
250.909697
20
406.398992
11
252.875264
21
407.464176
0
LINE
8
Layer 1
10
252.875264
20
407.464176
11
254.587884
21
408.874855
0
LINE
8
Layer 1
10
254.587884
20
408.874855
11
256.000987
21
410.584541
0
LINE
8
Layer 1
10
256.000987
20
410.584541
11
257.068003
21
412.546745
0
LINE
8
Layer 1
10
257.068003
20
412.546745
11
257.742364
21
414.714981
0
LINE
8
Layer 1
10
257.742364
20
414.714981
11
257.977500
21
417.042759
0
LINE
8
Layer 1
10
257.977500
20
417.042759
11
257.742363
21
419.370471
0
LINE
8
Layer 1
10
257.742363
20
419.370471
11
257.067998
21
421.538657
0
LINE
8
Layer 1
10
257.067998
20
421.538657
11
256.000976
21
423.500826
0
LINE
8
Layer 1
10
256.000976
20
423.500826
11
254.587869
21
425.210488
0
LINE
8
Layer 1
10
254.587869
20
425.210488
11
252.875247
21
426.621152
0
LINE
8
Layer 1
10
252.875247
20
426.621152
11
250.909680
21
427.686329
0
LINE
8
Layer 1
10
250.909680
20
427.686329
11
248.737741
21
428.359528
0
LINE
8
Layer 1
10
248.737741
20
428.359528
11
246.406000
21
428.594259
0
LINE
8
Layer 1
10
246.406000
20
428.594118
11
248.737753
21
428.828847
0
LINE
8
Layer 1
10
248.737753
20
428.828847
11
250.909697
21
429.502044
0
LINE
8
Layer 1
10
250.909697
20
429.502044
11
252.875264
21
430.567219
0
LINE
8
Layer 1
10
252.875264
20
430.567219
11
254.587884
21
431.977887
0
LINE
8
Layer 1
10
254.587884
20
431.977887
11
256.000987
21
433.687558
0
LINE
8
Layer 1
10
256.000987
20
433.687558
11
257.068003
21
435.649745
0
LINE
8
Layer 1
10
257.068003
20
435.649745
11
257.742364
21
437.817961
0
LINE
8
Layer 1
10
257.742364
20
437.817961
11
257.977500
21
440.145718
0
LINE
8
Layer 1
10
257.977500
20
440.145718
11
257.742363
21
442.473442
0
LINE
8
Layer 1
10
257.742363
20
442.473442
11
257.067998
21
444.641633
0
LINE
8
Layer 1
10
257.067998
20
444.641633
11
256.000976
21
446.603802
0
LINE
8
Layer 1
10
256.000976
20
446.603802
11
254.587869
21
448.313462
0
LINE
8
Layer 1
10
254.587869
20
448.313462
11
252.875247
21
449.724122
0
LINE
8
Layer 1
10
252.875247
20
449.724122
11
250.909680
21
450.789294
0
LINE
8
Layer 1
10
250.909680
20
450.789294
11
248.737741
21
451.462489
0
LINE
8
Layer 1
10
248.737741
20
451.462489
11
246.406000
21
451.697218
0
LINE
8
Layer 1
10
246.406000
20
451.697077
11
248.737753
21
451.931806
0
LINE
8
Layer 1
10
248.737753
20
451.931806
11
250.909697
21
452.605002
0
LINE
8
Layer 1
10
250.909697
20
452.605002
11
252.875264
21
453.670178
0
LINE
8
Layer 1
10
252.875264
20
453.670178
11
254.587884
21
455.080845
0
LINE
8
Layer 1
10
254.587884
20
455.080845
11
256.000987
21
456.790517
0
LINE
8
Layer 1
10
256.000987
20
456.790517
11
257.068003
21
458.752704
0
LINE
8
Layer 1
10
257.068003
20
458.752704
11
257.742364
21
460.920920
0
LINE
8
Layer 1
10
257.742364
20
460.920920
11
257.977500
21
463.248677
0
LINE
8
Layer 1
10
257.977500
20
463.248677
11
257.742363
21
465.576400
0
LINE
8
Layer 1
10
257.742363
20
465.576400
11
257.067998
21
467.744592
0
LINE
8
Layer 1
10
257.067998
20
467.744592
11
256.000976
21
469.706761
0
LINE
8
Layer 1
10
256.000976
20
469.706761
11
254.587869
21
471.416420
0
LINE
8
Layer 1
10
254.587869
20
471.416420
11
252.875247
21
472.827080
0
LINE
8
Layer 1
10
252.875247
20
472.827080
11
250.909680
21
473.892252
0
LINE
8
Layer 1
10
250.909680
20
473.892252
11
248.737741
21
474.565447
0
LINE
8
Layer 1
10
248.737741
20
474.565447
11
246.406000
21
474.800177
0
LINE
8
Layer 1
10
146.673000
20
359.530000
11
144.341231
21
359.764731
0
LINE
8
Layer 1
10
144.341231
20
359.764731
11
142.169270
21
360.437933
0
LINE
8
Layer 1
10
142.169270
20
360.437933
11
140.203687
21
361.503117
0
LINE
8
Layer 1
10
140.203687
20
361.503117
11
138.491051
21
362.913796
0
LINE
8
Layer 1
10
138.491051
20
362.913796
11
137.077934
21
364.623482
0
LINE
8
Layer 1
10
137.077934
20
364.623482
11
136.010907
21
366.585686
0
LINE
8
Layer 1
10
136.010907
20
366.585686
11
135.336538
21
368.753922
0
LINE
8
Layer 1
10
135.336538
20
368.753922
11
135.101400
21
371.081700
0
LINE
8
Layer 1
10
135.101400
20
371.081700
11
135.336538
21
373.409412
0
LINE
8
Layer 1
10
135.336538
20
373.409412
11
136.010904
21
375.577598
0
LINE
8
Layer 1
10
136.010904
20
375.577598
11
137.077929
21
377.539767
0
LINE
8
Layer 1
10
137.077929
20
377.539767
11
138.491044
21
379.249429
0
LINE
8
Layer 1
10
138.491044
20
379.249429
11
140.203678
21
380.660093
0
LINE
8
Layer 1
10
140.203678
20
380.660093
11
142.169262
21
381.725270
0
LINE
8
Layer 1
10
142.169262
20
381.725270
11
144.341226
21
382.398469
0
LINE
8
Layer 1
10
144.341226
20
382.398469
11
146.673000
21
382.633200
0
LINE
8
Layer 1
10
146.673000
20
382.633200
11
144.341231
21
382.867929
0
LINE
8
Layer 1
10
144.341231
20
382.867929
11
142.169270
21
383.541126
0
LINE
8
Layer 1
10
142.169270
20
383.541126
11
140.203687
21
384.606301
0
LINE
8
Layer 1
10
140.203687
20
384.606301
11
138.491051
21
386.016969
0
LINE
8
Layer 1
10
138.491051
20
386.016969
11
137.077934
21
387.726640
0
LINE
8
Layer 1
10
137.077934
20
387.726640
11
136.010907
21
389.688827
0
LINE
8
Layer 1
10
136.010907
20
389.688827
11
135.336538
21
391.857043
0
LINE
8
Layer 1
10
135.336538
20
391.857043
11
135.101400
21
394.184800
0
LINE
8
Layer 1
10
135.101400
20
394.184800
11
135.336538
21
396.512524
0
LINE
8
Layer 1
10
135.336538
20
396.512524
11
136.010904
21
398.680715
0
LINE
8
Layer 1
10
136.010904
20
398.680715
11
137.077929
21
400.642884
0
LINE
8
Layer 1
10
137.077929
20
400.642884
11
138.491044
21
402.352544
0
LINE
8
Layer 1
10
138.491044
20
402.352544
11
140.203678
21
403.763204
0
LINE
8
Layer 1
10
140.203678
20
403.763204
11
142.169262
21
404.828376
0
LINE
8
Layer 1
10
142.169262
20
404.828376
11
144.341226
21
405.501571
0
LINE
8
Layer 1
10
144.341226
20
405.501571
11
146.673000
21
405.736300
0
LINE
8
Layer 1
10
146.673000
20
405.736159
11
144.341231
21
405.970888
0
LINE
8
Layer 1
10
144.341231
20
405.970888
11
142.169270
21
406.644085
0
LINE
8
Layer 1
10
142.169270
20
406.644085
11
140.203687
21
407.709260
0
LINE
8
Layer 1
10
140.203687
20
407.709260
11
138.491051
21
409.119928
0
LINE
8
Layer 1
10
138.491051
20
409.119928
11
137.077934
21
410.829599
0
LINE
8
Layer 1
10
137.077934
20
410.829599
11
136.010907
21
412.791786
0
LINE
8
Layer 1
10
136.010907
20
412.791786
11
135.336538
21
414.960002
0
LINE
8
Layer 1
10
135.336538
20
414.960002
11
135.101400
21
417.287759
0
LINE
8
Layer 1
10
135.101400
20
417.287759
11
135.336538
21
419.615483
0
LINE
8
Layer 1
10
135.336538
20
419.615483
11
136.010904
21
421.783674
0
LINE
8
Layer 1
10
136.010904
20
421.783674
11
137.077929
21
423.745843
0
LINE
8
Layer 1
10
137.077929
20
423.745843
11
138.491044
21
425.455503
0
LINE
8
Layer 1
10
138.491044
20
425.455503
11
140.203678
21
426.866163
0
LINE
8
Layer 1
10
140.203678
20
426.866163
11
142.169262
21
427.931335
0
LINE
8
Layer 1
10
142.169262
20
427.931335
11
144.341226
21
428.604530
0
LINE
8
Layer 1
10
144.341226
20
428.604530
11
146.673000
21
428.839259
0
LINE
8
Layer 1
10
146.673000
20
428.839118
11
144.341231
21
429.073849
0
LINE
8
Layer 1
10
144.341231
20
429.073849
11
142.169270
21
429.747049
0
LINE
8
Layer 1
10
142.169270
20
429.747049
11
140.203687
21
430.812230
0
LINE
8
Layer 1
10
140.203687
20
430.812230
11
138.491051
21
432.222902
0
LINE
8
Layer 1
10
138.491051
20
432.222902
11
137.077934
21
433.932575
0
LINE
8
Layer 1
10
137.077934
20
433.932575
11
136.010907
21
435.894762
0
LINE
8
Layer 1
10
136.010907
20
435.894762
11
135.336538
21
438.062973
0
LINE
8
Layer 1
10
135.336538
20
438.062973
11
135.101400
21
440.390718
0
LINE
8
Layer 1
10
135.101400
20
440.390718
11
135.336538
21
442.718442
0
LINE
8
Layer 1
10
135.336538
20
442.718442
11
136.010904
21
444.886633
0
LINE
8
Layer 1
10
136.010904
20
444.886633
11
137.077929
21
446.848802
0
LINE
8
Layer 1
10
137.077929
20
446.848802
11
138.491044
21
448.558462
0
LINE
8
Layer 1
10
138.491044
20
448.558462
11
140.203678
21
449.969122
0
LINE
8
Layer 1
10
140.203678
20
449.969122
11
142.169262
21
451.034294
0
LINE
8
Layer 1
10
142.169262
20
451.034294
11
144.341226
21
451.707489
0
LINE
8
Layer 1
10
144.341226
20
451.707489
11
146.673000
21
451.942218
0
LINE
8
Layer 1
10
146.673000
20
451.942077
11
144.341231
21
452.176806
0
LINE
8
Layer 1
10
144.341231
20
452.176806
11
142.169270
21
452.850002
0
LINE
8
Layer 1
10
142.169270
20
452.850002
11
140.203687
21
453.915178
0
LINE
8
Layer 1
10
140.203687
20
453.915178
11
138.491051
21
455.325845
0
LINE
8
Layer 1
10
138.491051
20
455.325845
11
137.077934
21
457.035517
0
LINE
8
Layer 1
10
137.077934
20
457.035517
11
136.010907
21
458.997704
0
LINE
8
Layer 1
10
136.010907
20
458.997704
11
135.336538
21
461.165920
0
LINE
8
Layer 1
10
135.336538
20
461.165920
11
135.101400
21
463.493677
0
LINE
8
Layer 1
10
135.101400
20
463.493677
11
135.336538
21
465.821400
0
LINE
8
Layer 1
10
135.336538
20
465.821400
11
136.010904
21
467.989592
0
LINE
8
Layer 1
10
136.010904
20
467.989592
11
137.077929
21
469.951761
0
LINE
8
Layer 1
10
137.077929
20
469.951761
11
138.491044
21
471.661420
0
LINE
8
Layer 1
10
138.491044
20
471.661420
11
140.203678
21
473.072080
0
LINE
8
Layer 1
10
140.203678
20
473.072080
11
142.169262
21
474.137252
0
LINE
8
Layer 1
10
142.169262
20
474.137252
11
144.341226
21
474.810447
0
LINE
8
Layer 1
10
144.341226
20
474.810447
11
146.673000
21
475.045177
0
LINE
8
Layer 1
10
166.137000
20
359.530000
11
163.235941
21
359.789459
0
LINE
8
Layer 1
10
163.235941
20
359.789459
11
160.745841
21
360.522711
0
LINE
8
Layer 1
10
160.745841
20
360.522711
11
158.661523
21
361.662073
0
LINE
8
Layer 1
10
158.661523
20
361.662073
11
156.977812
21
363.139859
0
LINE
8
Layer 1
10
156.977812
20
363.139859
11
155.689535
21
364.888385
0
LINE
8
Layer 1
10
155.689535
20
364.888385
11
154.791516
21
366.839965
0
LINE
8
Layer 1
10
154.791516
20
366.839965
11
154.278579
21
368.926915
0
LINE
8
Layer 1
10
154.278579
20
368.926915
11
154.145550
21
371.081550
0
LINE
8
Layer 1
10
154.145550
20
371.081550
11
154.387254
21
373.236185
0
LINE
8
Layer 1
10
154.387254
20
373.236185
11
154.998516
21
375.323135
0
LINE
8
Layer 1
10
154.998516
20
375.323135
11
155.974160
21
377.274715
0
LINE
8
Layer 1
10
155.974160
20
377.274715
11
157.309012
21
379.023241
0
LINE
8
Layer 1
10
157.309012
20
379.023241
11
158.997898
21
380.501027
0
LINE
8
Layer 1
10
158.997898
20
380.501027
11
161.035641
21
381.640389
0
LINE
8
Layer 1
10
161.035641
20
381.640389
11
163.417066
21
382.373641
0
LINE
8
Layer 1
10
163.417066
20
382.373641
11
166.137000
21
382.633100
0
LINE
8
Layer 1
10
166.137000
20
382.633100
11
163.805247
21
382.867832
0
LINE
8
Layer 1
10
163.805247
20
382.867832
11
161.633303
21
383.541037
0
LINE
8
Layer 1
10
161.633303
20
383.541037
11
159.667736
21
384.606225
0
LINE
8
Layer 1
10
159.667736
20
384.606225
11
157.955116
21
386.016907
0
LINE
8
Layer 1
10
157.955116
20
386.016907
11
156.542013
21
387.726595
0
LINE
8
Layer 1
10
156.542013
20
387.726595
11
155.474997
21
389.688799
0
LINE
8
Layer 1
10
155.474997
20
389.688799
11
154.800636
21
391.857030
0
LINE
8
Layer 1
10
154.800636
20
391.857030
11
154.565500
21
394.184800
0
LINE
8
Layer 1
10
154.565500
20
394.184800
11
154.800636
21
396.512512
0
LINE
8
Layer 1
10
154.800636
20
396.512512
11
155.474997
21
398.680698
0
LINE
8
Layer 1
10
155.474997
20
398.680698
11
156.542013
21
400.642867
0
LINE
8
Layer 1
10
156.542013
20
400.642867
11
157.955116
21
402.352529
0
LINE
8
Layer 1
10
157.955116
20
402.352529
11
159.667736
21
403.763193
0
LINE
8
Layer 1
10
159.667736
20
403.763193
11
161.633303
21
404.828370
0
LINE
8
Layer 1
10
161.633303
20
404.828370
11
163.805247
21
405.501569
0
LINE
8
Layer 1
10
163.805247
20
405.501569
11
166.137000
21
405.736300
0
LINE
8
Layer 1
10
166.137000
20
405.736124
11
163.805247
21
405.970856
0
LINE
8
Layer 1
10
163.805247
20
405.970856
11
161.633303
21
406.644061
0
LINE
8
Layer 1
10
161.633303
20
406.644061
11
159.667736
21
407.709249
0
LINE
8
Layer 1
10
159.667736
20
407.709249
11
157.955116
21
409.119931
0
LINE
8
Layer 1
10
157.955116
20
409.119931
11
156.542013
21
410.829619
0
LINE
8
Layer 1
10
156.542013
20
410.829619
11
155.474997
21
412.791823
0
LINE
8
Layer 1
10
155.474997
20
412.791823
11
154.800636
21
414.960054
0
LINE
8
Layer 1
10
154.800636
20
414.960054
11
154.565500
21
417.287824
0
LINE
8
Layer 1
10
154.565500
20
417.287824
11
154.800636
21
419.615536
0
LINE
8
Layer 1
10
154.800636
20
419.615536
11
155.474997
21
421.783722
0
LINE
8
Layer 1
10
155.474997
20
421.783722
11
156.542013
21
423.745891
0
LINE
8
Layer 1
10
156.542013
20
423.745891
11
157.955116
21
425.455552
0
LINE
8
Layer 1
10
157.955116
20
425.455552
11
159.667736
21
426.866217
0
LINE
8
Layer 1
10
159.667736
20
426.866217
11
161.633303
21
427.931394
0
LINE
8
Layer 1
10
161.633303
20
427.931394
11
163.805247
21
428.604593
0
LINE
8
Layer 1
10
163.805247
20
428.604593
11
166.137000
21
428.839324
0
LINE
8
Layer 1
10
166.137000
20
428.839147
11
163.805247
21
429.073879
0
LINE
8
Layer 1
10
163.805247
20
429.073879
11
161.633303
21
429.747081
0
LINE
8
Layer 1
10
161.633303
20
429.747081
11
159.667736
21
430.812262
0
LINE
8
Layer 1
10
159.667736
20
430.812262
11
157.955116
21
432.222930
0
LINE
8
Layer 1
10
157.955116
20
432.222930
11
156.542013
21
433.932594
0
LINE
8
Layer 1
10
156.542013
20
433.932594
11
155.474997
21
435.894762
0
LINE
8
Layer 1
10
155.474997
20
435.894762
11
154.800636
21
438.062944
0
LINE
8
Layer 1
10
154.800636
20
438.062944
11
154.565500
21
440.390647
0
LINE
8
Layer 1
10
154.565500
20
440.390647
11
154.800636
21
442.718411
0
LINE
8
Layer 1
10
154.800636
20
442.718411
11
155.474997
21
444.886621
0
LINE
8
Layer 1
10
155.474997
20
444.886621
11
156.542013
21
446.848793
0
LINE
8
Layer 1
10
156.542013
20
446.848793
11
157.955116
21
448.558443
0
LINE
8
Layer 1
10
157.955116
20
448.558443
11
159.667736
21
449.969088
0
LINE
8
Layer 1
10
159.667736
20
449.969088
11
161.633303
21
451.034243
0
LINE
8
Layer 1
10
161.633303
20
451.034243
11
163.805247
21
451.707424
0
LINE
8
Layer 1
10
163.805247
20
451.707424
11
166.137000
21
451.942147
0
LINE
8
Layer 1
10
166.137000
20
451.942147
11
163.320954
21
452.201606
0
LINE
8
Layer 1
10
163.320954
20
452.201606
11
160.879010
21
452.934859
0
LINE
8
Layer 1
10
160.879010
20
452.934859
11
158.811463
21
454.074220
0
LINE
8
Layer 1
10
158.811463
20
454.074220
11
157.118606
21
455.552007
0
LINE
8
Layer 1
10
157.118606
20
455.552007
11
155.800733
21
457.300532
0
LINE
8
Layer 1
10
155.800733
20
457.300532
11
154.858137
21
459.252112
0
LINE
8
Layer 1
10
154.858137
20
459.252112
11
154.291111
21
461.339062
0
LINE
8
Layer 1
10
154.291111
20
461.339062
11
154.099950
21
463.493697
0
LINE
8
Layer 1
10
154.099950
20
463.493697
11
154.284947
21
465.648332
0
LINE
8
Layer 1
10
154.284947
20
465.648332
11
154.846395
21
467.735282
0
LINE
8
Layer 1
10
154.846395
20
467.735282
11
155.784587
21
469.686862
0
LINE
8
Layer 1
10
155.784587
20
469.686862
11
157.099819
21
471.435388
0
LINE
8
Layer 1
10
157.099819
20
471.435388
11
158.792382
21
472.913174
0
LINE
8
Layer 1
10
158.792382
20
472.913174
11
160.862571
21
474.052536
0
LINE
8
Layer 1
10
160.862571
20
474.052536
11
163.310679
21
474.785789
0
LINE
8
Layer 1
10
163.310679
20
474.785789
11
166.137000
21
475.045247
0
LINE
8
Layer 1
10
186.878000
20
359.530000
11
184.546247
21
359.764731
0
LINE
8
Layer 1
10
184.546247
20
359.764731
11
182.374303
21
360.437933
0
LINE
8
Layer 1
10
182.374303
20
360.437933
11
180.408736
21
361.503117
0
LINE
8
Layer 1
10
180.408736
20
361.503117
11
178.696116
21
362.913796
0
LINE
8
Layer 1
10
178.696116
20
362.913796
11
177.283013
21
364.623482
0
LINE
8
Layer 1
10
177.283013
20
364.623482
11
176.215997
21
366.585686
0
LINE
8
Layer 1
10
176.215997
20
366.585686
11
175.541636
21
368.753922
0
LINE
8
Layer 1
10
175.541636
20
368.753922
11
175.306500
21
371.081700
0
LINE
8
Layer 1
10
175.306500
20
371.081700
11
175.541637
21
373.409412
0
LINE
8
Layer 1
10
175.541637
20
373.409412
11
176.216002
21
375.577598
0
LINE
8
Layer 1
10
176.216002
20
375.577598
11
177.283024
21
377.539767
0
LINE
8
Layer 1
10
177.283024
20
377.539767
11
178.696131
21
379.249429
0
LINE
8
Layer 1
10
178.696131
20
379.249429
11
180.408753
21
380.660093
0
LINE
8
Layer 1
10
180.408753
20
380.660093
11
182.374320
21
381.725270
0
LINE
8
Layer 1
10
182.374320
20
381.725270
11
184.546259
21
382.398469
0
LINE
8
Layer 1
10
184.546259
20
382.398469
11
186.878000
21
382.633200
0
LINE
8
Layer 1
10
186.878000
20
382.633200
11
184.546247
21
382.867929
0
LINE
8
Layer 1
10
184.546247
20
382.867929
11
182.374303
21
383.541126
0
LINE
8
Layer 1
10
182.374303
20
383.541126
11
180.408736
21
384.606301
0
LINE
8
Layer 1
10
180.408736
20
384.606301
11
178.696116
21
386.016969
0
LINE
8
Layer 1
10
178.696116
20
386.016969
11
177.283013
21
387.726640
0
LINE
8
Layer 1
10
177.283013
20
387.726640
11
176.215997
21
389.688827
0
LINE
8
Layer 1
10
176.215997
20
389.688827
11
175.541636
21
391.857043
0
LINE
8
Layer 1
10
175.541636
20
391.857043
11
175.306500
21
394.184800
0
LINE
8
Layer 1
10
175.306500
20
394.184800
11
175.541637
21
396.512524
0
LINE
8
Layer 1
10
175.541637
20
396.512524
11
176.216002
21
398.680715
0
LINE
8
Layer 1
10
176.216002
20
398.680715
11
177.283024
21
400.642884
0
LINE
8
Layer 1
10
177.283024
20
400.642884
11
178.696131
21
402.352544
0
LINE
8
Layer 1
10
178.696131
20
402.352544
11
180.408753
21
403.763204
0
LINE
8
Layer 1
10
180.408753
20
403.763204
11
182.374320
21
404.828376
0
LINE
8
Layer 1
10
182.374320
20
404.828376
11
184.546259
21
405.501571
0
LINE
8
Layer 1
10
184.546259
20
405.501571
11
186.878000
21
405.736300
0
LINE
8
Layer 1
10
186.878000
20
405.736159
11
184.546247
21
405.970888
0
LINE
8
Layer 1
10
184.546247
20
405.970888
11
182.374303
21
406.644085
0
LINE
8
Layer 1
10
182.374303
20
406.644085
11
180.408736
21
407.709260
0
LINE
8
Layer 1
10
180.408736
20
407.709260
11
178.696116
21
409.119928
0
LINE
8
Layer 1
10
178.696116
20
409.119928
11
177.283013
21
410.829599
0
LINE
8
Layer 1
10
177.283013
20
410.829599
11
176.215997
21
412.791786
0
LINE
8
Layer 1
10
176.215997
20
412.791786
11
175.541636
21
414.960002
0
LINE
8
Layer 1
10
175.541636
20
414.960002
11
175.306500
21
417.287759
0
LINE
8
Layer 1
10
175.306500
20
417.287759
11
175.541637
21
419.615483
0
LINE
8
Layer 1
10
175.541637
20
419.615483
11
176.216002
21
421.783674
0
LINE
8
Layer 1
10
176.216002
20
421.783674
11
177.283024
21
423.745843
0
LINE
8
Layer 1
10
177.283024
20
423.745843
11
178.696131
21
425.455503
0
LINE
8
Layer 1
10
178.696131
20
425.455503
11
180.408753
21
426.866163
0
LINE
8
Layer 1
10
180.408753
20
426.866163
11
182.374320
21
427.931335
0
LINE
8
Layer 1
10
182.374320
20
427.931335
11
184.546259
21
428.604530
0
LINE
8
Layer 1
10
184.546259
20
428.604530
11
186.878000
21
428.839259
0
LINE
8
Layer 1
10
186.878000
20
428.839118
11
184.546247
21
429.073849
0
LINE
8
Layer 1
10
184.546247
20
429.073849
11
182.374303
21
429.747049
0
LINE
8
Layer 1
10
182.374303
20
429.747049
11
180.408736
21
430.812230
0
LINE
8
Layer 1
10
180.408736
20
430.812230
11
178.696116
21
432.222902
0
LINE
8
Layer 1
10
178.696116
20
432.222902
11
177.283013
21
433.932575
0
LINE
8
Layer 1
10
177.283013
20
433.932575
11
176.215997
21
435.894762
0
LINE
8
Layer 1
10
176.215997
20
435.894762
11
175.541636
21
438.062973
0
LINE
8
Layer 1
10
175.541636
20
438.062973
11
175.306500
21
440.390718
0
LINE
8
Layer 1
10
175.306500
20
440.390718
11
175.541637
21
442.718442
0
LINE
8
Layer 1
10
175.541637
20
442.718442
11
176.216002
21
444.886633
0
LINE
8
Layer 1
10
176.216002
20
444.886633
11
177.283024
21
446.848802
0
LINE
8
Layer 1
10
177.283024
20
446.848802
11
178.696131
21
448.558462
0
LINE
8
Layer 1
10
178.696131
20
448.558462
11
180.408753
21
449.969122
0
LINE
8
Layer 1
10
180.408753
20
449.969122
11
182.374320
21
451.034294
0
LINE
8
Layer 1
10
182.374320
20
451.034294
11
184.546259
21
451.707489
0
LINE
8
Layer 1
10
184.546259
20
451.707489
11
186.878000
21
451.942218
0
LINE
8
Layer 1
10
186.878000
20
451.942077
11
184.546247
21
452.176806
0
LINE
8
Layer 1
10
184.546247
20
452.176806
11
182.374303
21
452.850002
0
LINE
8
Layer 1
10
182.374303
20
452.850002
11
180.408736
21
453.915178
0
LINE
8
Layer 1
10
180.408736
20
453.915178
11
178.696116
21
455.325845
0
LINE
8
Layer 1
10
178.696116
20
455.325845
11
177.283013
21
457.035517
0
LINE
8
Layer 1
10
177.283013
20
457.035517
11
176.215997
21
458.997704
0
LINE
8
Layer 1
10
176.215997
20
458.997704
11
175.541636
21
461.165920
0
LINE
8
Layer 1
10
175.541636
20
461.165920
11
175.306500
21
463.493677
0
LINE
8
Layer 1
10
175.306500
20
463.493677
11
175.541637
21
465.821400
0
LINE
8
Layer 1
10
175.541637
20
465.821400
11
176.216002
21
467.989592
0
LINE
8
Layer 1
10
176.216002
20
467.989592
11
177.283024
21
469.951761
0
LINE
8
Layer 1
10
177.283024
20
469.951761
11
178.696131
21
471.661420
0
LINE
8
Layer 1
10
178.696131
20
471.661420
11
180.408753
21
473.072080
0
LINE
8
Layer 1
10
180.408753
20
473.072080
11
182.374320
21
474.137252
0
LINE
8
Layer 1
10
182.374320
20
474.137252
11
184.546259
21
474.810447
0
LINE
8
Layer 1
10
184.546259
20
474.810447
11
186.878000
21
475.045177
 0 
ENDSEC
 0 
EOF